<?xml version="1.0" encoding="utf-8"?>
<!-- Generator: Adobe Illustrator 17.1.0, SVG Export Plug-In . SVG Version: 6.00 Build 0)  -->
<!DOCTYPE svg PUBLIC "-//W3C//DTD SVG 1.1//EN" "http://www.w3.org/Graphics/SVG/1.1/DTD/svg11.dtd">
<svg version="1.1" id="Layer_1" xmlns="http://www.w3.org/2000/svg" xmlns:xlink="http://www.w3.org/1999/xlink" x="0px" y="0px"
	 viewBox="0 0 412.5 198" enable-background="new 0 0 412.5 198" xml:space="preserve">
<path fill="#3B97D3" d="M382.7,159c0,5.5-4.5,10-10,10H45.4c-5.5,0-10-4.5-10-10V35c0-5.5,4.5-10,10-10h327.3c5.5,0,10,4.5,10,10
	V159z"/>
<g>
	<path fill="#CCA176" d="M110.5,45C81,45,57.1,68.9,57.1,98.4s23.9,53.4,53.4,53.4s53.4-23.9,53.4-53.4S140,45,110.5,45z
		 M110.5,116.5c-10,0-18.2-8.1-18.2-18.2c0-10,8.1-18.2,18.2-18.2s18.2,8.1,18.2,18.2C128.7,108.4,120.5,116.5,110.5,116.5z"/>
	<path fill="#F1658A" d="M153.6,84.3c-1.6-4.8-0.3-11-3.2-15c-2.9-4-9.2-4.8-13.2-7.7c-4-2.9-6.6-8.7-11.4-10.2
		c-4.6-1.5-10.1,1.6-15.2,1.6c-5.1,0-10.6-3.1-15.2-1.6c-4.8,1.6-7.4,7.3-11.4,10.2c-4,2.9-10.3,3.7-13.2,7.7
		c-2.9,4-1.7,10.2-3.2,15c-1.5,4.6-6.2,8.9-6.2,14c0,5.1,4.7,9.4,6.2,14c1.6,4.8,0.3,11,3.2,15c2.9,4,9.2,4.8,13.2,7.7
		c4,2.9,6.6,8.7,11.4,10.2c4.6,1.5,10.1-1.6,15.2-1.6c5.1,0,10.6,3.1,15.2,1.6c4.8-1.6,7.4-7.3,11.4-10.2c4-2.9,10.3-3.7,13.2-7.7
		c2.9-4,1.7-10.2,3.2-15c1.5-4.6,6.2-8.9,6.2-14C159.8,93.3,155.1,89,153.6,84.3z M110.5,116.5c-10,0-18.2-8.1-18.2-18.2
		c0-10,8.1-18.2,18.2-18.2s18.2,8.1,18.2,18.2C128.7,108.4,120.5,116.5,110.5,116.5z"/>
	<path fill="#ED4C7E" d="M123.5,128.4c-24.7,0-44.8-20-44.8-44.8c0-8.4,2.3-16.2,6.3-23c-0.5,0.4-0.9,0.8-1.4,1.2
		c-4,2.9-10.3,3.7-13.2,7.7c-2.9,4-1.7,10.2-3.2,15c-1.5,4.6-6.2,8.9-6.2,14c0,5.1,4.7,9.4,6.2,14c1.6,4.8,0.3,11,3.2,15
		c2.9,4,9.2,4.8,13.2,7.7c4,2.9,6.6,8.7,11.4,10.2c4.6,1.5,10.1-1.6,15.2-1.6c5.1,0,10.6,3.1,15.2,1.6c4.8-1.6,7.4-7.3,11.4-10.2
		c4-2.9,10.3-3.7,13.2-7.7c1.9-2.7,2-6.3,2.4-9.9C144.7,124.4,134.6,128.4,123.5,128.4z"/>
	<path fill="#FFFFFF" d="M83.2,124.3c0.4,0.5,0.3,1.3-0.2,1.7l0,0c-0.5,0.4-1.3,0.3-1.7-0.2l-4.5-5.8c-0.4-0.5-0.3-1.3,0.2-1.7l0,0
		c0.5-0.4,1.3-0.3,1.7,0.2L83.2,124.3z"/>
	<path fill="#FFFFFF" d="M126.3,137.8c0.4,0.5,0.3,1.3-0.2,1.7l0,0c-0.5,0.4-1.3,0.3-1.7-0.2l-4.5-5.8c-0.4-0.5-0.3-1.3,0.2-1.7l0,0
		c0.5-0.4,1.3-0.3,1.7,0.2L126.3,137.8z"/>
	<path fill="#FFFFFF" d="M146.1,75.2c0.6-0.1,1.1,0.2,1.2,0.8l0,0c0.1,0.6-0.2,1.1-0.8,1.2l-6,1.3c-0.6,0.1-1.1-0.2-1.2-0.8l0,0
		c-0.1-0.6,0.2-1.1,0.8-1.2L146.1,75.2z"/>
	<path fill="#FFFFFF" d="M104.8,73.6c0.6-0.1,1.1,0.2,1.2,0.8l0,0c0.1,0.6-0.2,1.1-0.8,1.2l-6,1.3c-0.6,0.1-1.1-0.2-1.2-0.8l0,0
		c-0.1-0.6,0.2-1.1,0.8-1.2L104.8,73.6z"/>
	<path fill="#FFFFFF" d="M125.1,73.9c-0.1,0.6-0.7,0.9-1.3,0.7l0,0c-0.6-0.1-0.9-0.7-0.7-1.3l1.5-5.9c0.1-0.6,0.7-0.9,1.3-0.7l0,0
		c0.6,0.1,0.9,0.7,0.7,1.3L125.1,73.9z"/>
	<path fill="#FFFFFF" d="M138.3,126.1c-0.4,0.4-1.1,0.4-1.5,0l0,0c-0.4-0.4-0.4-1.1,0-1.5l4.3-4.3c0.4-0.4,1.1-0.4,1.5,0l0,0
		c0.4,0.4,0.4,1.1,0,1.5L138.3,126.1z"/>
	<path fill="#FFFFFF" d="M103.8,125.1c-0.4,0.4-1.1,0.4-1.5,0l0,0c-0.4-0.4-0.4-1.1,0-1.5l4.3-4.3c0.4-0.4,1.1-0.4,1.5,0l0,0
		c0.4,0.4,0.4,1.1,0,1.5L103.8,125.1z"/>
	<path fill="#FFFFFF" d="M102,138.6c0.1,0.6-0.3,1.1-0.9,1.2l0,0c-0.6,0.1-1.1-0.3-1.2-0.9l-0.7-6.1c-0.1-0.6,0.3-1.1,0.9-1.2l0,0
		c0.6-0.1,1.1,0.3,1.2,0.9L102,138.6z"/>
	<path fill="#FFFFFF" d="M133.3,116.9c0.1,0.6-0.3,1.1-0.9,1.2l0,0c-0.6,0.1-1.1-0.3-1.2-0.9l-0.7-6.1c-0.1-0.6,0.3-1.1,0.9-1.2l0,0
		c0.6-0.1,1.1,0.3,1.2,0.9L133.3,116.9z"/>
	<path fill="#FFFFFF" d="M78.6,107.8c-0.4,0.4-1.1,0.4-1.5,0l0,0c-0.4-0.4-0.4-1.1,0-1.5l4.3-4.3c0.4-0.4,1.1-0.4,1.5,0l0,0
		c0.4,0.4,0.4,1.1,0,1.5L78.6,107.8z"/>
	<path fill="#FFFFFF" d="M89.3,66.8c-0.6-0.1-1-0.6-0.9-1.2l0,0c0.1-0.6,0.6-1,1.2-0.9l6,0.8c0.6,0.1,1,0.6,0.9,1.2l0,0
		c-0.1,0.6-0.6,1-1.2,0.9L89.3,66.8z"/>
	<path fill="#FFFFFF" d="M112.7,59c0.1-0.6,0.6-1,1.2-0.9l0,0c0.6,0.1,1,0.6,0.9,1.2l-1,6c-0.1,0.6-0.6,1-1.2,0.9l0,0
		c-0.6-0.1-1-0.6-0.9-1.2L112.7,59z"/>
	<path fill="#FFFFFF" d="M136.6,98.2c-0.6-0.1-1-0.6-0.9-1.2l0,0c0.1-0.6,0.6-1,1.2-0.9l6,0.8c0.6,0.1,1,0.6,0.9,1.2l0,0
		c-0.1,0.6-0.6,1-1.2,0.9L136.6,98.2z"/>
	<path fill="#3080AD" d="M105.4,84.4c10,0,18.1,8.1,18.1,18.1c0,4.4-1.6,8.4-4.2,11.6c5.5-3.1,9.3-9,9.3-15.8
		c0-10-8.1-18.1-18.1-18.1c-5.6,0-10.6,2.5-14,6.6C99.1,85.3,102.1,84.4,105.4,84.4z"/>
	<path fill="#FFFFFF" d="M83.3,82.4c0.4,0.6,0.3,1.4-0.2,1.8l0,0c-0.6,0.4-1.4,0.3-1.8-0.2l-4.6-6c-0.4-0.6-0.3-1.4,0.2-1.8l0,0
		c0.6-0.4,1.4-0.3,1.8,0.2L83.3,82.4z"/>
</g>
<g>
	<g>
		<g>
			<path fill="#3080AD" d="M178.8,98.6v-26c0-1.4,1.1-2.4,2.4-2.4h5.2c8.5,0,15.4,6.9,15.4,15.4c0,8.5-6.9,15.4-15.4,15.4h-5.2
				C179.9,101,178.8,99.9,178.8,98.6z M183.7,96.1h2.7c5.8,0,10.5-4.7,10.5-10.6c0-5.8-4.7-10.5-10.5-10.5h-2.7V96.1z"/>
			<path fill="#3080AD" d="M233,74c2.7,2.9,4.4,6.8,4.4,11.1s-1.7,8.3-4.4,11.1c-2.6,2.9-6.5,4.7-10.5,4.7c-4.2,0-8.1-1.8-10.8-4.7
				c-2.7-2.9-4.4-6.8-4.4-11.1s1.6-8.2,4.4-11.1c2.7-2.9,6.6-4.7,10.8-4.7C226.5,69.3,230.4,71.1,233,74z M232.4,85.2
				c0-3-1.2-5.8-3-7.7c-1.8-2-4.3-3.1-7-3.1c-2.8,0-5.3,1.1-7.1,3.1c-1.8,1.9-3,4.7-3,7.7c0,3,1.1,5.8,3,7.7c1.8,2,4.3,3.2,7.1,3.2
				c2.6,0,5.1-1.2,7-3.2C231.2,90.9,232.4,88.2,232.4,85.2z"/>
			<path fill="#3080AD" d="M248.7,98.6c0,1.3-1.1,2.4-2.4,2.4c-1.4,0-2.4-1.1-2.4-2.4V73c0,0,0,0,0,0c0-0.7,0.3-1.5,1-2
				c1.1-0.7,2.6-0.5,3.3,0.5l14.2,19.7V73c0-1.3,1.1-2.4,2.4-2.4c1.3,0,2.4,1.1,2.4,2.4v25.6c0,1.3-1.1,2.4-2.4,2.4
				c-0.7,0-1.4-0.4-1.8-0.9c-0.1-0.1-0.2-0.2-0.2-0.3l-14.1-19.5V98.6z"/>
			<path fill="#3080AD" d="M287.2,101c-7.1,0-12.7-5.7-12.7-12.7V72.6c0-1.4,1.1-2.4,2.4-2.4c1.3,0,2.5,1.1,2.5,2.4v15.7
				c0,4.3,3.5,7.8,7.8,7.8c4.4,0,7.8-3.5,7.8-7.8V72.6c0-1.4,1.1-2.4,2.5-2.4c1.4,0,2.4,1.1,2.4,2.4v15.7
				C299.9,95.3,294.3,101,287.2,101z"/>
			<path fill="#3080AD" d="M325.8,75.1h-7v23.5c0,1.4-1.1,2.4-2.4,2.4c-1.3,0-2.4-1.1-2.4-2.4V75.1h-7c-1.4,0-2.4-1.1-2.4-2.5
				c0-1.4,1.1-2.4,2.4-2.4h18.8c1.3,0,2.4,1.1,2.4,2.4C328.2,74,327.1,75.1,325.8,75.1z"/>
			<path fill="#3080AD" d="M331.2,93.4c0.8-1,2.2-1.1,3.2-0.3c1.9,1.6,5.3,3.4,8.4,3.4c2.2,0,4.2-0.7,5.5-1.6c1.3-1,1.9-2.1,1.9-3.2
				c0-0.6-0.1-1-0.4-1.4c-0.3-0.4-0.7-0.9-1.3-1.3c-1.3-0.8-3.4-1.6-6-2.1h-0.1c-2.1-0.4-4-0.9-5.7-1.7s-3.1-1.9-4.1-3.4
				c-0.7-1.1-1-2.3-1-3.6c0-2.6,1.5-4.9,3.5-6.4c2.1-1.5,4.8-2.3,7.6-2.3c4.2,0,7.3,2.1,9.6,3.5c1,0.7,1.3,2.1,0.6,3.1
				c-0.7,1.1-2.1,1.4-3.1,0.7c-2.2-1.5-4.4-2.8-7.1-2.8c-2,0-3.7,0.6-4.9,1.5c-1.2,0.9-1.7,1.8-1.7,2.8c0,0.5,0.1,0.9,0.3,1.2
				c0.2,0.4,0.6,0.7,1.2,1.1c1.1,0.8,3.1,1.5,5.5,1.9h0.1c2.2,0.4,4.3,1,6.1,1.8c1.8,0.9,3.4,2,4.4,3.7c0.7,1.1,1.1,2.4,1.1,3.7
				c0,2.8-1.6,5.2-3.8,6.8c-2.2,1.6-5,2.5-8.1,2.5c-4.8,0-8.8-2.4-11.3-4.4C330.6,95.8,330.5,94.3,331.2,93.4z"/>
		</g>
		<g>
			<path fill="#FFDE17" d="M182.1,95.6v-26c0-1.4,1.1-2.4,2.4-2.4h5.2c8.5,0,15.4,6.9,15.4,15.4c0,8.5-6.9,15.4-15.4,15.4h-5.2
				C183.2,98,182.1,96.9,182.1,95.6z M187,93.1h2.7c5.8,0,10.5-4.7,10.5-10.6c0-5.8-4.7-10.5-10.5-10.5H187V93.1z"/>
			<path fill="#FFDE17" d="M236.3,71c2.7,2.9,4.4,6.8,4.4,11.1s-1.7,8.3-4.4,11.1c-2.6,2.9-6.5,4.7-10.5,4.7
				c-4.2,0-8.1-1.8-10.8-4.7c-2.7-2.9-4.4-6.8-4.4-11.1s1.6-8.2,4.4-11.1c2.7-2.9,6.6-4.7,10.8-4.7C229.8,66.3,233.7,68.1,236.3,71z
				 M235.7,82.2c0-3-1.2-5.8-3-7.7c-1.8-2-4.3-3.1-7-3.1c-2.8,0-5.3,1.1-7.1,3.1c-1.8,1.9-3,4.7-3,7.7c0,3,1.1,5.8,3,7.7
				c1.8,2,4.3,3.2,7.1,3.2c2.6,0,5.1-1.2,7-3.2C234.5,87.9,235.7,85.1,235.7,82.2z"/>
			<path fill="#FFDE17" d="M252,95.6c0,1.3-1.1,2.4-2.4,2.4c-1.4,0-2.4-1.1-2.4-2.4V70c0,0,0,0,0,0c0-0.7,0.3-1.5,1-2
				c1.1-0.7,2.6-0.5,3.3,0.5l14.2,19.7V70c0-1.3,1.1-2.4,2.4-2.4c1.3,0,2.4,1.1,2.4,2.4v25.6c0,1.3-1.1,2.4-2.4,2.4
				c-0.7,0-1.4-0.4-1.8-0.9c-0.1-0.1-0.2-0.2-0.2-0.3L252,77.3V95.6z"/>
			<path fill="#FFDE17" d="M290.6,98c-7.1,0-12.7-5.7-12.7-12.7V69.6c0-1.4,1.1-2.4,2.4-2.4c1.3,0,2.5,1.1,2.5,2.4v15.7
				c0,4.3,3.5,7.8,7.8,7.8c4.4,0,7.8-3.5,7.8-7.8V69.6c0-1.4,1.1-2.4,2.5-2.4c1.4,0,2.4,1.1,2.4,2.4v15.7
				C303.3,92.3,297.6,98,290.6,98z"/>
			<path fill="#FFDE17" d="M329.1,72.1h-7v23.5c0,1.4-1.1,2.4-2.4,2.4c-1.3,0-2.4-1.1-2.4-2.4V72.1h-7c-1.4,0-2.4-1.1-2.4-2.5
				c0-1.4,1.1-2.4,2.4-2.4h18.8c1.3,0,2.4,1.1,2.4,2.4C331.6,70.9,330.5,72.1,329.1,72.1z"/>
			<path fill="#FFDE17" d="M334.6,90.3c0.8-1,2.2-1.1,3.2-0.3c1.9,1.6,5.3,3.4,8.4,3.4c2.2,0,4.2-0.7,5.5-1.6c1.3-1,1.9-2.1,1.9-3.2
				c0-0.6-0.1-1-0.4-1.4c-0.3-0.4-0.7-0.9-1.3-1.3c-1.3-0.8-3.4-1.6-6-2.1h-0.1c-2.1-0.4-4-0.9-5.7-1.7s-3.1-1.9-4.1-3.4
				c-0.7-1.1-1-2.3-1-3.6c0-2.6,1.5-4.9,3.5-6.4c2.1-1.5,4.8-2.3,7.6-2.3c4.2,0,7.3,2.1,9.6,3.5c1,0.7,1.3,2.1,0.6,3.1
				c-0.7,1.1-2.1,1.4-3.1,0.7c-2.2-1.5-4.4-2.8-7.1-2.8c-2,0-3.7,0.6-4.9,1.5c-1.2,0.9-1.7,1.8-1.7,2.8c0,0.5,0.1,0.9,0.3,1.2
				c0.2,0.4,0.6,0.7,1.2,1.1c1.1,0.8,3.1,1.5,5.5,1.9h0.1c2.2,0.4,4.3,1,6.1,1.8c1.8,0.9,3.4,2,4.4,3.7c0.7,1.1,1.1,2.4,1.1,3.7
				c0,2.8-1.6,5.2-3.8,6.8c-2.2,1.6-5,2.5-8.1,2.5c-4.8,0-8.8-2.4-11.3-4.4C333.9,92.8,333.8,91.3,334.6,90.3z"/>
		</g>
	</g>
	<g>
		<g>
			<path fill="#3080AD" d="M185.1,126.2h-6.8l-1.4,3.6c-0.3,0.6-0.8,1-1.5,1c-0.2,0-0.4,0-0.5-0.1c-0.8-0.3-1.2-1.2-0.9-2l6.2-16.5
				c0.3-0.6,0.9-1,1.5-1c0.6,0,1.2,0.4,1.5,1l6.2,16.5c0.3,0.8-0.1,1.7-0.9,2c-0.1,0.1-0.3,0.1-0.5,0.1c-0.6,0-1.2-0.4-1.4-1
				L185.1,126.2z M184,123.2l-2.3-6l-2.3,6H184z"/>
			<path fill="#3080AD" d="M205.5,128.5c0.3,0.8-0.2,1.7-1,2c-0.1,0-0.3,0.1-0.6,0.1c0,0,0,0,0,0c-0.3,0-0.7-0.1-1.1-0.3
				c-0.4-0.2-0.7-0.6-0.9-1c-0.4-0.8-0.6-1.8-0.6-3.4c0-0.5-0.1-0.9-0.3-1.2c-0.2-0.3-0.5-0.6-0.8-0.8c-0.6-0.4-1.3-0.6-1.6-0.7
				h-3.3v6.1c0,0.8-0.7,1.5-1.6,1.5c-0.9,0-1.5-0.7-1.5-1.5v-16.5c0-0.9,0.7-1.5,1.5-1.5c0,0,0,0,0,0h5c3.3,0,6,2.7,6,6
				c0,1.8-0.8,3.5-2.2,4.6c0.4,0.3,0.7,0.6,1,1c0.6,0.8,0.9,1.8,0.9,3c0,0.8,0.1,1.4,0.1,1.7C205,127.7,205.3,128.1,205.5,128.5z
				 M201.6,117.3c0-1.6-1.3-2.9-2.9-2.9h-3.4v5.8h3.4C200.3,120.1,201.6,118.9,201.6,117.3z"/>
			<path fill="#3080AD" d="M207.9,129.3v-16.5c0-0.9,0.7-1.5,1.5-1.5h0c0,0,0,0,0.1,0h9.1c0.8,0,1.5,0.7,1.5,1.5
				c0,0.9-0.7,1.6-1.5,1.6H211v5.1h6.5c0.8,0,1.5,0.7,1.5,1.5c0,0.9-0.7,1.6-1.5,1.6H211v5.2h7.6c0.8,0,1.5,0.7,1.5,1.6
				c0,0.8-0.7,1.5-1.5,1.5h-9.1c-0.1,0-0.1,0-0.1,0l0,0C208.6,130.9,207.9,130.2,207.9,129.3z"/>
			<path fill="#3080AD" d="M231.5,129.3v-16.5c0-0.8,0.7-1.5,1.5-1.5h0c0,0,0,0,0.1,0h9.1c0.8,0,1.5,0.7,1.5,1.5
				c0,0.9-0.7,1.6-1.5,1.6h-7.6v5.1h6.5c0.8,0,1.5,0.7,1.5,1.5c0,0.9-0.7,1.6-1.5,1.6h-6.5v6.7c0,0.8-0.7,1.5-1.6,1.5
				C232.2,130.9,231.5,130.2,231.5,129.3z"/>
			<path fill="#3080AD" d="M262.7,113.7c1.7,1.8,2.8,4.3,2.8,7.1c0,2.8-1.1,5.3-2.8,7.1c-1.7,1.8-4.1,3-6.7,3c-2.7,0-5.2-1.2-6.9-3
				c-1.7-1.8-2.8-4.3-2.8-7.1c0-2.8,1-5.2,2.8-7.1c1.7-1.8,4.2-3,6.9-3C258.6,110.7,261,111.9,262.7,113.7z M262.3,120.8
				c0-1.9-0.8-3.7-1.9-4.9c-1.2-1.3-2.7-2-4.4-2c-1.8,0-3.4,0.7-4.5,2c-1.2,1.2-1.9,3-1.9,4.9s0.7,3.7,1.9,4.9c1.2,1.3,2.7,2,4.5,2
				c1.7,0,3.2-0.8,4.4-2C261.5,124.5,262.3,122.7,262.3,120.8z"/>
			<path fill="#3080AD" d="M283.3,128.5c0.3,0.8-0.2,1.7-1,2c-0.1,0-0.3,0.1-0.6,0.1c0,0,0,0,0,0c-0.3,0-0.7-0.1-1.1-0.3
				c-0.4-0.2-0.7-0.6-0.9-1c-0.4-0.8-0.6-1.8-0.6-3.4c0-0.5-0.1-0.9-0.3-1.2c-0.2-0.3-0.5-0.6-0.8-0.8c-0.6-0.4-1.3-0.6-1.6-0.7H273
				v6.1c0,0.8-0.7,1.5-1.6,1.5c-0.9,0-1.5-0.7-1.5-1.5v-16.5c0-0.9,0.7-1.5,1.5-1.5c0,0,0,0,0,0h5c3.3,0,6,2.7,6,6
				c0,1.8-0.8,3.5-2.2,4.6c0.4,0.3,0.7,0.6,1,1c0.6,0.8,0.9,1.8,0.9,3c0,0.8,0.1,1.4,0.1,1.7C282.7,127.7,283.1,128.1,283.3,128.5z
				 M279.4,117.3c0-1.6-1.3-2.9-2.9-2.9H273v5.8h3.4C278.1,120.1,279.4,118.9,279.4,117.3z"/>
			<path fill="#3080AD" d="M287.1,129.3v-16.5c0-0.9,0.7-1.5,1.5-1.5h0c0,0,0,0,0.1,0h9.1c0.8,0,1.5,0.7,1.5,1.5
				c0,0.9-0.7,1.6-1.5,1.6h-7.6v5.1h6.5c0.8,0,1.5,0.7,1.5,1.5c0,0.9-0.7,1.6-1.5,1.6h-6.5v5.2h7.6c0.8,0,1.5,0.7,1.5,1.6
				c0,0.8-0.7,1.5-1.5,1.5h-9.1c-0.1,0-0.1,0-0.1,0l0,0C287.8,130.9,287.1,130.2,287.1,129.3z"/>
			<path fill="#3080AD" d="M309.4,130.6c-0.1-0.1-0.1-0.1-0.2-0.1c0,0,0,0,0-0.1c-0.1-0.1-0.1-0.1-0.1-0.2c0,0,0,0,0,0
				c0-0.1-0.1-0.2-0.1-0.2l-6.9-16.4c-0.3-0.8,0-1.7,0.8-2c0.8-0.3,1.7,0,2,0.8l5.5,13l5.5-13c0.3-0.8,1.3-1.1,2-0.8
				c0.8,0.3,1.1,1.2,0.8,2l-6.9,16.4c0,0.1-0.1,0.2-0.1,0.2c0,0,0,0,0,0c0,0.1-0.1,0.1-0.1,0.2c0,0.1,0,0.1-0.1,0.1
				c-0.1,0.1-0.1,0.1-0.2,0.1c0,0,0,0-0.1,0s-0.1,0.1-0.2,0.1c0,0,0,0-0.1,0c-0.1,0-0.1,0-0.2,0.1c0,0,0,0-0.1,0c-0.1,0-0.2,0-0.3,0
				s-0.2,0-0.3,0c0,0,0,0-0.1,0c-0.1,0-0.2-0.1-0.2-0.1c0,0,0,0,0,0s0,0,0,0C309.6,130.7,309.5,130.6,309.4,130.6
				C309.4,130.6,309.4,130.6,309.4,130.6z"/>
			<path fill="#3080AD" d="M321.9,129.3v-16.5c0-0.9,0.7-1.5,1.5-1.5h0c0,0,0,0,0.1,0h9.1c0.8,0,1.5,0.7,1.5,1.5
				c0,0.9-0.7,1.6-1.5,1.6H325v5.1h6.5c0.8,0,1.5,0.7,1.5,1.5c0,0.9-0.7,1.6-1.5,1.6H325v5.2h7.6c0.8,0,1.5,0.7,1.5,1.6
				c0,0.8-0.7,1.5-1.5,1.5h-9.1c-0.1,0-0.1,0-0.1,0l0,0C322.6,130.9,321.9,130.2,321.9,129.3z"/>
			<path fill="#3080AD" d="M351.3,128.5c0.3,0.8-0.2,1.7-1,2c-0.1,0-0.3,0.1-0.6,0.1c0,0,0,0,0,0c-0.3,0-0.7-0.1-1.1-0.3
				c-0.4-0.2-0.7-0.6-0.9-1c-0.4-0.8-0.6-1.8-0.6-3.4c0-0.5-0.1-0.9-0.3-1.2c-0.2-0.3-0.5-0.6-0.8-0.8c-0.6-0.4-1.3-0.6-1.6-0.7
				h-3.3v6.1c0,0.8-0.7,1.5-1.6,1.5c-0.9,0-1.5-0.7-1.5-1.5v-16.5c0-0.9,0.7-1.5,1.5-1.5c0,0,0,0,0,0h5c3.3,0,6,2.7,6,6
				c0,1.8-0.8,3.5-2.2,4.6c0.4,0.3,0.7,0.6,1,1c0.6,0.8,0.9,1.8,0.9,3c0,0.8,0.1,1.4,0.1,1.7C350.8,127.7,351.2,128.1,351.3,128.5z
				 M347.4,117.3c0-1.6-1.3-2.9-2.9-2.9h-3.4v5.8h3.4C346.1,120.1,347.4,118.9,347.4,117.3z"/>
		</g>
		<g>
			<path fill="#FFDE17" d="M187.5,124.5h-6.8l-1.4,3.6c-0.3,0.6-0.8,1-1.5,1c-0.2,0-0.4,0-0.5-0.1c-0.8-0.3-1.2-1.2-0.9-2l6.2-16.5
				c0.3-0.6,0.9-1,1.5-1c0.6,0,1.2,0.4,1.5,1l6.2,16.5c0.3,0.8-0.1,1.7-0.9,2c-0.1,0.1-0.3,0.1-0.5,0.1c-0.6,0-1.2-0.4-1.4-1
				L187.5,124.5z M186.3,121.4l-2.3-6l-2.3,6H186.3z"/>
			<path fill="#FFDE17" d="M207.8,126.8c0.3,0.8-0.2,1.7-1,2c-0.1,0-0.3,0.1-0.6,0.1c0,0,0,0,0,0c-0.3,0-0.7-0.1-1.1-0.3
				c-0.4-0.2-0.7-0.6-0.9-1c-0.4-0.8-0.6-1.8-0.6-3.4c0-0.5-0.1-0.9-0.3-1.2c-0.2-0.3-0.5-0.6-0.8-0.8c-0.6-0.4-1.3-0.6-1.6-0.7
				h-3.3v6.1c0,0.8-0.7,1.5-1.6,1.5c-0.9,0-1.5-0.7-1.5-1.5v-16.5c0-0.9,0.7-1.5,1.5-1.5c0,0,0,0,0,0h5c3.3,0,6,2.7,6,6
				c0,1.8-0.8,3.5-2.2,4.6c0.4,0.3,0.7,0.6,1,1c0.6,0.8,0.9,1.8,0.9,3c0,0.8,0.1,1.4,0.1,1.7C207.3,126,207.7,126.3,207.8,126.8z
				 M203.9,115.5c0-1.6-1.3-2.9-2.9-2.9h-3.4v5.8h3.4C202.6,118.4,203.9,117.1,203.9,115.5z"/>
			<path fill="#FFDE17" d="M210.3,127.6v-16.5c0-0.9,0.7-1.5,1.5-1.5h0c0,0,0,0,0.1,0h9.1c0.8,0,1.5,0.7,1.5,1.5
				c0,0.9-0.7,1.6-1.5,1.6h-7.6v5.1h6.5c0.8,0,1.5,0.7,1.5,1.5c0,0.9-0.7,1.6-1.5,1.6h-6.5v5.2h7.6c0.8,0,1.5,0.7,1.5,1.6
				c0,0.8-0.7,1.5-1.5,1.5h-9.1c-0.1,0-0.1,0-0.1,0l0,0C210.9,129.1,210.3,128.4,210.3,127.6z"/>
			<path fill="#FFDE17" d="M233.9,127.6v-16.5c0-0.8,0.7-1.5,1.5-1.5h0c0,0,0,0,0.1,0h9.1c0.8,0,1.5,0.7,1.5,1.5
				c0,0.9-0.7,1.6-1.5,1.6H237v5.1h6.5c0.8,0,1.5,0.7,1.5,1.5c0,0.9-0.7,1.6-1.5,1.6H237v6.7c0,0.8-0.7,1.5-1.6,1.5
				C234.5,129.1,233.9,128.4,233.9,127.6z"/>
			<path fill="#FFDE17" d="M265,112c1.7,1.8,2.8,4.3,2.8,7.1c0,2.8-1.1,5.3-2.8,7.1c-1.7,1.8-4.1,3-6.7,3c-2.7,0-5.2-1.2-6.9-3
				c-1.7-1.8-2.8-4.3-2.8-7.1c0-2.8,1-5.2,2.8-7.1c1.7-1.8,4.2-3,6.9-3C260.9,109,263.3,110.1,265,112z M264.6,119
				c0-1.9-0.8-3.7-1.9-4.9c-1.2-1.3-2.7-2-4.4-2c-1.8,0-3.4,0.7-4.5,2c-1.2,1.2-1.9,3-1.9,4.9s0.7,3.7,1.9,4.9c1.2,1.3,2.7,2,4.5,2
				c1.7,0,3.2-0.8,4.4-2C263.9,122.7,264.6,120.9,264.6,119z"/>
			<path fill="#FFDE17" d="M285.6,126.8c0.3,0.8-0.2,1.7-1,2c-0.1,0-0.3,0.1-0.6,0.1c0,0,0,0,0,0c-0.3,0-0.7-0.1-1.1-0.3
				c-0.4-0.2-0.7-0.6-0.9-1c-0.4-0.8-0.6-1.8-0.6-3.4c0-0.5-0.1-0.9-0.3-1.2c-0.2-0.3-0.5-0.6-0.8-0.8c-0.6-0.4-1.3-0.6-1.6-0.7
				h-3.3v6.1c0,0.8-0.7,1.5-1.6,1.5c-0.9,0-1.5-0.7-1.5-1.5v-16.5c0-0.9,0.7-1.5,1.5-1.5c0,0,0,0,0,0h5c3.3,0,6,2.7,6,6
				c0,1.8-0.8,3.5-2.2,4.6c0.4,0.3,0.7,0.6,1,1c0.6,0.8,0.9,1.8,0.9,3c0,0.8,0.1,1.4,0.1,1.7C285.1,126,285.4,126.3,285.6,126.8z
				 M281.7,115.5c0-1.6-1.3-2.9-2.9-2.9h-3.4v5.8h3.4C280.4,118.4,281.7,117.1,281.7,115.5z"/>
			<path fill="#FFDE17" d="M289.4,127.6v-16.5c0-0.9,0.7-1.5,1.5-1.5h0c0,0,0,0,0.1,0h9.1c0.8,0,1.5,0.7,1.5,1.5
				c0,0.9-0.7,1.6-1.5,1.6h-7.6v5.1h6.5c0.8,0,1.5,0.7,1.5,1.5c0,0.9-0.7,1.6-1.5,1.6h-6.5v5.2h7.6c0.8,0,1.5,0.7,1.5,1.6
				c0,0.8-0.7,1.5-1.5,1.5h-9.1c-0.1,0-0.1,0-0.1,0l0,0C290.1,129.1,289.4,128.4,289.4,127.6z"/>
			<path fill="#FFDE17" d="M311.7,128.8c-0.1-0.1-0.1-0.1-0.2-0.1c0,0,0,0,0-0.1c-0.1-0.1-0.1-0.1-0.1-0.2c0,0,0,0,0,0
				c0-0.1-0.1-0.2-0.1-0.2l-6.9-16.4c-0.3-0.8,0-1.7,0.8-2c0.8-0.3,1.7,0,2,0.8l5.5,13l5.5-13c0.3-0.8,1.3-1.1,2-0.8
				c0.8,0.3,1.1,1.2,0.8,2l-6.9,16.4c0,0.1-0.1,0.2-0.1,0.2c0,0,0,0,0,0c0,0.1-0.1,0.1-0.1,0.2c0,0.1,0,0.1-0.1,0.1
				c-0.1,0.1-0.1,0.1-0.2,0.1c0,0,0,0-0.1,0s-0.1,0.1-0.2,0.1c0,0,0,0-0.1,0c-0.1,0-0.1,0-0.2,0.1c0,0,0,0-0.1,0c-0.1,0-0.2,0-0.3,0
				s-0.2,0-0.3,0c0,0,0,0-0.1,0c-0.1,0-0.2-0.1-0.2-0.1c0,0,0,0,0,0s0,0,0,0C312,129,311.8,128.9,311.7,128.8
				C311.8,128.8,311.8,128.8,311.7,128.8z"/>
			<path fill="#FFDE17" d="M324.2,127.6v-16.5c0-0.9,0.7-1.5,1.5-1.5h0c0,0,0,0,0.1,0h9.1c0.8,0,1.5,0.7,1.5,1.5
				c0,0.9-0.7,1.6-1.5,1.6h-7.6v5.1h6.5c0.8,0,1.5,0.7,1.5,1.5c0,0.9-0.7,1.6-1.5,1.6h-6.5v5.2h7.6c0.8,0,1.5,0.7,1.5,1.6
				c0,0.8-0.7,1.5-1.5,1.5h-9.1c-0.1,0-0.1,0-0.1,0l0,0C324.9,129.1,324.2,128.4,324.2,127.6z"/>
			<path fill="#FFDE17" d="M353.7,126.8c0.3,0.8-0.2,1.7-1,2c-0.1,0-0.3,0.1-0.6,0.1c0,0,0,0,0,0c-0.3,0-0.7-0.1-1.1-0.3
				c-0.4-0.2-0.7-0.6-0.9-1c-0.4-0.8-0.6-1.8-0.6-3.4c0-0.5-0.1-0.9-0.3-1.2c-0.2-0.3-0.5-0.6-0.8-0.8c-0.6-0.4-1.3-0.6-1.6-0.7
				h-3.3v6.1c0,0.8-0.7,1.5-1.6,1.5c-0.9,0-1.5-0.7-1.5-1.5v-16.5c0-0.9,0.7-1.5,1.5-1.5c0,0,0,0,0,0h5c3.3,0,6,2.7,6,6
				c0,1.8-0.8,3.5-2.2,4.6c0.4,0.3,0.7,0.6,1,1c0.6,0.8,0.9,1.8,0.9,3c0,0.8,0.1,1.4,0.1,1.7C353.1,126,353.5,126.3,353.7,126.8z
				 M349.8,115.5c0-1.6-1.3-2.9-2.9-2.9h-3.4v5.8h3.4C348.5,118.4,349.8,117.1,349.8,115.5z"/>
		</g>
	</g>
</g>
</svg>
