<?xml version="1.0" encoding="utf-8"?>
<!-- Generator: Adobe Illustrator 17.1.0, SVG Export Plug-In . SVG Version: 6.00 Build 0)  -->
<!DOCTYPE svg PUBLIC "-//W3C//DTD SVG 1.1//EN" "http://www.w3.org/Graphics/SVG/1.1/DTD/svg11.dtd">
<svg version="1.1" id="Layer_1" xmlns="http://www.w3.org/2000/svg" xmlns:xlink="http://www.w3.org/1999/xlink" x="0px" y="0px"
	 viewBox="0 0 640 640" style="enable-background:new 0 0 640 640;" xml:space="preserve">
<style type="text/css">
	.st0{fill:#70AACC;}
	.st1{fill:#3A87AF;}
	.st2{fill:#FFFFFF;}
	.st3{fill:#E2915A;}
	.st4{fill:#9E3B2E;}
</style>
<path class="st0" d="M617.1,561c0,30.2-24.4,54.8-54.8,54.8H77.2c-30.2,0-54.8-24.4-54.8-54.8V75.9c0-30.2,24.4-54.8,54.8-54.8
	h485.2c30.2,0,54.8,24.4,54.8,54.8V561H617.1z"/>
<path class="st1" d="M549.8,304.4c0,0,10,100-73.3,175.7s-194.9,61.7-194.9,61.7l73,73h206.7c30.2,0,54.8-24.4,54.8-54.8V370.6
	L549.8,304.4z"/>
<path class="st1" d="M256.6,337c0-43.4,35.2-78.6,78.6-78.6c19.1,0,36.6,6.8,50.2,18.2c-13.4-23.9-39-40.1-68.5-40.1
	c-43.4,0-78.6,35.2-78.6,78.6c0,24.3,11,46,28.4,60.4C260.4,364.2,256.6,351.1,256.6,337z"/>
<path class="st2" d="M-471.2,142.4c2.2-1.6,5.3-1,6.9,1.2l0,0c1.6,2.2,1,5.3-1.2,6.9l-23.8,16.6c-2.2,1.6-5.3,1-6.9-1.2l0,0
	c-1.6-2.2-1-5.3,1.2-6.9L-471.2,142.4z"/>
<path class="st3" d="M319,84.5c-128.4,0-232.4,104.1-232.4,232.4S190.6,549.3,319,549.3s232.4-104.1,232.4-232.4
	S447.4,84.5,319,84.5z M319,396c-43.7,0-79.1-35.4-79.1-79.1c0-43.7,35.4-79.1,79.1-79.1s79.1,35.4,79.1,79.1
	C398.1,360.6,362.7,396,319,396z"/>
<g>
	<path class="st4" d="M394.3,243.6l-30,7l2,14.5c0,0,10.2-11.1,14.4-7.7c4.2,3.3,8.7,19.6,8.7,19.6l25.1-9.6L394.3,243.6z"/>
	<polygon class="st4" points="367.6,290.6 392.2,299.3 411.1,299.3 411.1,281.8 381.2,281.8 	"/>
	<polygon class="st4" points="436.2,305.6 426.5,299.3 416.9,318.5 436.2,331.4 	"/>
	<polygon class="st4" points="465.1,312.2 455.4,306 445.8,325.1 465.1,338 	"/>
	<path class="st4" d="M241.8,354.3l-30,7l6.6,9.6c0,0,7.9,7.5,10.8,7.5c0.7,0,1.3-0.1,2-0.2l-0.4,9.3l31.3-9.6L241.8,354.3z"/>
	<polygon class="st4" points="215.2,401.2 239.8,410 258.6,410 258.6,392.4 228.7,392.4 	"/>
	<polygon class="st4" points="218.8,424 211.3,432.5 225.7,447.2 236,449.5 227.9,433.2 	"/>
	<polygon class="st4" points="356.3,462.4 344.4,471.9 363.2,485.6 373.5,488 365.4,471.6 	"/>
	<polygon class="st4" points="264.4,429.2 283.7,442.1 283.7,416.2 274,410 	"/>
	<polygon class="st4" points="340.3,246.2 340.3,220.3 330.7,214.1 321,233.2 	"/>
	<path class="st4" d="M353.2,183.5c0,0-0.4-10.3-9.6-6.2c-9.2,4.1-9.6,19.1-9.6,19.1l19.3,12.9V183.5z"/>
	<polygon class="st4" points="429.7,405.7 449,418.7 449,392.8 439.4,386.6 	"/>
	<path class="st4" d="M445.8,225.4c8.1-5.6,0-25.9,0-25.9l-9.6-6.2l-9.6,19.1C426.5,212.5,437.7,231,445.8,225.4z"/>
	<polygon class="st4" points="249.9,449.1 277.9,481.6 277.9,455.8 268.3,449.5 	"/>
	<polygon class="st4" points="182.7,395.5 202,408.5 202,382.6 192.4,376.4 	"/>
	<path class="st4" d="M471.4,281.6c-3.8-6-21-3.1-21-3.1l-17.6-21.2l-16,22.1l27.3,17.7C444.1,297.1,475.3,287.5,471.4,281.6z"/>
	<path class="st4" d="M382.4,369l4.8,22.8l-13.7-0.4c0,0,9.7,25.7,17.2,29.6c7.4,3.9,15.7-27.2,15.7-27.2L392,364.7L382.4,369z"/>
	<polygon class="st4" points="357,379.1 355.8,406.8 360.9,426.2 376.7,421.4 368.6,390.6 	"/>
	<polygon class="st4" points="365.1,442.2 346.7,428.7 339,460.8 362.2,453.8 	"/>
	<polygon class="st4" points="260.6,232.1 253.7,241.5 257,244.2 242.2,258.8 259.3,288.4 275.1,261.1 	"/>
	<polygon class="st4" points="216.2,251.9 215,279.7 220.1,299.1 235.9,294.3 227.7,263.5 	"/>
	<polygon class="st4" points="203.5,294.2 197.6,267.1 188.7,257.3 177.6,277.2 188.7,294.1 	"/>
	<polygon class="st4" points="221.4,326.7 224.3,315 204.5,310.3 198.1,333.7 	"/>
	<path class="st4" d="M195.2,355.2l2.9-11.6l-19.8-4.7l-15.4,22.7c0,0,15.9,8.5,23.3,5.6C193.7,364.3,195.2,355.2,195.2,355.2z"/>
	<polygon class="st4" points="237.4,208.2 217.6,203.5 211.2,226.9 234.4,219.9 	"/>
	<path class="st4" d="M296.9,485.3c5.8,9.9,23.2-7,23.2-7l2.9-11.6l-19.2-7.9C303.9,458.7,291.1,475.5,296.9,485.3z"/>
	<path class="st4" d="M437.4,243.3l2.9-11.6l-19.8-4.7c0,0-12.1,13.6-6.4,23.4C420,260.2,437.4,243.3,437.4,243.3z"/>
	<polygon class="st4" points="408.1,218.8 411.1,207.1 391.3,202.4 384.9,225.8 	"/>
	<path class="st4" d="M380.4,426.8l3.1,52.6c0,0,8.8,6.2,9.8,4.3c1-2-3-22.5-3-22.5l14.2-24L380.4,426.8z"/>
	<path class="st4" d="M258.6,430.7c0-3.7-3.7-6.7-8.2-6.7s-13-3.7-13,0c0,3.7,8.5,13.4,13,13.4S258.6,434.4,258.6,430.7z"/>
	<path class="st4" d="M185.1,317.8c4.5,0,8.2-3,8.2-6.7c0-3.7-3.7-6.7-8.2-6.7c-4.5,0-13-3.7-13,0
		C172.1,308.1,180.6,317.8,185.1,317.8z"/>
	<path class="st4" d="M377.4,208.7c3.4,0.8,6.9-2.5,7.8-7.2c0.9-4.8,6.1-12.9,2.7-13.6c-3.4-0.8-14,6.1-14.9,10.9
		C372,203.4,374,207.9,377.4,208.7z"/>
	<path class="st4" d="M246.3,209.3c3.4,0.8,6.9-2.5,7.8-7.2c0.9-4.8,6.1-12.9,2.7-13.6c-3.4-0.8-14,6.1-14.9,10.9
		C241,204,243,208.5,246.3,209.3z"/>
	<path class="st4" d="M457.2,340.8c-4.5,0-13-3.7-13,0s8.5,13.4,13,13.4c4.5,0,8.2-3,8.2-6.7C465.4,343.8,461.7,340.8,457.2,340.8z"
		/>
	<path class="st4" d="M304.6,214.1l16.4-15.9v-15.9l-32.8,15.9c3.2,5.5,16.4,5.5,16.4,5.5V214.1z"/>
	<path class="st4" d="M274,203.8l-15.4,10.3c0,0,31.5,31,29.6,18.6S274,203.8,274,203.8z"/>
	<path class="st4" d="M364.3,235.7c0,0,11.2-4.1,2-15.9c-9.2-11.8-14.2,3.4-14.2,3.4L364.3,235.7z"/>
	<path class="st4" d="M283.2,177.4c-9.2-11.8-14.2,3.4-14.2,3.4l12.2,12.6C281.2,193.4,292.4,189.2,283.2,177.4z"/>
	<path class="st4" d="M231.1,243.6c13.8,4.4,10.1-11.2,10.1-11.2l-16.6-3.3C224.6,229.1,217.3,239.2,231.1,243.6z"/>
	<path class="st4" d="M389.1,336.5l12.2,12.6c0,0,14.9-10.7,5.7-22.5C397.7,314.7,389.1,336.5,389.1,336.5z"/>
	<path class="st4" d="M304.6,426.1c-17.4,10.6,0,26.6,0,26.6l29.3-21.4l-22.5-30.1L304.6,426.1z"/>
	<path class="st4" d="M426.5,350.6c-16.1-1.4-15.4,14-15.4,14l5.8,19.1l16.7-12.8C433.6,370.9,442.6,352,426.5,350.6z"/>
	<path class="st4" d="M168.6,271.3v-5.6h-18c0,0,0,24.9,9,28.1C168.6,297,168.6,271.3,168.6,271.3z"/>
</g>
</svg>
