<?xml version="1.0" encoding="utf-8"?>
<!-- Generator: Adobe Illustrator 17.1.0, SVG Export Plug-In . SVG Version: 6.00 Build 0)  -->
<!DOCTYPE svg PUBLIC "-//W3C//DTD SVG 1.1//EN" "http://www.w3.org/Graphics/SVG/1.1/DTD/svg11.dtd">
<svg version="1.1" id="Layer_1" xmlns="http://www.w3.org/2000/svg" xmlns:xlink="http://www.w3.org/1999/xlink" x="0px" y="0px"
	 viewBox="0 0 640 640" style="enable-background:new 0 0 640 640;" xml:space="preserve">
<style type="text/css">
	.st0{fill:#70AACC;}
	.st1{fill:#3A87AF;}
	.st2{fill:#FFFFFF;}
	.st3{fill:#3F2C1E;}
	.st4{fill:#F06589;}
	.st5{fill:#ED4C7E;}
	.st6{fill:#CCA176;}
	.st7{fill:#B48868;}
	.st8{fill:#745639;}
	.st9{fill:#A47D5F;}
	.st10{fill:#332317;}
	.st11{fill:#9E3B2E;}
</style>
<path class="st0" d="M617.1,561c0,30.2-24.4,54.8-54.8,54.8H77.2c-30.2,0-54.8-24.4-54.8-54.8V75.9c0-30.2,24.4-54.8,54.8-54.8
	h485.2c30.2,0,54.8,24.4,54.8,54.8V561H617.1z"/>
<path class="st1" d="M549.8,304.4c0,0,10,100-73.3,175.7s-194.9,61.7-194.9,61.7l73,73h206.7c30.2,0,54.8-24.4,54.8-54.8V370.6
	L549.8,304.4z"/>
<path class="st1" d="M256.6,337c0-43.4,35.2-78.6,78.6-78.6c19.1,0,36.6,6.8,50.2,18.2c-13.4-23.9-39-40.1-68.5-40.1
	c-43.4,0-78.6,35.2-78.6,78.6c0,24.3,11,46,28.4,60.4C260.4,364.2,256.6,351.1,256.6,337z"/>
<path class="st2" d="M-471.2,142.4c2.2-1.6,5.3-1,6.9,1.2l0,0c1.6,2.2,1,5.3-1.2,6.9l-23.8,16.6c-2.2,1.6-5.3,1-6.9-1.2l0,0
	c-1.6-2.2-1-5.3,1.2-6.9L-471.2,142.4z"/>
<path class="st3" d="M317.8,82.4C188.8,82.4,84.2,187,84.2,316s104.6,233.6,233.6,233.6S551.4,445.1,551.4,316
	S446.8,82.4,317.8,82.4z M317.8,395.5c-43.9,0-79.5-35.6-79.5-79.5s35.6-79.5,79.5-79.5s79.5,35.6,79.5,79.5
	S361.7,395.5,317.8,395.5z"/>
<path class="st4" d="M506.6,254.7c-6.8-20.9-1.5-48.1-14.2-65.5c-12.8-17.6-40.4-20.9-58-33.7c-17.4-12.7-29-38-49.9-44.7
	c-20.2-6.5-44.4,6.9-66.7,6.9c-22.3,0-46.5-13.4-66.7-6.9c-20.9,6.8-32.5,32.1-49.9,44.7c-17.6,12.8-45.2,16.1-58,33.7
	c-12.7,17.4-7.4,44.6-14.2,65.5c-6.5,20.2-27,39-27,61.3s20.5,41.2,27,61.3c6.8,20.9,1.5,48.1,14.2,65.5
	c12.8,17.6,40.4,20.9,58,33.7c17.4,12.7,29,38,49.9,44.7c20.2,6.5,44.4-6.9,66.7-6.9c22.3,0,46.5,13.4,66.7,6.9
	c20.9-6.8,32.5-32.1,49.9-44.7c17.6-12.8,45.2-16.1,58-33.7c12.7-17.4,7.4-44.6,14.2-65.5c6.5-20.2,27-39,27-61.3
	S513.1,274.9,506.6,254.7z M317.8,395.5c-43.9,0-79.5-35.6-79.5-79.5s35.6-79.5,79.5-79.5s79.5,35.6,79.5,79.5
	S361.7,395.5,317.8,395.5z"/>
<path class="st5" d="M374.7,447.6c-108.2,0-195.8-87.7-195.8-195.8c0-36.7,10.1-71.1,27.7-100.5c-2,1.9-4.1,3.7-6.3,5.3
	c-17.6,12.8-45.2,16.1-58,33.7c-12.7,17.4-7.4,44.6-14.2,65.5c-6.5,20.2-27,39-27,61.3c0,22.3,20.5,41.2,27,61.3
	c6.8,20.9,1.5,48.1,14.2,65.5c12.8,17.6,40.4,20.9,58,33.7c17.4,12.7,29,38,49.9,44.7c20.2,6.5,44.4-6.9,66.7-6.9
	c22.3,0,46.5,13.4,66.7,6.9c20.9-6.8,32.5-32.1,49.9-44.7c17.6-12.8,45.2-16.1,58-33.7c8.5-11.6,8.9-27.7,10.3-43.2
	C467.6,429.9,423.2,447.6,374.7,447.6z"/>
<g>
	<path class="st2" d="M192.5,252.4c1.8,2.4,1.4,5.8-1,7.6l0,0c-2.4,1.8-5.8,1.4-7.6-1l-19.5-25.4c-1.8-2.4-1.4-5.8,1-7.6l0,0
		c2.4-1.8,5.8-1.4,7.6,1L192.5,252.4z"/>
	<path class="st2" d="M198.3,429.5c1.8,2.4,1.4,5.8-1,7.6l0,0c-2.4,1.8-5.8,1.4-7.6-1l-19.5-25.4c-1.8-2.4-1.4-5.8,1-7.6l0,0
		c2.4-1.8,5.8-1.4,7.6,1L198.3,429.5z"/>
	<path class="st2" d="M387,488.6c1.8,2.4,1.4,5.8-1,7.6l0,0c-2.4,1.8-5.8,1.4-7.6-1l-19.5-25.4c-1.8-2.4-1.4-5.8,1-7.6l0,0
		c2.4-1.8,5.8-1.4,7.6,1L387,488.6z"/>
	<path class="st2" d="M473.4,214.9c2.5-0.5,4.9,1,5.4,3.5l0,0c0.5,2.5-1,4.9-3.5,5.4l-26.1,5.6c-2.5,0.5-4.9-1-5.4-3.5l0,0
		c-0.5-2.5,1-4.9,3.5-5.4L473.4,214.9z"/>
	<path class="st2" d="M293,207.5c2.5-0.5,4.9,1,5.4,3.5l0,0c0.5,2.5-1,4.9-3.5,5.4l-26.1,5.6c-2.5,0.5-4.9-1-5.4-3.5l0,0
		c-0.5-2.5,1-4.9,3.5-5.4L293,207.5z"/>
	<path class="st2" d="M381.9,209.1c-0.6,2.4-3.1,3.9-5.5,3.3l0,0c-2.4-0.6-3.9-3.1-3.3-5.5l6.7-25.8c0.6-2.4,3.1-3.9,5.5-3.3l0,0
		c2.4,0.6,3.9,3.1,3.3,5.5L381.9,209.1z"/>
	<path class="st2" d="M439.4,437.4c-1.8,1.8-4.6,1.8-6.4,0l0,0c-1.8-1.8-1.8-4.6,0-6.4l18.8-18.9c1.8-1.8,4.6-1.8,6.4,0l0,0
		c1.8,1.8,1.8,4.6,0,6.4L439.4,437.4z"/>
	<path class="st2" d="M288.7,432.8c-1.8,1.8-4.6,1.8-6.4,0l0,0c-1.8-1.8-1.8-4.6,0-6.4l18.8-18.9c1.8-1.8,4.6-1.8,6.4,0l0,0
		c1.8,1.8,1.8,4.6,0,6.4L288.7,432.8z"/>
	<path class="st2" d="M280.7,491.9c0.3,2.5-1.5,4.7-4,5l0,0c-2.5,0.3-4.7-1.5-5-4l-3.1-26.5c-0.3-2.5,1.5-4.7,4-5l0,0
		c2.5-0.3,4.7,1.5,5,4L280.7,491.9z"/>
	<path class="st2" d="M417.7,397c0.3,2.5-1.5,4.7-4,5l0,0c-2.5,0.3-4.7-1.5-5-4l-3.1-26.5c-0.3-2.5,1.5-4.7,4-5l0,0
		c2.5-0.3,4.7,1.5,5,4L417.7,397z"/>
	<path class="st2" d="M178.1,357.2c-1.8,1.8-4.6,1.8-6.4,0l0,0c-1.8-1.8-1.8-4.6,0-6.4l18.8-18.9c1.8-1.8,4.6-1.8,6.4,0l0,0
		c1.8,1.8,1.8,4.6,0,6.4L178.1,357.2z"/>
	<path class="st2" d="M246.4,177.9c-1.8,1.8-4.6,1.8-6.4,0l0,0c-1.8-1.8-1.8-4.6,0-6.4l18.8-18.9c1.8-1.8,4.6-1.8,6.4,0l0,0
		c1.8,1.8,1.8,4.6,0,6.4L246.4,177.9z"/>
	<path class="st2" d="M431.8,315.2c-2.5-0.3-4.2-2.6-3.9-5.1l0,0c0.3-2.5,2.6-4.2,5.1-3.9l26.4,3.4c2.5,0.3,4.2,2.6,3.9,5.1l0,0
		c-0.3,2.5-2.6,4.2-5.1,3.9L431.8,315.2z"/>
</g>
<path class="st6" d="M-148.1-485.9c-140,0-253.5,113.5-253.5,253.5S-288.1,21.1-148.1,21.1S105.4-92.4,105.4-232.4
	S-8.1-485.9-148.1-485.9z M-148.1-146.1c-47.6,0-86.2-38.6-86.2-86.2c0-47.6,38.6-86.2,86.2-86.2c47.6,0,86.2,38.6,86.2,86.2
	C-61.8-184.8-100.4-146.1-148.1-146.1z"/>
<path class="st7" d="M56.7-298.9c-7.4-22.7-1.6-52.2-15.4-71.1c-13.9-19.1-43.8-22.7-62.9-36.6c-18.9-13.7-31.5-41.2-54.2-48.5
	c-21.9-7.1-48.1,7.4-72.4,7.4c-24.2,0-50.5-14.5-72.4-7.4c-22.7,7.4-35.3,34.8-54.2,48.5c-19.1,13.9-49,17.5-62.9,36.6
	c-13.7,18.9-8,48.4-15.4,71.1c-7.1,21.9-29.3,42.3-29.3,66.5c0,24.2,22.2,44.7,29.3,66.5c7.4,22.7,1.6,52.2,15.4,71.1
	c13.9,19.1,43.8,22.7,62.9,36.6c18.9,13.7,31.5,41.2,54.2,48.5c21.9,7.1,48.1-7.4,72.4-7.4c24.2,0,50.5,14.5,72.4,7.4
	C-53-17-40.4-44.5-21.5-58.2c19.1-13.9,49-17.5,62.9-36.6c13.7-18.9,8-48.4,15.4-71.1c7.1-21.9,29.3-42.3,29.3-66.5
	C86-256.6,63.8-277.1,56.7-298.9z M-148.1-146.1c-47.6,0-86.2-38.6-86.2-86.2s38.6-86.2,86.2-86.2c47.6,0,86.2,38.6,86.2,86.2
	S-100.4-146.1-148.1-146.1z"/>
<path class="st8" d="M-778.7-485.9c-140,0-253.5,113.5-253.5,253.5S-918.7,21.1-778.7,21.1s253.5-113.5,253.5-253.5
	S-638.7-485.9-778.7-485.9z M-778.7-146.1c-47.6,0-86.2-38.6-86.2-86.2c0-47.6,38.6-86.2,86.2-86.2c47.6,0,86.2,38.6,86.2,86.2
	C-692.5-184.8-731.1-146.1-778.7-146.1z"/>
<path class="st9" d="M-85.2-91.4c-117.3,0-212.5-95.1-212.5-212.5c0-39.9,11-77.1,30.1-109c-2.2,2.1-4.5,4-6.8,5.8
	c-19.1,13.9-49,17.5-62.9,36.6c-13.7,18.9-8,48.4-15.4,71.1c-7.1,21.9-29.3,42.3-29.3,66.5c0,24.2,22.2,44.7,29.3,66.5
	c7.4,22.7,1.6,52.2,15.4,71.1c13.9,19.1,43.8,22.7,62.9,36.6c18.9,13.7,31.5,41.2,54.2,48.5c21.9,7.1,48.1-7.4,72.4-7.4
	c24.2,0,50.5,14.5,72.4,7.4c22.7-7.4,35.3-34.8,54.2-48.5c19.1-13.9,49-17.5,62.9-36.6c9.2-12.6,9.7-30,11.2-46.9
	C15.6-110.6-32.6-91.4-85.2-91.4z"/>
<path class="st3" d="M-573.9-298.9c-7.4-22.7-1.6-52.2-15.4-71.1c-13.9-19.1-43.8-22.7-62.9-36.6c-18.9-13.7-31.5-41.2-54.2-48.5
	c-21.9-7.1-48.1,7.4-72.4,7.4c-24.2,0-50.5-14.5-72.4-7.4c-22.7,7.4-35.3,34.8-54.2,48.5c-19.1,13.9-49,17.5-62.9,36.6
	c-13.7,18.9-8,48.4-15.4,71.1c-7.1,21.9-29.3,42.3-29.3,66.5c0,24.2,22.2,44.7,29.3,66.5c7.4,22.7,1.6,52.2,15.4,71.1
	c13.9,19.1,43.8,22.7,62.9,36.6c18.9,13.7,31.5,41.2,54.2,48.5c21.9,7.1,48.1-7.4,72.4-7.4c24.2,0,50.5,14.5,72.4,7.4
	c22.7-7.4,35.3-34.8,54.2-48.5c19.1-13.9,49-17.5,62.9-36.6c13.7-18.9,8-48.4,15.4-71.1c7.1-21.9,29.3-42.3,29.3-66.5
	C-544.6-256.6-566.8-277.1-573.9-298.9z M-778.7-146.1c-47.6,0-86.2-38.6-86.2-86.2s38.6-86.2,86.2-86.2c47.6,0,86.2,38.6,86.2,86.2
	S-731.1-146.1-778.7-146.1z"/>
<path class="st10" d="M-715.9-91.4c-117.3,0-212.5-95.1-212.5-212.5c0-39.9,11-77.1,30.1-109c-2.2,2.1-4.5,4-6.8,5.8
	c-19.1,13.9-49,17.5-62.9,36.6c-13.7,18.9-8,48.4-15.4,71.1c-7.1,21.9-29.3,42.3-29.3,66.5c0,24.2,22.2,44.7,29.3,66.5
	c7.4,22.7,1.6,52.2,15.4,71.1c13.9,19.1,43.8,22.7,62.9,36.6c18.9,13.7,31.5,41.2,54.2,48.5c21.9,7.1,48.1-7.4,72.4-7.4
	c24.2,0,50.5,14.5,72.4,7.4c22.7-7.4,35.3-34.8,54.2-48.5c19.1-13.9,49-17.5,62.9-36.6c9.2-12.6,9.7-30,11.2-46.9
	C-615.1-110.6-663.2-91.4-715.9-91.4z"/>
<g>
	<path class="st11" d="M-61.7-312.6l-31.1,6.8l2.1,14c0,0,10.6-10.7,14.9-7.5s9,18.9,9,18.9l26-9.3L-61.7-312.6z"/>
	<polygon class="st11" points="-89.4,-267.2 -63.9,-258.7 -44.4,-258.7 -44.4,-275.7 -75.4,-275.7 	"/>
	<polygon class="st11" points="-18.4,-252.7 -28.4,-258.7 -38.4,-240.2 -18.4,-227.7 	"/>
	<polygon class="st11" points="11.6,-246.3 1.6,-252.3 -8.4,-233.8 11.6,-221.3 	"/>
	<path class="st11" d="M-219.7-205.6l-31.1,6.8l6.8,9.3c0,0,8.2,7.3,11.1,7.3c0.7,0,1.4-0.1,2.1-0.2l-0.4,9l32.4-9.3L-219.7-205.6z"
		/>
	<polygon class="st11" points="-247.4,-160.2 -221.9,-151.7 -202.4,-151.7 -202.4,-168.7 -233.4,-168.7 	"/>
	<polygon class="st11" points="-243.6,-138.2 -251.4,-129.9 -236.4,-115.8 -225.8,-113.5 -234.2,-129.3 	"/>
	<polygon class="st11" points="-101.2,-101 -113.4,-91.8 -93.9,-78.6 -83.3,-76.3 -91.7,-92.1 	"/>
	<polygon class="st11" points="-196.4,-133.2 -176.4,-120.7 -176.4,-145.7 -186.4,-151.7 	"/>
	<polygon class="st11" points="-117.7,-310.1 -117.7,-335.1 -127.7,-341.1 -137.7,-322.6 	"/>
	<path class="st11" d="M-104.4-370.6c0,0-0.4-10-10-6c-9.6,4-10,18.5-10,18.5l20,12.5V-370.6z"/>
	<polygon class="st11" points="-25,-155.8 -5,-143.3 -5,-168.3 -15,-174.3 	"/>
	<path class="st11" d="M-8.4-330.1c8.4-5.4,0-25,0-25l-10-6l-10,18.5C-28.4-342.6-16.7-324.7-8.4-330.1z"/>
	<polygon class="st11" points="-211.4,-113.9 -182.4,-82.5 -182.4,-107.5 -192.4,-113.5 	"/>
	<polygon class="st11" points="-281,-165.7 -261,-153.2 -261,-178.2 -271,-184.2 	"/>
	<path class="st11" d="M18.2-275.9c-4-5.8-21.8-3-21.8-3l-18.3-20.5L-38.4-278l28.3,17.2C-10.1-260.8,22.2-270.1,18.2-275.9z"/>
	<path class="st11" d="M-74.1-191.3l5,22l-14.2-0.4c0,0,10.1,24.9,17.8,28.6c7.7,3.8,16.3-26.3,16.3-26.3l-15-28.1L-74.1-191.3z"/>
	<polygon class="st11" points="-100.4,-181.6 -101.6,-154.8 -96.3,-136 -79.9,-140.6 -88.4,-170.5 	"/>
	<polygon class="st11" points="-91.9,-120.6 -111.1,-133.6 -119.1,-102.5 -95,-109.3 	"/>
	<polygon class="st11" points="-200.3,-323.7 -207.4,-314.6 -204,-312 -219.4,-297.9 -201.6,-269.3 -185.3,-295.6 	"/>
	<polygon class="st11" points="-246.4,-304.5 -247.6,-277.7 -242.3,-258.9 -225.9,-263.5 -234.4,-293.4 	"/>
	<polygon class="st11" points="-259.5,-263.7 -265.5,-289.9 -274.8,-299.3 -286.4,-280.1 -274.8,-263.7 	"/>
	<polygon class="st11" points="-241,-232.2 -237.9,-243.5 -258.4,-248.1 -265,-225.4 	"/>
	<path class="st11" d="M-268.1-204.6l3.1-11.3l-20.5-4.6l-16,21.9c0,0,16.5,8.2,24.2,5.5C-269.7-195.9-268.1-204.6-268.1-204.6z"/>
	<polygon class="st11" points="-224.4,-346.7 -244.9,-351.3 -251.5,-328.7 -227.4,-335.5 	"/>
	<path class="st11" d="M-162.7-78.9c6,9.5,24.1-6.8,24.1-6.8l3.1-11.3l-19.9-7.6C-155.5-104.6-168.7-88.4-162.7-78.9z"/>
	<path class="st11" d="M-17-312.8l3.1-11.3l-20.5-4.6c0,0-12.6,13.1-6.6,22.6C-35.1-296.5-17-312.8-17-312.8z"/>
	<polygon class="st11" points="-47.4,-336.6 -44.4,-347.8 -64.9,-352.4 -71.5,-329.7 	"/>
	<path class="st11" d="M-76.1-135.5l3.2,50.9c0,0,9.1,6,10.2,4.1c1.1-1.9-3.1-21.7-3.1-21.7l14.8-23.2L-76.1-135.5z"/>
	<path class="st11" d="M-202.4-131.7c0-3.6-3.8-6.5-8.5-6.5s-13.5-3.6-13.5,0c0,3.6,8.8,13,13.5,13S-202.4-128.1-202.4-131.7z"/>
	<path class="st11" d="M-278.5-240.8c4.7,0,8.5-2.9,8.5-6.5c0-3.6-3.8-6.5-8.5-6.5c-4.7,0-13.5-3.6-13.5,0
		C-292-250.2-283.3-240.8-278.5-240.8z"/>
	<path class="st11" d="M-79.2-346.3c3.5,0.7,7.1-2.4,8.1-7c1-4.6,6.3-12.5,2.8-13.2s-14.5,5.9-15.5,10.5
		C-84.8-351.4-82.8-347.1-79.2-346.3z"/>
	<path class="st11" d="M-215.1-345.7c3.5,0.7,7.1-2.4,8.1-7c1-4.6,6.3-12.5,2.8-13.2s-14.5,5.9-15.5,10.5
		C-220.6-350.8-218.6-346.5-215.1-345.7z"/>
	<path class="st11" d="M3.4-218.6c-4.7,0-13.5-3.6-13.5,0s8.8,13,13.5,13c4.7,0,8.5-2.9,8.5-6.5S8.1-218.6,3.4-218.6z"/>
	<path class="st11" d="M-154.7-341.1l17-15.3v-15.3l-34,15.3c3.3,5.3,17,5.3,17,5.3V-341.1z"/>
	<path class="st11" d="M-186.4-351.1l-16,10c0,0,32.7,30,30.7,18S-186.4-351.1-186.4-351.1z"/>
	<path class="st11" d="M-92.9-320.2c0,0,11.7-4,2.1-15.4c-9.6-11.4-14.7,3.2-14.7,3.2L-92.9-320.2z"/>
	<path class="st11" d="M-176.9-376.5c-9.6-11.4-14.7,3.2-14.7,3.2l12.6,12.2C-179-361.1-167.3-365.1-176.9-376.5z"/>
	<path class="st11" d="M-230.9-312.6c14.3,4.2,10.5-10.8,10.5-10.8l-17.3-3.2C-237.6-326.6-245.1-316.8-230.9-312.6z"/>
	<path class="st11" d="M-67.2-222.8l12.6,12.2c0,0,15.4-10.4,5.9-21.8C-58.2-243.8-67.2-222.8-67.2-222.8z"/>
	<path class="st11" d="M-154.7-136.2c-18,10.3,0,25.8,0,25.8l30.3-20.7l-23.3-29.1L-154.7-136.2z"/>
	<path class="st11" d="M-28.4-209.1c-16.7-1.3-16,13.6-16,13.6l6,18.4l17.3-12.4C-21-189.5-11.7-207.7-28.4-209.1z"/>
	<path class="st11" d="M-295.7-285.7v-5.5h-18.7c0,0,0,24.1,9.3,27.2C-295.7-260.9-295.7-285.7-295.7-285.7z"/>
</g>
<path class="st4" d="M1539.6-385.8c-7.4-22.7-1.6-52.2-15.4-71.1c-13.9-19.1-43.8-22.7-62.9-36.6c-18.9-13.7-31.5-41.2-54.2-48.5
	c-21.9-7.1-48.1,7.4-72.4,7.4c-24.2,0-50.5-14.5-72.4-7.4c-22.7,7.4-35.3,34.8-54.2,48.5c-19.1,13.9-49,17.5-62.9,36.6
	c-13.7,18.9-8,48.4-15.4,71.1c-7.1,21.9-29.3,42.3-29.3,66.5c0,24.2,22.2,44.7,29.3,66.5c7.4,22.7,1.6,52.2,15.4,71.1
	c13.9,19.1,43.8,22.7,62.9,36.6c18.9,13.7,31.5,41.2,54.2,48.5c21.9,7.1,48.1-7.4,72.4-7.4c24.2,0,50.5,14.5,72.4,7.4
	c22.7-7.4,35.3-34.8,54.2-48.5c19.1-13.9,49-17.5,62.9-36.6c13.7-18.9,8-48.4,15.4-71.1c7.1-21.9,29.3-42.3,29.3-66.5
	C1568.9-343.5,1546.7-363.9,1539.6-385.8z M1334.8-233c-47.6,0-86.2-38.6-86.2-86.2c0-47.6,38.6-86.2,86.2-86.2s86.2,38.6,86.2,86.2
	C1421-271.6,1382.4-233,1334.8-233z"/>
<path class="st5" d="M1337.6,344.1c-117.3,0-212.5-95.1-212.5-212.5c0-39.9,11-77.1,30.1-109c-2.2,2.1-4.5,4-6.8,5.8
	c-19.1,13.9-49,17.5-62.9,36.6c-13.7,18.9-8,48.4-15.4,71.1c-7.1,21.9-29.3,42.3-29.3,66.5c0,24.2,22.2,44.7,29.3,66.5
	c7.4,22.7,1.6,52.2,15.4,71.1c13.9,19.1,43.8,22.7,62.9,36.6c18.9,13.7,31.5,41.2,54.2,48.5c21.9,7.1,48.1-7.4,72.4-7.4
	c24.2,0,50.5,14.5,72.4,7.4c22.7-7.4,35.3-34.8,54.2-48.5c19.1-13.9,49-17.5,62.9-36.6c9.2-12.6,9.7-30,11.2-46.9
	C1438.4,324.9,1390.2,344.1,1337.6,344.1z"/>
</svg>
