<?xml version="1.0" encoding="utf-8"?>
<!-- Generator: Adobe Illustrator 17.1.0, SVG Export Plug-In . SVG Version: 6.00 Build 0)  -->
<!DOCTYPE svg PUBLIC "-//W3C//DTD SVG 1.1//EN" "http://www.w3.org/Graphics/SVG/1.1/DTD/svg11.dtd">
<svg version="1.1" id="Layer_1" xmlns="http://www.w3.org/2000/svg" xmlns:xlink="http://www.w3.org/1999/xlink" x="0px" y="0px"
	 viewBox="0 0 640 640" style="enable-background:new 0 0 640 640;" xml:space="preserve">
<style type="text/css">
	.st0{fill:#70AACC;}
	.st1{fill:#3A87AF;}
	.st2{fill:#745639;}
	.st3{fill:#3F2C1E;}
	.st4{fill:#332317;}
	.st5{fill:#FFFFFF;}
</style>
<path class="st0" d="M617.1,561c0,30.2-24.4,54.8-54.8,54.8H77.2c-30.2,0-54.8-24.4-54.8-54.8V75.9c0-30.2,24.4-54.8,54.8-54.8
	h485.2c30.2,0,54.8,24.4,54.8,54.8V561H617.1z"/>
<path class="st1" d="M549.8,304.4c0,0,10,100-73.3,175.7s-194.9,61.7-194.9,61.7l73,73h206.7c30.2,0,54.8-24.4,54.8-54.8V370.6
	L549.8,304.4z"/>
<path class="st1" d="M256.6,337c0-43.4,35.2-78.6,78.6-78.6c19.1,0,36.6,6.8,50.2,18.2c-13.4-23.9-39-40.1-68.5-40.1
	c-43.4,0-78.6,35.2-78.6,78.6c0,24.3,11,46,28.4,60.4C260.4,364.2,256.6,351.1,256.6,337z"/>
<path class="st2" d="M317.4,82.8C188.9,82.8,84.7,187,84.7,315.5s104.2,232.7,232.7,232.7S550.1,444,550.1,315.5
	S445.9,82.8,317.4,82.8z M317.4,394.7c-43.7,0-79.2-35.4-79.2-79.2c0-43.7,35.4-79.2,79.2-79.2c43.7,0,79.2,35.4,79.2,79.2
	C396.6,359.2,361.1,394.7,317.4,394.7z"/>
<path class="st3" d="M505.4,254.4c-6.8-20.8-1.5-47.9-14.1-65.2c-12.7-17.5-40.2-20.8-57.7-33.6c-17.3-12.6-28.9-37.8-49.7-44.6
	c-20.1-6.5-44.2,6.8-66.4,6.8c-22.3,0-46.4-13.4-66.4-6.8c-20.8,6.8-32.4,32-49.7,44.6c-17.5,12.7-45,16.1-57.7,33.6
	c-12.6,17.3-7.4,44.4-14.1,65.2c-6.5,20.1-26.9,38.8-26.9,61.1c0,22.3,20.4,41,26.9,61.1c6.8,20.8,1.5,47.9,14.1,65.2
	c12.7,17.5,40.2,20.8,57.7,33.6c17.3,12.6,28.9,37.8,49.7,44.6c20.1,6.5,44.2-6.8,66.4-6.8c22.3,0,46.4,13.4,66.4,6.8
	c20.8-6.8,32.4-32,49.7-44.6c17.5-12.7,45-16.1,57.7-33.6c12.6-17.3,7.4-44.4,14.1-65.2c6.5-20.1,26.9-38.8,26.9-61.1
	C532.3,293.2,511.9,274.5,505.4,254.4z M317.4,394.7c-43.7,0-79.2-35.4-79.2-79.2s35.4-79.2,79.2-79.2c43.7,0,79.2,35.4,79.2,79.2
	S361.1,394.7,317.4,394.7z"/>
<path class="st4" d="M374.1,446.5c-107.7,0-195-87.3-195-195c0-36.6,10.1-70.8,27.6-100.1c-2,1.9-4.1,3.7-6.3,5.3
	c-17.5,12.7-45,16.1-57.7,33.6c-12.6,17.3-7.4,44.4-14.1,65.2c-6.5,20.1-26.9,38.8-26.9,61.1c0,22.3,20.4,41,26.9,61.1
	c6.8,20.8,1.5,47.9,14.1,65.2c12.7,17.5,40.2,20.8,57.7,33.6c17.3,12.6,28.9,37.8,49.7,44.6c20.1,6.5,44.2-6.8,66.4-6.8
	c22.3,0,46.4,13.4,66.4,6.8c20.8-6.8,32.4-32,49.7-44.6c17.5-12.7,45-16.1,57.7-33.6c8.4-11.6,8.9-27.5,10.3-43.1
	C466.6,428.9,422.4,446.5,374.1,446.5z"/>
<path class="st5" d="M192.5,252.1c1.8,2.4,1.4,5.8-1,7.6l0,0c-2.4,1.8-5.8,1.4-7.6-1l-19.5-25.3c-1.8-2.4-1.4-5.8,1-7.6l0,0
	c2.4-1.8,5.8-1.4,7.6,1L192.5,252.1z"/>
<path class="st5" d="M198.4,428.5c1.8,2.4,1.4,5.8-1,7.6l0,0c-2.4,1.8-5.8,1.4-7.6-1l-19.5-25.3c-1.8-2.4-1.4-5.8,1-7.6l0,0
	c2.4-1.8,5.8-1.4,7.6,1L198.4,428.5z"/>
<path class="st5" d="M386.4,487.4c1.8,2.4,1.4,5.8-1,7.6l0,0c-2.4,1.8-5.8,1.4-7.6-1l-19.5-25.3c-1.8-2.4-1.4-5.8,1-7.6l0,0
	c2.4-1.8,5.8-1.4,7.6,1L386.4,487.4z"/>
<path class="st5" d="M472.3,214.7c2.4-0.5,4.9,1,5.4,3.5l0,0c0.5,2.4-1,4.9-3.5,5.4l-26,5.6c-2.4,0.5-4.9-1-5.4-3.5l0,0
	c-0.5-2.4,1-4.9,3.5-5.4L472.3,214.7z"/>
<path class="st5" d="M292.7,207.4c2.4-0.5,4.9,1,5.4,3.5l0,0c0.5,2.4-1,4.9-3.5,5.4l-26,5.6c-2.4,0.5-4.9-1-5.4-3.5l0,0
	c-0.5-2.4,1-4.9,3.5-5.4L292.7,207.4z"/>
<path class="st5" d="M-471.2,142.4c2.2-1.6,5.3-1,6.9,1.2l0,0c1.6,2.2,1,5.3-1.2,6.9l-23.8,16.6c-2.2,1.6-5.3,1-6.9-1.2l0,0
	c-1.6-2.2-1-5.3,1.2-6.9L-471.2,142.4z"/>
<path class="st5" d="M381.2,208.9c-0.6,2.4-3.1,3.9-5.5,3.2l0,0c-2.4-0.6-3.9-3.1-3.2-5.5l6.7-25.7c0.6-2.4,3.1-3.9,5.5-3.2l0,0
	c2.4,0.6,3.9,3.1,3.2,5.5L381.2,208.9z"/>
<path class="st5" d="M438.5,436.4c-1.8,1.8-4.6,1.8-6.4,0l0,0c-1.8-1.8-1.8-4.6,0-6.4l18.8-18.8c1.8-1.8,4.6-1.8,6.4,0l0,0
	c1.8,1.8,1.8,4.6,0,6.4L438.5,436.4z"/>
<path class="st5" d="M288.4,431.8c-1.8,1.8-4.6,1.8-6.4,0l0,0c-1.8-1.8-1.8-4.6,0-6.4l18.8-18.8c1.8-1.8,4.6-1.8,6.4,0l0,0
	c1.8,1.8,1.8,4.6,0,6.4L288.4,431.8z"/>
<path class="st5" d="M280.4,490.7c0.3,2.5-1.5,4.7-4,5l0,0c-2.5,0.3-4.7-1.5-5-4l-3.1-26.4c-0.3-2.5,1.5-4.7,4-5l0,0
	c2.5-0.3,4.7,1.5,5,4L280.4,490.7z"/>
<path class="st5" d="M274.3,169.5c0.3,2.5-1.5,4.7-4,5l0,0c-2.5,0.3-4.7-1.5-5-4l-3.1-26.4c-0.3-2.5,1.5-4.7,4-5l0,0
	c2.5-0.3,4.7,1.5,5,4L274.3,169.5z"/>
<path class="st5" d="M416.9,396.1c0.3,2.5-1.5,4.7-4,5l0,0c-2.5,0.3-4.7-1.5-5-4l-3.1-26.4c-0.3-2.5,1.5-4.7,4-5l0,0
	c2.5-0.3,4.7,1.5,5,4L416.9,396.1z"/>
<path class="st5" d="M178.2,356.5c-1.8,1.8-4.6,1.8-6.4,0l0,0c-1.8-1.8-1.8-4.6,0-6.4l18.8-18.8c1.8-1.8,4.6-1.8,6.4,0l0,0
	c1.8,1.8,1.8,4.6,0,6.4L178.2,356.5z"/>
<path class="st5" d="M431,314.6c-2.5-0.3-4.2-2.6-3.9-5.1l0,0c0.3-2.5,2.6-4.2,5.1-3.9l26.3,3.4c2.5,0.3,4.2,2.6,3.9,5.1l0,0
	c-0.3,2.5-2.6,4.2-5.1,3.9L431,314.6z"/>
</svg>
