<?xml version="1.0" encoding="utf-8"?>
<!-- Generator: Adobe Illustrator 17.1.0, SVG Export Plug-In . SVG Version: 6.00 Build 0)  -->
<!DOCTYPE svg PUBLIC "-//W3C//DTD SVG 1.1//EN" "http://www.w3.org/Graphics/SVG/1.1/DTD/svg11.dtd">
<svg version="1.1" id="Layer_1" xmlns="http://www.w3.org/2000/svg" xmlns:xlink="http://www.w3.org/1999/xlink" x="0px" y="0px"
	 viewBox="0 0 640 640" enable-background="new 0 0 640 640" xml:space="preserve">
<path fill="#70AACC" d="M617.1,561c0,30.2-24.4,54.8-54.8,54.8H77.2c-30.2,0-54.8-24.4-54.8-54.8V75.9c0-30.2,24.4-54.8,54.8-54.8
	h485.2c30.2,0,54.8,24.4,54.8,54.8V561H617.1z"/>
<path fill="#3A87AF" d="M549.8,304.4c0,0,10,100-73.3,175.7s-194.9,61.7-194.9,61.7l73,73h206.7c30.2,0,54.8-24.4,54.8-54.8V370.6
	L549.8,304.4z"/>
<path fill="#3A87AF" d="M256.6,337c0-43.4,35.2-78.6,78.6-78.6c19.1,0,36.6,6.8,50.2,18.2c-13.4-23.9-39-40.1-68.5-40.1
	c-43.4,0-78.6,35.2-78.6,78.6c0,24.3,11,46,28.4,60.4C260.4,364.2,256.6,351.1,256.6,337z"/>
<path fill="#CCA176" d="M320,89.8C191.8,89.8,87.8,193.8,87.8,322S191.8,554.2,320,554.2S552.2,450.2,552.2,322S448.2,89.8,320,89.8
	z"/>
<path fill="#3F2C1E" d="M507.6,261.1c-6.7-20.8-1.5-47.8-14.1-65.1c-12.7-17.5-40.1-20.8-57.6-33.5c-17.3-12.6-28.9-37.7-49.6-44.5
	c-20-6.5-44.1,6.8-66.3,6.8c-22.2,0-46.2-13.3-66.3-6.8c-20.8,6.7-32.3,31.9-49.6,44.5c-17.5,12.7-44.9,16-57.6,33.5
	c-12.6,17.3-7.3,44.3-14.1,65.1c-6.5,20-26.9,38.7-26.9,60.9c0,22.2,20.4,40.9,26.9,60.9c6.7,20.8,1.5,47.8,14.1,65.1
	c12.7,17.5,40.1,20.8,57.6,33.5c17.3,12.6,28.9,37.7,49.6,44.5c20,6.5,44.1-6.8,66.3-6.8c22.2,0,46.2,13.3,66.3,6.8
	c20.8-6.7,32.3-31.9,49.6-44.5c17.5-12.7,44.9-16,57.6-33.5c12.6-17.3,7.3-44.3,14.1-65.1c6.5-20,26.9-38.7,26.9-60.9
	C534.4,299.8,514.1,281.1,507.6,261.1z"/>
<path fill="#332317" d="M377.6,451.1C270.1,451.1,183,364,183,256.5c0-36.5,10.1-70.6,27.5-99.8c-2,1.9-4.1,3.7-6.3,5.3
	c-17.5,12.7-44.9,16-57.6,33.5c-12.6,17.3-7.3,44.3-14.1,65.1c-6.5,20-26.9,38.7-26.9,60.9c0,22.2,20.4,40.9,26.9,60.9
	c6.7,20.8,1.5,47.8,14.1,65.1c12.7,17.5,40.1,20.8,57.6,33.5c17.3,12.6,28.9,37.7,49.6,44.5c20,6.5,44.1-6.8,66.3-6.8
	c22.2,0,46.2,13.3,66.3,6.8c20.8-6.7,32.3-31.9,49.6-44.5c17.5-12.7,44.9-16,57.6-33.5c8.4-11.6,8.9-27.5,10.2-43
	C469.9,433.6,425.8,451.1,377.6,451.1z"/>
<path fill="#FFDA40" d="M542.7,394.5c-0.8-1.6-3.1-1.4-4,0c-8.1,12.3-16,25.9-16.1,41c0,1.1,1.1,2.4,2.3,2.3
	c7.9-0.9,13.7-5.8,16.6-12.3C547.9,418,547.2,403.3,542.7,394.5z"/>
</svg>
