<?xml version="1.0" encoding="utf-8"?>
<!-- Generator: Adobe Illustrator 17.1.0, SVG Export Plug-In . SVG Version: 6.00 Build 0)  -->
<!DOCTYPE svg PUBLIC "-//W3C//DTD SVG 1.1//EN" "http://www.w3.org/Graphics/SVG/1.1/DTD/svg11.dtd">
<svg version="1.1" id="Layer_1" xmlns="http://www.w3.org/2000/svg" xmlns:xlink="http://www.w3.org/1999/xlink" x="0px" y="0px"
	 viewBox="0 0 500 500" style="enable-background:new 0 0 500 500;" xml:space="preserve">
<style type="text/css">
	.st0{fill:#70AACC;}
	.st1{fill:#3A87AF;}
	.st2{fill:#CCA176;}
	.st3{fill:#D1BDA7;}
	.st4{fill:#603813;}
	.st5{fill:#FF7BAC;}
	.st6{fill:#8CC63F;}
	.st7{fill:#00BEF2;}
	.st8{fill:#FFFF00;}
	.st9{fill:#FFFFFF;}
	.st10{fill:#ED1E79;}
</style>
<path class="st0" d="M482.1,438.3c0,23.6-19.1,42.8-42.8,42.8H60.3c-23.6,0-42.8-19.1-42.8-42.8V59.3c0-23.6,19.1-42.8,42.8-42.8
	h379.1c23.6,0,42.8,19.1,42.8,42.8V438.3z"/>
<polygon class="st1" points="171.9,351.8 276.9,480.4 438.4,480.4 275,301.6 "/>
<path class="st1" d="M221.1,148.5l-78.7,75.7l150.2,256.2l146.6,0.2c23.1,0,41.9-19.2,41.9-42.9V319.6L221.1,148.5z"/>
<polygon class="st1" points="365.1,176.8 288.8,246.2 482.2,437.4 482.2,289.2 "/>
<path class="st1" d="M756.5,121.3c0-33.9,27.5-61.4,61.4-61.4c14.9,0,28.6,5.3,39.2,14.2c-10.5-18.7-30.5-31.3-53.5-31.3
	c-33.9,0-61.4,27.5-61.4,61.4c0,19,8.6,35.9,22.2,47.2C759.4,142.5,756.5,132.3,756.5,121.3z"/>
<path class="st2" d="M183.6,249.4c-33.1,0-59.9-26.8-59.9-59.9s26.8-59.9,59.9-59.9s59.9,26.8,59.9,59.9S216.7,249.4,183.6,249.4z"
	/>
<path class="st3" d="M229.6,395.4c-33.1,0-59.9-26.8-59.9-59.9c0-33.1,26.8-59.9,59.9-59.9c33.1,0,59.9,26.8,59.9,59.9
	C289.5,368.5,262.7,395.4,229.6,395.4z"/>
<path class="st4" d="M337.6,271.3c-33.1,0-59.9-26.8-59.9-59.9c0-33.1,26.8-59.9,59.9-59.9c33.1,0,59.9,26.8,59.9,59.9
	C397.5,244.4,370.7,271.3,337.6,271.3z"/>
<g>
	<path class="st5" d="M231.1,351c-1.1,1.1-2.8,1.1-3.8,0l0,0c-1.1-1.1-1.1-2.8,0-3.8l11.3-11.3c1.1-1.1,2.8-1.1,3.8,0l0,0
		c1.1,1.1,1.1,2.8,0,3.8L231.1,351z"/>
	<path class="st6" d="M199.3,353.3c0.2,1.5-0.9,2.8-2.4,3l0,0c-1.5,0.2-2.8-0.9-3-2.4l-1.9-15.9c-0.2-1.5,0.9-2.8,2.4-3l0,0
		c1.5-0.2,2.8,0.9,3,2.4L199.3,353.3z"/>
	<path class="st7" d="M197.4,310.4c-1.1,1.1-2.8,1.1-3.8,0l0,0c-1.1-1.1-1.1-2.8,0-3.8l11.3-11.3c1.1-1.1,2.8-1.1,3.8,0l0,0
		c1.1,1.1,1.1,2.8,0,3.8L197.4,310.4z"/>
	<path class="st8" d="M203.4,325.6c-1.5-0.2-2.5-1.6-2.4-3l0,0c0.2-1.5,1.6-2.5,3-2.4l15.8,2c1.5,0.2,2.5,1.6,2.4,3l0,0
		c-0.2,1.5-1.6,2.5-3,2.4L203.4,325.6z"/>
	<path class="st9" d="M226.6,303.3c-1.5-0.2-2.5-1.6-2.4-3l0,0c0.2-1.5,1.6-2.5,3-2.4l15.8,2c1.5,0.2,2.5,1.6,2.4,3l0,0
		c-0.2,1.5-1.6,2.5-3,2.4L226.6,303.3z"/>
</g>
<g>
	<path class="st7" d="M227.3,371.6c-1.4-0.4-2.2-2-1.8-3.4l0,0c0.4-1.4,2-2.2,3.4-1.8l15.3,4.6c1.4,0.4,2.2,2,1.8,3.4l0,0
		c-0.4,1.4-2,2.2-3.4,1.8L227.3,371.6z"/>
	<path class="st8" d="M261.3,333.8c-0.5,1.4-2.1,2.1-3.5,1.6l0,0c-1.4-0.5-2.1-2.1-1.6-3.5l5.7-14.9c0.5-1.4,2.1-2.1,3.5-1.6l0,0
		c1.4,0.5,2.1,2.1,1.6,3.5L261.3,333.8z"/>
</g>
<g>
	<g>
		<path class="st10" d="M183.2,131.4c24.3,2.1,44.7,22.5,55.3,43.3c1.9,3.7,9,17.9,1.8,19.6c-5.4,1.3-12.7-3.3-17.1-5.8
			c-6.2-3.6-11.9-8.1-17.6-12.4c-11.6-8.9-24-16.7-37.2-23.1c-8-3.9-17.1-8.7-25.9-10.2c-8-1.4-9.9,6.1-7.3,12.2
			c3.4,8.1,11.9,15.4,18.8,20.5c14.2,10.7,30.8,17.7,45.3,27.8c7.6,5.4,14.4,11.9,19.4,19.8c2.3,3.6,4.2,7.7,4.7,11.9
			c0.7,5.6-3.7,7.8-8.4,8.8c-8.8,1.9-18.4-1.8-26.3-5.4c-8.7-3.9-16.8-9-25-13.8c-7-4.1-14.4-7.7-21.9-10.9
			c-7.4-3.1-15.1-4-21.1,2.1c-1.7,1.7,1,4.4,2.7,2.7c5.6-5.7,12.7-3.2,19.1-0.3c5,2.2,9.9,4.6,14.7,7.2c10.3,5.6,20.1,12.1,30.8,17
			c9.1,4.1,19.1,7.1,29.2,5c9.4-2,11.6-9.8,8.7-18.1c-7.2-21-29.4-32.7-47.4-42.8c-10.4-5.8-20.8-11.8-29.5-20.1
			c-3.2-3.1-6.3-6.5-8.8-10.2c-1.4-2.1-2.8-4.7-2.5-7.3c0.5-3.5,4.5-2.3,6.7-1.7c8.1,2.1,16.3,6.4,23.8,10
			c11.6,5.6,22.7,12.5,33,20.3c8.7,6.6,17.4,14.1,27.7,18.2c5.2,2.1,13.4,5,17.2-0.9c2.8-4.4,0.3-11.3-1.3-15.6
			c-2.6-6.9-6.6-13.1-11-19c-12.3-16.6-29.3-30.7-50.5-32.6C180.7,127.4,180.7,131.2,183.2,131.4L183.2,131.4z"/>
	</g>
</g>
<g>
	<g>
		<polygon class="st9" points="369.3,182 371.6,186.7 378,184.4 372.8,178.7 365.1,180.4 365.6,183.9 		"/>
		<polygon class="st9" points="365.4,191.6 373.1,191.6 373.1,195.9 368.2,195.9 361.9,193.7 		"/>
		<polygon class="st9" points="383.6,193.6 383.6,199.9 378.7,196.8 381.1,192.2 		"/>
		<polygon class="st9" points="391.1,195.2 391.1,201.5 386.1,198.4 388.6,193.7 		"/>
		<polygon class="st9" points="333.7,200.8 333.5,205.7 341.5,203.3 336.3,197.7 328.6,199.3 330.3,201.7 		"/>
		<polygon class="st9" points="335.7,210.4 343.4,210.4 343.4,214.6 338.6,214.6 332.2,212.5 		"/>
		<polygon class="st9" points="329.3,227.7 325.6,224.2 327.5,222.2 329.9,224.4 332,228.3 		"/>
		<polygon class="st9" points="367.1,236.6 363.3,233.1 365.3,231 367.6,233.3 369.7,237.2 		"/>
		<polygon class="st9" points="344.3,220.3 344.3,226.5 339.3,223.4 341.8,218.8 		"/>
		<polygon class="st9" points="356.4,191.4 356.4,197.6 351.4,194.5 353.9,189.9 		"/>
		<polygon class="st9" points="358.9,179.7 358.9,185.9 353.9,182.8 356.4,178.2 		"/>
		<polygon class="st9" points="387,214.7 387,220.9 382,217.8 384.5,213.2 		"/>
		<polygon class="st9" points="386.1,168.1 386.1,174.4 381.1,171.2 383.6,166.6 		"/>
		<polygon class="st9" points="351.3,203.1 351.3,209.3 344.1,201.5 348.8,201.6 		"/>
		<polygon class="st9" points="323.2,212.2 323.2,218.4 318.2,215.3 320.7,210.7 		"/>
		<polygon class="st9" points="363.6,204.8 369,205.5 361.9,209.3 354.9,205 359,199.7 		"/>
		<polygon class="st9" points="371,214.4 367.5,214.3 371.9,221.4 376,214.9 372.2,207.9 369.8,208.9 		"/>
		<polygon class="st9" points="360.3,213.5 366.9,217.5 364.7,221.1 360.5,218.6 356.2,213.5 		"/>
		<polygon class="st9" points="364.5,229.3 358.6,231 360.2,225.4 365.3,226.5 		"/>
		<polygon class="st9" points="345,184.1 341.2,187.6 345.6,194.7 349.7,188.1 346,181.1 344.2,183.4 		"/>
		<polygon class="st9" points="334,184.6 336.1,192 332.1,193.2 330.7,188.5 331,181.8 		"/>
		<polygon class="st9" points="319.8,190.9 316.9,186.8 319.8,182 322.1,184.4 323.6,190.9 		"/>
		<polygon class="st9" points="365.5,165.3 359.5,167 361.2,161.3 366.3,162.5 		"/>
		<polygon class="st9" points="321.4,205.6 319.1,208.5 315.4,207.3 317.1,201.7 322.2,202.8 		"/>
		<polygon class="st9" points="331.6,173 325.6,174.7 327.2,169.1 332.3,170.2 		"/>
		<path class="st9" d="M353.7,235.2c0,0-4.5,4.1-6,1.7c-1.5-2.4,1.6-5.6,1.6-5.6l5.1,1.1L353.7,235.2z"/>
		<path class="st9" d="M389.8,178.9c0,0-4.5,4.1-6,1.7c-1.5-2.4,1.6-5.6,1.6-5.6l5.1,1.1L389.8,178.9z"/>
		<polygon class="st9" points="376.4,172.7 370.4,174.4 372,168.8 377.2,169.9 		"/>
		<polygon class="st9" points="371.8,231.1 372.6,236.5 370,235.5 369.3,222.8 375.5,225.4 		"/>
		<path class="st9" d="M337.8,223.8c0,0.9-1,1.6-2.1,1.6c-1.2,0-3.4-2.3-3.4-3.2c0-0.9,2.2,0,3.4,0
			C336.9,222.2,337.8,222.9,337.8,223.8z"/>
	</g>
	<path class="st9" d="M345.4,167.8l8.5-3.8v3.8l-4.2,3.8v-2.5C349.7,169.1,346.3,169.1,345.4,167.8z"/>
	<path class="st9" d="M337.8,171.6c0,0,8.1,7.5,7.6,4.5c-0.5-3-3.7-7-3.7-7L337.8,171.6z"/>
	<path class="st9" d="M361.9,173.8l3.1,3c0,0,2.9-1,0.5-3.8C363.2,170.1,361.9,173.8,361.9,173.8z"/>
	<path class="st9" d="M340.5,163.6l3.1,3c0,0,2.9-1,0.5-3.8C341.8,159.9,340.5,163.6,340.5,163.6z"/>
	<path class="st9" d="M333.3,176l-4.3-0.8c0,0-1.9,2.4,1.7,3.5C334.3,179.8,333.3,176,333.3,176z"/>
	<path class="st9" d="M371.5,201.1l3.1,3c0,0,2.9-1,0.5-3.8C372.8,197.4,371.5,201.1,371.5,201.1z"/>
	<path class="st9" d="M349.7,222.7l1.7-6l5.8,7.2l-7.6,5.1C349.7,229.1,345.2,225.2,349.7,222.7z"/>
	<path class="st9" d="M383,209.4c0,0,2.3-4.5-1.8-4.9c-4.2-0.3-4,3.4-4,3.4l1.5,4.6L383,209.4z"/>
	<path class="st9" d="M314.6,185.4c0,0,0,6.2-2.3,5.4c-2.3-0.8-2.3-6.8-2.3-6.8h4.6V185.4z"/>
</g>
<g>
</g>
<g>
</g>
<g>
</g>
<g>
</g>
<g>
</g>
<g>
</g>
<g>
</g>
<g>
</g>
<g>
</g>
<g>
</g>
<g>
</g>
<g>
</g>
<g>
</g>
<g>
</g>
<g>
</g>
</svg>
