<?xml version="1.0" encoding="utf-8"?>
<!-- Generator: Adobe Illustrator 17.1.0, SVG Export Plug-In . SVG Version: 6.00 Build 0)  -->
<!DOCTYPE svg PUBLIC "-//W3C//DTD SVG 1.1//EN" "http://www.w3.org/Graphics/SVG/1.1/DTD/svg11.dtd">
<svg version="1.1" id="Layer_1" xmlns="http://www.w3.org/2000/svg" xmlns:xlink="http://www.w3.org/1999/xlink" x="0px" y="0px"
	 viewBox="0 0 500 500" enable-background="new 0 0 500 500" xml:space="preserve">
<path fill="#70AACC" d="M482.1,438.3c0,23.6-19.1,42.8-42.8,42.8H60.3c-23.6,0-42.8-19.1-42.8-42.8V59.3c0-23.6,19.1-42.8,42.8-42.8
	h379.1c23.6,0,42.8,19.1,42.8,42.8V438.3z"/>
<path fill="#3A87AF" d="M429.5,237.8c0,0,7.8,78.1-57.3,137.3c-65.1,59.2-152.3,48.2-152.3,48.2l57,57h161.5
	c23.6,0,42.8-19.1,42.8-42.8V289.5L429.5,237.8z"/>
<path fill="#3A87AF" d="M200.5,263.3c0-33.9,27.5-61.4,61.4-61.4c14.9,0,28.6,5.3,39.2,14.2c-10.5-18.7-30.5-31.3-53.5-31.3
	c-33.9,0-61.4,27.5-61.4,61.4c0,19,8.6,35.9,22.2,47.2C203.4,284.5,200.5,274.3,200.5,263.3z"/>
<path fill="#CCA176" d="M248.9,55.8C147.1,55.8,64.7,138.2,64.7,240s82.5,184.2,184.2,184.2S433.1,341.7,433.1,240
	S350.6,55.8,248.9,55.8z M248.9,302.7c-34.6,0-62.7-28.1-62.7-62.7c0-34.6,28.1-62.7,62.7-62.7c34.6,0,62.7,28.1,62.7,62.7
	C311.6,274.6,283.5,302.7,248.9,302.7z"/>
<path fill="#BC7543" d="M397.7,191.6c-5.3-16.5-1.2-37.9-11.2-51.7c-10.1-13.9-31.9-16.5-45.7-26.6c-13.7-10-22.9-29.9-39.4-35.3
	c-15.9-5.2-35,5.4-52.6,5.4c-17.6,0-36.7-10.6-52.6-5.4c-16.5,5.3-25.7,25.3-39.4,35.3c-13.9,10.1-35.6,12.7-45.7,26.6
	c-10,13.7-5.8,35.2-11.2,51.7c-5.2,15.9-21.3,30.7-21.3,48.4c0,17.6,16.2,32.5,21.3,48.4c5.3,16.5,1.2,37.9,11.2,51.7
	c10.1,13.9,31.9,16.5,45.7,26.6c13.7,10,22.9,29.9,39.4,35.3c15.9,5.2,35-5.4,52.6-5.4c17.6,0,36.7,10.6,52.6,5.4
	c16.5-5.3,25.7-25.3,39.4-35.3c13.9-10.1,35.6-12.7,45.7-26.6c10-13.7,5.8-35.2,11.2-51.7c5.2-15.9,21.3-30.7,21.3-48.4
	C419,222.4,402.9,207.5,397.7,191.6z"/>
<path fill="#AC6B3D" d="M294.5,343.2C209.2,343.2,140,274,140,188.8c0-29,8-56.1,21.9-79.2c-1.6,1.5-3.3,2.9-5,4.2
	c-13.9,10.1-35.6,12.7-45.7,26.6c-10,13.7-5.8,35.2-11.2,51.7c-5.2,15.9-21.3,30.7-21.3,48.4c0,17.6,16.2,32.5,21.3,48.4
	c5.3,16.5,1.2,37.9,11.2,51.7c10.1,13.9,31.9,16.5,45.7,26.6c13.7,10,22.9,29.9,39.4,35.3c15.9,5.2,35-5.4,52.6-5.4
	c17.6,0,36.7,10.6,52.6,5.4c16.5-5.3,25.7-25.3,39.4-35.3c13.9-10.1,35.6-12.7,45.7-26.6c6.7-9.2,7-21.8,8.1-34.1
	C367.7,329.3,332.7,343.2,294.5,343.2z"/>
<path fill="#931A4B" d="M425.8,297.5c-0.7-1.3-2.4-1.1-3.1,0c-6.4,9.8-12.7,20.5-12.8,32.6c0,0.9,0.8,1.9,1.8,1.8
	c6.3-0.7,10.9-4.6,13.2-9.8C429.9,316.2,429.3,304.5,425.8,297.5z"/>
<g>
	<g>
		<path fill="#931A4B" d="M64.2,217.9c21.7,2.9,42.8-10,59.3-22.7c17.2-13.3,32.1-29.1,45.1-46.4c13.6-18.1,26-37.1,42.7-52.6
			c15-13.9,36.9-25,57.9-19.6c9.2,2.3,12.8,12.1,13.5,20.8c0.8,10.2-3.4,20-8.6,28.5c-11.5,18.9-29.8,33.8-47.3,47
			c-20.4,15.4-40.1,30.9-57.5,49.6c-17.3,18.6-31.9,39.3-44.5,61.3c-9.5,16.5-19,34.6-20.7,53.8c-1.7,18.8,12.7,31.9,31.1,30.7
			c19.3-1.3,37.2-13.6,51.7-25.3c17-13.6,29-31.2,39.4-50.2c13.3-24.4,23.8-50.4,40.5-72.8c7.2-9.7,17.7-20.6,27-29.9
			c13.2-13.2,27.2-25.7,42.4-36.6c13.1-9.4,27.9-18.5,44.1-21.1c14.9-2.4,26.1,6.8,29.7,21.1c4.8,19.3-2.8,41.7-10.8,59.1
			c-10.1,21.9-27,39-44.5,55.1c-15.8,14.6-33.7,28.5-46,46.4c-12.5,18.1-23.5,38.7-29.9,59.8c-2.7,8.9-4.7,19.3-0.5,28.1
			c4.6,9.5,16.5,9.4,25.3,7.6c6.9-1.4,4-11.9-2.9-10.5c-2.5,0.5-6,0.9-7.9,0.6c-0.7-0.1-2.9-0.9-2.5-0.7c-1.5-0.7-1-0.4-2-1.6
			c-0.4-0.4-1-2.2-1.4-4.3c-0.2-1.2,0-4.9,0.3-7c2.2-14.5,9.1-28.4,15.9-41.3c3.3-6.2,6.8-12.3,10.5-18.3c1.4-2.2,2.8-4.3,4.2-6.5
			c0.6-0.8,1.1-1.7,1.7-2.5c0.2-0.3,0.5-0.7,0.8-1c0.7-0.9-0.7,0.9,0.2-0.3c17.3-21.1,39.7-37.5,58.6-57
			c15.6-16.1,27.4-33.8,35.2-54.9c6.8-18.4,11.7-41.1,4.3-60.1c-5.9-15-19.6-23.9-35.6-23c-16.2,0.8-31.6,9.2-44.9,17.8
			c-28.5,18.4-54.2,43.1-75.8,69.3c-15.2,18.4-25.5,39.9-36.1,61.1c-10.5,21-21.5,42.8-38.9,58.9c-13.4,12.5-30.2,24.6-48.4,28.5
			c-7.5,1.6-15.3,0.5-20.7-5.1c-5.4-5.6-3.3-16-1.7-22.6c4.6-18.5,14.9-35.6,24.8-51.7c14.3-23.3,31.8-44.5,51.8-63.2
			c17.3-16.3,37.1-29.3,55.3-44.5c17.1-14.2,33.9-31,42.1-52.1c6.9-17.9,3.6-43.2-16.2-50.9c-9.4-3.6-21.3-2.3-30.8-0.4
			c-10.6,2.1-20.6,7.3-29.3,13.6c-27.6,20.1-43.4,51.2-65.4,76.5c-11.4,13.1-24.2,25.2-38.5,35.1c-13.2,9.2-29.2,17.6-45.7,15.3
			C57.3,206,57.4,217,64.2,217.9L64.2,217.9z"/>
	</g>
</g>
</svg>
