<?xml version="1.0" encoding="utf-8"?>
<!-- Generator: Adobe Illustrator 17.1.0, SVG Export Plug-In . SVG Version: 6.00 Build 0)  -->
<!DOCTYPE svg PUBLIC "-//W3C//DTD SVG 1.1//EN" "http://www.w3.org/Graphics/SVG/1.1/DTD/svg11.dtd">
<svg version="1.1" id="Layer_1" xmlns="http://www.w3.org/2000/svg" xmlns:xlink="http://www.w3.org/1999/xlink" x="0px" y="0px"
	 viewBox="0 0 640 640" style="enable-background:new 0 0 640 640;" xml:space="preserve">
<style type="text/css">
	.st0{fill:#70AACC;}
	.st1{fill:#3A87AF;}
	.st2{fill:#FFFFFF;}
	.st3{fill:#CCA176;}
	.st4{fill:#376845;}
</style>
<path class="st0" d="M617.1,561c0,30.2-24.4,54.8-54.8,54.8H77.2c-30.2,0-54.8-24.4-54.8-54.8V75.9c0-30.2,24.4-54.8,54.8-54.8
	h485.2c30.2,0,54.8,24.4,54.8,54.8V561H617.1z"/>
<path class="st1" d="M549.8,304.4c0,0,10,100-73.3,175.7s-194.9,61.7-194.9,61.7l73,73h206.7c30.2,0,54.8-24.4,54.8-54.8V370.6
	L549.8,304.4z"/>
<path class="st1" d="M256.6,337c0-43.4,35.2-78.6,78.6-78.6c19.1,0,36.6,6.8,50.2,18.2c-13.4-23.9-39-40.1-68.5-40.1
	c-43.4,0-78.6,35.2-78.6,78.6c0,24.3,11,46,28.4,60.4C260.4,364.2,256.6,351.1,256.6,337z"/>
<path class="st2" d="M-471.2,142.4c2.2-1.6,5.3-1,6.9,1.2l0,0c1.6,2.2,1,5.3-1.2,6.9l-23.8,16.6c-2.2,1.6-5.3,1-6.9-1.2l0,0
	c-1.6-2.2-1-5.3,1.2-6.9L-471.2,142.4z"/>
<path class="st3" d="M317.8,82.4C188.8,82.4,84.2,187,84.2,316s104.6,233.6,233.6,233.6S551.4,445.1,551.4,316
	S446.8,82.4,317.8,82.4z M317.8,395.5c-43.9,0-79.5-35.6-79.5-79.5s35.6-79.5,79.5-79.5s79.5,35.6,79.5,79.5
	S361.7,395.5,317.8,395.5z"/>
<polygon class="st4" points="260.3,188.3 256,188.3 251.7,166.4 260.3,166.4 "/>
<polygon class="st4" points="188.3,428.3 184,428.3 179.7,406.4 188.3,406.4 "/>
<polygon class="st4" points="436.9,451.5 432.6,451.5 428.3,429.5 436.9,429.5 "/>
<polygon class="st4" points="432.6,255.1 428.3,255.1 424,233.2 432.6,233.2 "/>
<polygon class="st4" points="206,177.3 201.7,177.3 197.4,155.4 206,155.4 "/>
<polygon class="st4" points="130.7,364.7 126.4,364.7 122.1,342.7 130.7,342.7 "/>
<polygon class="st4" points="250.1,255.1 245.8,255.1 241.5,233.2 250.1,233.2 "/>
<polygon class="st4" points="337.3,201.4 339.4,197.6 360.7,204.4 356.5,211.9 "/>
<polygon class="st4" points="534.4,301 536.5,297.2 557.8,304 553.6,311.6 "/>
<polygon class="st4" points="449.9,291.8 453.1,288.9 471.1,302.2 464.7,308 "/>
<polygon class="st4" points="259.5,437.5 257.2,433.8 273.7,418.7 278.2,426 "/>
<polygon class="st4" points="465.5,195.2 467.1,191.1 489.1,194.8 486.1,202.9 "/>
<polygon class="st4" points="436.9,351.8 438.4,347.8 460.5,351.5 457.5,359.5 "/>
<polygon class="st4" points="164.7,277.8 166.2,273.8 188.3,277.5 185.3,285.5 "/>
<polygon class="st4" points="325.4,444.5 326.9,440.5 349,444.2 345.9,452.2 "/>
<polygon class="st4" points="355.8,120.2 354.3,116.1 332.2,119.8 335.2,127.9 "/>
<polygon class="st4" points="250.1,351.8 248.6,347.8 226.6,351.5 229.6,359.5 "/>
<polygon class="st4" points="507.3,416.8 505.8,412.8 483.7,416.5 486.8,424.5 "/>
<polygon class="st4" points="397.2,503.9 395.7,499.9 373.6,503.6 376.6,511.6 "/>
<polygon class="st4" points="209.2,509.8 207.7,505.7 185.6,509.4 188.6,517.5 "/>
<polygon class="st4" points="90.2,242.3 91.7,238.3 113.8,241.9 110.8,250 "/>
<polygon class="st4" points="413,178.1 417,176.8 414.3,154.6 406.1,157.3 "/>
<polygon class="st4" points="293.3,492.2 291.7,488.1 269.7,491.8 272.7,499.9 "/>
</svg>
