<?xml version="1.0" encoding="utf-8"?>
<!-- Generator: Adobe Illustrator 17.1.0, SVG Export Plug-In . SVG Version: 6.00 Build 0)  -->
<!DOCTYPE svg PUBLIC "-//W3C//DTD SVG 1.1//EN" "http://www.w3.org/Graphics/SVG/1.1/DTD/svg11.dtd">
<svg version="1.1" id="Layer_1" xmlns="http://www.w3.org/2000/svg" xmlns:xlink="http://www.w3.org/1999/xlink" x="0px" y="0px"
	 viewBox="0 0 500 500" enable-background="new 0 0 500 500" xml:space="preserve">
<path fill="#70AACC" d="M482.1,438.3c0,23.6-19.1,42.8-42.8,42.8H60.3c-23.6,0-42.8-19.1-42.8-42.8V59.3c0-23.6,19.1-42.8,42.8-42.8
	h379.1c23.6,0,42.8,19.1,42.8,42.8V438.3z"/>
<path fill="#3A87AF" d="M429.5,237.8c0,0,7.8,78.1-57.3,137.3c-65.1,59.2-152.3,48.2-152.3,48.2l57,57h161.5
	c23.6,0,42.8-19.1,42.8-42.8V289.5L429.5,237.8z"/>
<path fill="#3A87AF" d="M200.5,263.3c0-33.9,27.5-61.4,61.4-61.4c14.9,0,28.6,5.3,39.2,14.2c-10.5-18.7-30.5-31.3-53.5-31.3
	c-33.9,0-61.4,27.5-61.4,61.4c0,19,8.6,35.9,22.2,47.2C203.4,284.5,200.5,274.3,200.5,263.3z"/>
<path fill="#CCA176" d="M249.8,68C150.5,68,69.9,148.6,69.9,248s80.6,179.9,179.9,179.9S429.8,347.3,429.8,248S349.2,68,249.8,68z
	 M249.8,309.2c-33.8,0-61.2-27.4-61.2-61.2c0-33.8,27.4-61.2,61.2-61.2c33.8,0,61.2,27.4,61.2,61.2
	C311.1,281.8,283.7,309.2,249.8,309.2z"/>
<path fill="#B48868" d="M395.2,200.7c-5.2-16.1-1.2-37.1-10.9-50.5c-9.8-13.5-31.1-16.1-44.6-26c-13.4-9.7-22.4-29.2-38.5-34.5
	c-15.5-5-34.2,5.3-51.4,5.3c-17.2,0-35.8-10.3-51.4-5.3c-16.1,5.2-25.1,24.7-38.5,34.5c-13.5,9.8-34.8,12.4-44.6,26
	c-9.7,13.4-5.7,34.4-10.9,50.5c-5,15.5-20.8,30-20.8,47.2c0,17.2,15.8,31.7,20.8,47.2c5.2,16.1,1.2,37.1,10.9,50.5
	c9.8,13.5,31.1,16.1,44.6,26c13.4,9.7,22.4,29.2,38.5,34.5c15.5,5,34.2-5.3,51.4-5.3c17.2,0,35.8,10.3,51.4,5.3
	c16.1-5.2,25.1-24.7,38.5-34.5c13.5-9.8,34.8-12.4,44.6-26c9.7-13.4,5.7-34.4,10.9-50.5c5-15.5,20.8-30,20.8-47.2
	C416,230.7,400.3,216.2,395.2,200.7z M249.8,309.2c-33.8,0-61.2-27.4-61.2-61.2s27.4-61.2,61.2-61.2c33.8,0,61.2,27.4,61.2,61.2
	S283.7,309.2,249.8,309.2z"/>
<path fill="#A47D5F" d="M294.5,348c-83.3,0-150.8-67.5-150.8-150.8c0-28.3,7.8-54.8,21.3-77.4c-1.6,1.5-3.2,2.9-4.9,4.1
	c-13.5,9.8-34.8,12.4-44.6,26c-9.7,13.4-5.7,34.4-10.9,50.5c-5,15.5-20.8,30-20.8,47.2c0,17.2,15.8,31.7,20.8,47.2
	c5.2,16.1,1.2,37.1,10.9,50.5c9.8,13.5,31.1,16.1,44.6,26c13.4,9.7,22.4,29.2,38.5,34.5c15.5,5,34.2-5.3,51.4-5.3
	c17.2,0,35.8,10.3,51.4,5.3c16.1-5.2,25.1-24.7,38.5-34.5c13.5-9.8,34.8-12.4,44.6-26c6.5-9,6.9-21.3,7.9-33.3
	C366,334.4,331.8,348,294.5,348z"/>
<g>
	<path fill="#9E3B2E" d="M311.1,191l-22.1,4.8l1.5,9.9c0,0,7.5-7.6,10.6-5.3c3.1,2.3,6.4,13.4,6.4,13.4l18.5-6.6L311.1,191z"/>
	<polygon fill="#9E3B2E" points="291.5,223.3 309.6,229.3 323.5,229.3 323.5,217.2 301.5,217.2 	"/>
	<polygon fill="#9E3B2E" points="341.9,233.6 334.8,229.3 327.7,242.4 341.9,251.3 	"/>
	<polygon fill="#9E3B2E" points="363.2,238.1 356.1,233.8 349,247 363.2,255.9 	"/>
	<path fill="#9E3B2E" d="M199,267l-22.1,4.8l4.8,6.6c0,0,5.8,5.2,7.9,5.2c0.5,0,1-0.1,1.5-0.1l-0.3,6.4l23-6.6L199,267z"/>
	<polygon fill="#9E3B2E" points="179.4,299.2 197.5,305.3 211.3,305.3 211.3,293.2 189.3,293.2 	"/>
	<polygon fill="#9E3B2E" points="182,314.8 176.5,320.7 187.1,330.7 194.7,332.4 188.7,321.2 	"/>
	<polygon fill="#9E3B2E" points="283.1,341.2 274.4,347.7 288.3,357.1 295.8,358.7 289.8,347.5 	"/>
	<polygon fill="#9E3B2E" points="215.6,318.4 229.8,327.3 229.8,309.5 222.7,305.3 	"/>
	<polygon fill="#9E3B2E" points="271.4,192.8 271.4,175.1 264.3,170.8 257.2,183.9 	"/>
	<path fill="#9E3B2E" d="M280.9,149.8c0,0-0.3-7.1-7.1-4.3c-6.8,2.8-7.1,13.1-7.1,13.1l14.2,8.9V149.8z"/>
	<polygon fill="#9E3B2E" points="337.2,302.3 351.4,311.2 351.4,293.4 344.3,289.2 	"/>
	<path fill="#9E3B2E" d="M349,178.6c6-3.8,0-17.7,0-17.7l-7.1-4.3l-7.1,13.1C334.8,169.7,343.1,182.4,349,178.6z"/>
	<polygon fill="#9E3B2E" points="204.9,332.1 225.5,354.4 225.5,336.6 218.4,332.4 	"/>
	<polygon fill="#9E3B2E" points="155.5,295.3 169.7,304.2 169.7,286.4 162.6,282.2 	"/>
	<path fill="#9E3B2E" d="M367.9,217.1c-2.8-4.1-15.4-2.1-15.4-2.1l-13-14.6l-11.7,15.1l20.1,12.2
		C347.8,227.8,370.7,221.2,367.9,217.1z"/>
	<path fill="#9E3B2E" d="M302.3,277.1l3.5,15.6l-10.1-0.3c0,0,7.2,17.7,12.6,20.3c5.5,2.7,11.6-18.7,11.6-18.7l-10.6-19.9
		L302.3,277.1z"/>
	<polygon fill="#9E3B2E" points="283.7,284 282.8,303.1 286.6,316.4 298.2,313.1 292.2,291.9 	"/>
	<polygon fill="#9E3B2E" points="289.7,327.3 276.1,318.1 270.4,340.1 287.5,335.3 	"/>
	<polygon fill="#9E3B2E" points="212.8,183.1 207.7,189.6 210.1,191.4 199.2,201.4 211.8,221.8 223.4,203.1 	"/>
	<polygon fill="#9E3B2E" points="180.1,196.8 179.2,215.8 183,229.1 194.6,225.8 188.6,204.7 	"/>
	<polygon fill="#9E3B2E" points="170.8,225.7 166.4,207.2 159.8,200.5 151.7,214.1 159.8,225.7 	"/>
	<polygon fill="#9E3B2E" points="183.9,248.1 186.1,240.1 171.5,236.8 166.8,252.9 	"/>
	<path fill="#9E3B2E" d="M164.6,267.7l2.2-8l-14.6-3.3L140.9,272c0,0,11.7,5.9,17.2,3.9C163.5,273.9,164.6,267.7,164.6,267.7z"/>
	<polygon fill="#9E3B2E" points="195.7,166.8 181.1,163.5 176.4,179.6 193.5,174.8 	"/>
	<path fill="#9E3B2E" d="M239.5,356.9c4.3,6.8,17.1-4.8,17.1-4.8l2.2-8l-14.1-5.4C244.6,338.7,235.2,350.2,239.5,356.9z"/>
	<path fill="#9E3B2E" d="M342.9,190.8l2.2-8l-14.6-3.3c0,0-8.9,9.3-4.7,16.1C330,202.5,342.9,190.8,342.9,190.8z"/>
	<polygon fill="#9E3B2E" points="321.3,174 323.5,166 308.9,162.8 304.2,178.8 	"/>
	<path fill="#9E3B2E" d="M300.9,316.7l2.2,36.1c0,0,6.5,4.3,7.2,2.9c0.8-1.3-2.2-15.4-2.2-15.4l10.5-16.4L300.9,316.7z"/>
	<path fill="#9E3B2E" d="M211.3,319.4c0-2.5-2.7-4.6-6.1-4.6c-3.3,0-9.6-2.5-9.6,0c0,2.5,6.2,9.2,9.6,9.2
		C208.6,324.1,211.3,322,211.3,319.4z"/>
	<path fill="#9E3B2E" d="M157.2,242c3.3,0,6.1-2.1,6.1-4.6c0-2.5-2.7-4.6-6.1-4.6c-3.3,0-9.6-2.5-9.6,0
		C147.6,235.3,153.9,242,157.2,242z"/>
	<path fill="#9E3B2E" d="M298.7,167.1c2.5,0.5,5.1-1.7,5.8-5c0.7-3.3,4.5-8.8,2-9.4s-10.3,4.2-11,7.5
		C294.7,163.5,296.2,166.5,298.7,167.1z"/>
	<path fill="#9E3B2E" d="M202.3,167.5c2.5,0.5,5.1-1.7,5.8-5c0.7-3.3,4.5-8.8,2-9.4c-2.5-0.5-10.3,4.2-11,7.5
		C198.3,163.9,199.8,167,202.3,167.5z"/>
	<path fill="#9E3B2E" d="M357.4,257.8c-3.3,0-9.6-2.5-9.6,0s6.2,9.2,9.6,9.2s6.1-2.1,6.1-4.6C363.4,259.8,360.7,257.8,357.4,257.8z"
		/>
	<path fill="#9E3B2E" d="M245.1,170.8l12.1-10.9V149l-24.1,10.9c2.4,3.8,12.1,3.8,12.1,3.8V170.8z"/>
	<path fill="#9E3B2E" d="M222.7,163.7l-11.4,7.1c0,0,23.2,21.3,21.8,12.8C231.7,175.1,222.7,163.7,222.7,163.7z"/>
	<path fill="#9E3B2E" d="M289,185.6c0,0,8.3-2.8,1.5-10.9c-6.8-8.1-10.5,2.3-10.5,2.3L289,185.6z"/>
	<path fill="#9E3B2E" d="M229.4,145.6c-6.8-8.1-10.5,2.3-10.5,2.3l9,8.6C227.9,156.6,236.2,153.7,229.4,145.6z"/>
	<path fill="#9E3B2E" d="M191.1,191c10.1,3,7.4-7.7,7.4-7.7l-12.2-2.3C186.3,181.1,180.9,188,191.1,191z"/>
	<path fill="#9E3B2E" d="M307.3,254.8l9,8.6c0,0,11-7.4,4.2-15.5C313.6,239.9,307.3,254.8,307.3,254.8z"/>
	<path fill="#9E3B2E" d="M245.1,316.3c-12.8,7.3,0,18.3,0,18.3l21.5-14.7l-16.6-20.7L245.1,316.3z"/>
	<path fill="#9E3B2E" d="M334.8,264.5c-11.8-0.9-11.4,9.6-11.4,9.6l4.3,13.1l12.3-8.8C340,278.4,346.7,265.5,334.8,264.5z"/>
	<path fill="#9E3B2E" d="M145,210.1v-3.9h-13.3c0,0,0,17.1,6.6,19.3C145,227.7,145,210.1,145,210.1z"/>
</g>
</svg>
