<?xml version="1.0" encoding="utf-8"?>
<!-- Generator: Adobe Illustrator 17.1.0, SVG Export Plug-In . SVG Version: 6.00 Build 0)  -->
<!DOCTYPE svg PUBLIC "-//W3C//DTD SVG 1.1//EN" "http://www.w3.org/Graphics/SVG/1.1/DTD/svg11.dtd">
<svg version="1.1" id="Layer_1" xmlns="http://www.w3.org/2000/svg" xmlns:xlink="http://www.w3.org/1999/xlink" x="0px" y="0px"
	 viewBox="0 0 500 500" enable-background="new 0 0 500 500" xml:space="preserve">
<path fill="#70AACC" d="M482.1,438.3c0,23.6-19.1,42.8-42.8,42.8H60.3c-23.6,0-42.8-19.1-42.8-42.8V59.3c0-23.6,19.1-42.8,42.8-42.8
	h379.1c23.6,0,42.8,19.1,42.8,42.8V438.3z"/>
<path fill="#3A87AF" d="M429.5,237.8c0,0,7.8,78.1-57.3,137.3c-65.1,59.2-152.3,48.2-152.3,48.2l57,57h161.5
	c23.6,0,42.8-19.1,42.8-42.8V289.5L429.5,237.8z"/>
<path fill="#3A87AF" d="M200.5,263.3c0-33.9,27.5-61.4,61.4-61.4c14.9,0,28.6,5.3,39.2,14.2c-10.5-18.7-30.5-31.3-53.5-31.3
	c-33.9,0-61.4,27.5-61.4,61.4c0,19,8.6,35.9,22.2,47.2C203.4,284.5,200.5,274.3,200.5,263.3z"/>
<path fill="#CCA176" d="M253,72.6c-97.3,0-176.2,78.9-176.2,176.2S155.7,425,253,425s176.2-78.9,176.2-176.2S350.3,72.6,253,72.6z
	 M253,308.7c-33.1,0-59.9-26.8-59.9-59.9c0-33.1,26.8-59.9,59.9-59.9c33.1,0,59.9,26.8,59.9,59.9C312.9,281.9,286.1,308.7,253,308.7
	z"/>
<path fill="#80C393" d="M395.3,202.5c-5.1-15.8-1.1-36.3-10.7-49.4c-9.6-13.2-30.5-15.8-43.7-25.4c-13.1-9.5-21.9-28.6-37.7-33.7
	c-15.2-4.9-33.4,5.2-50.3,5.2c-16.8,0-35.1-10.1-50.3-5.2c-15.8,5.1-24.5,24.2-37.7,33.7c-13.2,9.6-34.1,12.2-43.7,25.4
	c-9.5,13.1-5.6,33.6-10.7,49.4c-4.9,15.2-20.4,29.4-20.4,46.3c0,16.8,15.4,31,20.4,46.3c5.1,15.8,1.1,36.3,10.7,49.4
	c9.6,13.2,30.5,15.8,43.7,25.4c13.1,9.5,21.9,28.6,37.7,33.7c15.2,4.9,33.4-5.2,50.3-5.2c16.8,0,35.1,10.1,50.3,5.2
	c15.8-5.1,24.5-24.2,37.7-33.7c13.2-9.6,34.1-12.2,43.7-25.4c9.5-13.1,5.6-33.6,10.7-49.4c4.9-15.2,20.4-29.4,20.4-46.3
	C415.7,231.9,400.3,217.7,395.3,202.5z M253,308.7c-33.1,0-59.9-26.8-59.9-59.9c0-33.1,26.8-59.9,59.9-59.9
	c33.1,0,59.9,26.8,59.9,59.9C312.9,281.9,286.1,308.7,253,308.7z"/>
<path fill="#7AB98C" d="M295.9,348c-81.6,0-147.7-66.1-147.7-147.7c0-27.7,7.6-53.6,20.9-75.8c-1.5,1.5-3.1,2.8-4.8,4
	c-13.2,9.6-34.1,12.2-43.7,25.4c-9.5,13.1-5.6,33.6-10.7,49.4c-4.9,15.2-20.4,29.4-20.4,46.3c0,16.8,15.4,31,20.4,46.3
	c5.1,15.8,1.1,36.3,10.7,49.4c9.6,13.2,30.5,15.8,43.7,25.4c13.1,9.5,21.9,28.6,37.7,33.7c15.2,4.9,33.4-5.2,50.3-5.2
	c16.8,0,35.1,10.1,50.3,5.2c15.8-5.1,24.5-24.2,37.7-33.7c13.2-9.6,34.1-12.2,43.7-25.4c6.4-8.8,6.7-20.9,7.8-32.6
	C365.9,334.7,332.5,348,295.9,348z"/>
<path fill="#FFFFFF" d="M158.5,200.8c1.4,1.8,1,4.4-0.8,5.8l0,0c-1.8,1.4-4.4,1-5.8-0.8l-14.7-19.1c-1.4-1.8-1-4.4,0.8-5.8l0,0
	c1.8-1.4,4.4-1,5.8,0.8L158.5,200.8z"/>
<path fill="#FFFFFF" d="M162.9,334.4c1.4,1.8,1,4.4-0.8,5.8l0,0c-1.8,1.4-4.4,1-5.8-0.8l-14.7-19.1c-1.4-1.8-1-4.4,0.8-5.8l0,0
	c1.8-1.4,4.4-1,5.8,0.8L162.9,334.4z"/>
<path fill="#FFFFFF" d="M305.2,378.9c1.4,1.8,1,4.4-0.8,5.8l0,0c-1.8,1.4-4.4,1-5.8-0.8L284,364.8c-1.4-1.8-1-4.4,0.8-5.8l0,0
	c1.8-1.4,4.4-1,5.8,0.8L305.2,378.9z"/>
<path fill="#FFFFFF" d="M370.3,172.5c1.9-0.4,3.7,0.8,4.1,2.6l0,0c0.4,1.9-0.8,3.7-2.6,4.1l-19.7,4.2c-1.9,0.4-3.7-0.8-4.1-2.6l0,0
	c-0.4-1.9,0.8-3.7,2.6-4.1L370.3,172.5z"/>
<path fill="#FFFFFF" d="M234.3,166.9c1.9-0.4,3.7,0.8,4.1,2.6l0,0c0.4,1.9-0.8,3.7-2.6,4.1l-19.7,4.2c-1.9,0.4-3.7-0.8-4.1-2.6l0,0
	c-0.4-1.9,0.8-3.7,2.6-4.1L234.3,166.9z"/>
<path fill="#FFFFFF" d="M301.3,168.1c-0.5,1.8-2.3,2.9-4.2,2.5l0,0c-1.8-0.5-2.9-2.3-2.5-4.2l5-19.5c0.5-1.8,2.3-2.9,4.2-2.5l0,0
	c1.8,0.5,2.9,2.3,2.5,4.2L301.3,168.1z"/>
<path fill="#FFFFFF" d="M344.7,340.3c-1.3,1.3-3.5,1.3-4.8,0l0,0c-1.3-1.3-1.3-3.5,0-4.8l14.2-14.2c1.3-1.3,3.5-1.3,4.8,0l0,0
	c1.3,1.3,1.3,3.5,0,4.8L344.7,340.3z"/>
<path fill="#FFFFFF" d="M231,336.9c-1.3,1.3-3.5,1.3-4.8,0l0,0c-1.3-1.3-1.3-3.5,0-4.8l14.2-14.2c1.3-1.3,3.5-1.3,4.8,0l0,0
	c1.3,1.3,1.3,3.5,0,4.8L231,336.9z"/>
<path fill="#FFFFFF" d="M225,381.4c0.2,1.9-1.1,3.6-3,3.8l0,0c-1.9,0.2-3.6-1.1-3.8-3l-2.4-20c-0.2-1.9,1.1-3.6,3-3.8l0,0
	c1.9-0.2,3.6,1.1,3.8,3L225,381.4z"/>
<path fill="#FFFFFF" d="M328.3,309.8c0.2,1.9-1.1,3.6-3,3.8l0,0c-1.9,0.2-3.6-1.1-3.8-3l-2.4-20c-0.2-1.9,1.1-3.6,3-3.8l0,0
	c1.9-0.2,3.6,1.1,3.8,3L328.3,309.8z"/>
<path fill="#FFFFFF" d="M147.6,279.9c-1.3,1.3-3.5,1.3-4.8,0l0,0c-1.3-1.3-1.3-3.5,0-4.8l14.2-14.2c1.3-1.3,3.5-1.3,4.8,0l0,0
	c1.3,1.3,1.3,3.5,0,4.8L147.6,279.9z"/>
<path fill="#FFFFFF" d="M199.2,144.6c-1.3,1.3-3.5,1.3-4.8,0l0,0c-1.3-1.3-1.3-3.5,0-4.8l14.2-14.2c1.3-1.3,3.5-1.3,4.8,0l0,0
	c1.3,1.3,1.3,3.5,0,4.8L199.2,144.6z"/>
<path fill="#FFFFFF" d="M339,248.1c-1.9-0.2-3.2-2-3-3.8l0,0c0.2-1.9,2-3.2,3.8-3l19.9,2.5c1.9,0.2,3.2,2,3,3.8l0,0
	c-0.2,1.9-2,3.2-3.8,3L339,248.1z"/>
</svg>
