<?xml version="1.0" encoding="utf-8"?>
<!-- Generator: Adobe Illustrator 17.1.0, SVG Export Plug-In . SVG Version: 6.00 Build 0)  -->
<!DOCTYPE svg PUBLIC "-//W3C//DTD SVG 1.1//EN" "http://www.w3.org/Graphics/SVG/1.1/DTD/svg11.dtd">
<svg version="1.1" id="Layer_1" xmlns="http://www.w3.org/2000/svg" xmlns:xlink="http://www.w3.org/1999/xlink" x="0px" y="0px"
	 viewBox="0 0 640 640" style="enable-background:new 0 0 640 640;" xml:space="preserve">
<style type="text/css">
	.st0{fill:#70AACC;}
	.st1{fill:#3A87AF;}
	.st2{fill:#FFFFFF;}
	.st3{fill:#CCA176;}
	.st4{fill:#80C393;}
	.st5{fill:#7AB98C;}
</style>
<path class="st0" d="M617.1,561c0,30.2-24.4,54.8-54.8,54.8H77.2c-30.2,0-54.8-24.4-54.8-54.8V75.9c0-30.2,24.4-54.8,54.8-54.8
	h485.2c30.2,0,54.8,24.4,54.8,54.8V561H617.1z"/>
<path class="st1" d="M549.8,304.4c0,0,10,100-73.3,175.7s-194.9,61.7-194.9,61.7l73,73h206.7c30.2,0,54.8-24.4,54.8-54.8V370.6
	L549.8,304.4z"/>
<path class="st1" d="M256.6,337c0-43.4,35.2-78.6,78.6-78.6c19.1,0,36.6,6.8,50.2,18.2c-13.4-23.9-39-40.1-68.5-40.1
	c-43.4,0-78.6,35.2-78.6,78.6c0,24.3,11,46,28.4,60.4C260.4,364.2,256.6,351.1,256.6,337z"/>
<path class="st2" d="M-471.2,142.4c2.2-1.6,5.3-1,6.9,1.2l0,0c1.6,2.2,1,5.3-1.2,6.9l-23.8,16.6c-2.2,1.6-5.3,1-6.9-1.2l0,0
	c-1.6-2.2-1-5.3,1.2-6.9L-471.2,142.4z"/>
<path class="st3" d="M317.8,82.4C188.8,82.4,84.2,187,84.2,316s104.6,233.6,233.6,233.6S551.4,445.1,551.4,316
	S446.8,82.4,317.8,82.4z M317.8,395.5c-43.9,0-79.5-35.6-79.5-79.5s35.6-79.5,79.5-79.5s79.5,35.6,79.5,79.5
	S361.7,395.5,317.8,395.5z"/>
<path class="st4" d="M506.6,254.7c-6.8-20.9-1.5-48.1-14.2-65.5c-12.8-17.6-40.4-20.9-58-33.7c-17.4-12.7-29-38-49.9-44.7
	c-20.2-6.5-44.4,6.9-66.7,6.9c-22.3,0-46.5-13.4-66.7-6.9c-20.9,6.8-32.5,32.1-49.9,44.7c-17.6,12.8-45.2,16.1-58,33.7
	c-12.7,17.4-7.4,44.6-14.2,65.5c-6.5,20.2-27,39-27,61.3c0,22.3,20.5,41.2,27,61.3c6.8,20.9,1.5,48.1,14.2,65.5
	c12.8,17.6,40.4,20.9,58,33.7c17.4,12.7,29,38,49.9,44.7c20.2,6.5,44.4-6.9,66.7-6.9c22.3,0,46.5,13.4,66.7,6.9
	c20.9-6.8,32.5-32.1,49.9-44.7c17.6-12.8,45.2-16.1,58-33.7c12.7-17.4,7.4-44.6,14.2-65.5c6.5-20.2,27-39,27-61.3
	C533.6,293.7,513.1,274.9,506.6,254.7z M317.8,395.5c-43.9,0-79.5-35.6-79.5-79.5c0-43.9,35.6-79.5,79.5-79.5s79.5,35.6,79.5,79.5
	C397.3,359.9,361.7,395.5,317.8,395.5z"/>
<path class="st5" d="M374.7,447.6c-108.2,0-195.8-87.7-195.8-195.8c0-36.7,10.1-71.1,27.7-100.5c-2,1.9-4.1,3.7-6.3,5.3
	c-17.6,12.8-45.2,16.1-58,33.7c-12.7,17.4-7.4,44.6-14.2,65.5c-6.5,20.2-27,39-27,61.3c0,22.3,20.5,41.2,27,61.3
	c6.8,20.9,1.5,48.1,14.2,65.5c12.8,17.6,40.4,20.9,58,33.7c17.4,12.7,29,38,49.9,44.7c20.2,6.5,44.4-6.9,66.7-6.9
	c22.3,0,46.5,13.4,66.7,6.9c20.9-6.8,32.5-32.1,49.9-44.7c17.6-12.8,45.2-16.1,58-33.7c8.5-11.6,8.9-27.7,10.3-43.2
	C467.6,429.9,423.2,447.6,374.7,447.6z"/>
<g>
	<path class="st2" d="M192.5,252.4c1.8,2.4,1.4,5.8-1,7.6l0,0c-2.4,1.8-5.8,1.4-7.6-1l-19.5-25.4c-1.8-2.4-1.4-5.8,1-7.6l0,0
		c2.4-1.8,5.8-1.4,7.6,1L192.5,252.4z"/>
	<path class="st2" d="M198.3,429.5c1.8,2.4,1.4,5.8-1,7.6l0,0c-2.4,1.8-5.8,1.4-7.6-1l-19.5-25.4c-1.8-2.4-1.4-5.8,1-7.6l0,0
		c2.4-1.8,5.8-1.4,7.6,1L198.3,429.5z"/>
	<path class="st2" d="M387,488.6c1.8,2.4,1.4,5.8-1,7.6l0,0c-2.4,1.8-5.8,1.4-7.6-1l-19.5-25.4c-1.8-2.4-1.4-5.8,1-7.6l0,0
		c2.4-1.8,5.8-1.4,7.6,1L387,488.6z"/>
	<path class="st2" d="M473.4,214.9c2.5-0.5,4.9,1,5.4,3.5l0,0c0.5,2.5-1,4.9-3.5,5.4l-26.1,5.6c-2.5,0.5-4.9-1-5.4-3.5l0,0
		c-0.5-2.5,1-4.9,3.5-5.4L473.4,214.9z"/>
	<path class="st2" d="M293,207.5c2.5-0.5,4.9,1,5.4,3.5l0,0c0.5,2.5-1,4.9-3.5,5.4l-26.1,5.6c-2.5,0.5-4.9-1-5.4-3.5l0,0
		c-0.5-2.5,1-4.9,3.5-5.4L293,207.5z"/>
	<path class="st2" d="M381.9,209.1c-0.6,2.4-3.1,3.9-5.5,3.3l0,0c-2.4-0.6-3.9-3.1-3.3-5.5l6.7-25.8c0.6-2.4,3.1-3.9,5.5-3.3l0,0
		c2.4,0.6,3.9,3.1,3.3,5.5L381.9,209.1z"/>
	<path class="st2" d="M439.4,437.4c-1.8,1.8-4.6,1.8-6.4,0l0,0c-1.8-1.8-1.8-4.6,0-6.4l18.8-18.9c1.8-1.8,4.6-1.8,6.4,0l0,0
		c1.8,1.8,1.8,4.6,0,6.4L439.4,437.4z"/>
	<path class="st2" d="M288.7,432.8c-1.8,1.8-4.6,1.8-6.4,0l0,0c-1.8-1.8-1.8-4.6,0-6.4l18.8-18.9c1.8-1.8,4.6-1.8,6.4,0l0,0
		c1.8,1.8,1.8,4.6,0,6.4L288.7,432.8z"/>
	<path class="st2" d="M280.7,491.9c0.3,2.5-1.5,4.7-4,5l0,0c-2.5,0.3-4.7-1.5-5-4l-3.1-26.5c-0.3-2.5,1.5-4.7,4-5l0,0
		c2.5-0.3,4.7,1.5,5,4L280.7,491.9z"/>
	<path class="st2" d="M417.7,397c0.3,2.5-1.5,4.7-4,5l0,0c-2.5,0.3-4.7-1.5-5-4l-3.1-26.5c-0.3-2.5,1.5-4.7,4-5l0,0
		c2.5-0.3,4.7,1.5,5,4L417.7,397z"/>
	<path class="st2" d="M178.1,357.2c-1.8,1.8-4.6,1.8-6.4,0l0,0c-1.8-1.8-1.8-4.6,0-6.4l18.8-18.9c1.8-1.8,4.6-1.8,6.4,0l0,0
		c1.8,1.8,1.8,4.6,0,6.4L178.1,357.2z"/>
	<path class="st2" d="M246.4,177.9c-1.8,1.8-4.6,1.8-6.4,0l0,0c-1.8-1.8-1.8-4.6,0-6.4l18.8-18.9c1.8-1.8,4.6-1.8,6.4,0l0,0
		c1.8,1.8,1.8,4.6,0,6.4L246.4,177.9z"/>
	<path class="st2" d="M431.8,315.2c-2.5-0.3-4.2-2.6-3.9-5.1l0,0c0.3-2.5,2.6-4.2,5.1-3.9l26.4,3.4c2.5,0.3,4.2,2.6,3.9,5.1l0,0
		c-0.3,2.5-2.6,4.2-5.1,3.9L431.8,315.2z"/>
</g>
</svg>
