<?xml version="1.0" encoding="utf-8"?>
<!-- Generator: Adobe Illustrator 17.1.0, SVG Export Plug-In . SVG Version: 6.00 Build 0)  -->
<!DOCTYPE svg PUBLIC "-//W3C//DTD SVG 1.1//EN" "http://www.w3.org/Graphics/SVG/1.1/DTD/svg11.dtd">
<svg version="1.1" id="Layer_1" xmlns="http://www.w3.org/2000/svg" xmlns:xlink="http://www.w3.org/1999/xlink" x="0px" y="0px"
	 viewBox="0 0 640 640" style="enable-background:new 0 0 640 640;" xml:space="preserve">
<style type="text/css">
	.st0{fill:#70AACC;}
	.st1{fill:#3A87AF;}
	.st2{fill:#CCA176;}
	.st3{fill:#FFDF63;}
	.st4{fill:#EECE5C;}
</style>
<path class="st0" d="M617.1,561c0,30.2-24.4,54.8-54.8,54.8H77.2c-30.2,0-54.8-24.4-54.8-54.8V75.9c0-30.2,24.4-54.8,54.8-54.8
	h485.2c30.2,0,54.8,24.4,54.8,54.8V561H617.1z"/>
<path class="st1" d="M549.8,304.4c0,0,10,100-73.3,175.7s-194.9,61.7-194.9,61.7l73,73h206.7c30.2,0,54.8-24.4,54.8-54.8V370.6
	L549.8,304.4z"/>
<path class="st1" d="M256.6,337c0-43.4,35.2-78.6,78.6-78.6c19.1,0,36.6,6.8,50.2,18.2c-13.4-23.9-39-40.1-68.5-40.1
	c-43.4,0-78.6,35.2-78.6,78.6c0,24.3,11,46,28.4,60.4C260.4,364.2,256.6,351.1,256.6,337z"/>
<path class="st2" d="M318.5,82.4C190,82.4,85.8,186.6,85.8,315.3S190,548,318.5,548s232.7-104.2,232.7-232.7S447,82.4,318.5,82.4z
	 M318.5,394.4c-43.8,0-79.2-35.5-79.2-79.2s35.5-79.2,79.2-79.2s79.2,35.5,79.2,79.2C397.7,358.9,362.2,394.4,318.5,394.4z"/>
<path class="st3" d="M506.5,254.1c-6.8-20.9-1.5-48-14.1-65.3c-12.7-17.5-40.2-20.9-57.7-33.5c-17.3-12.7-28.9-37.8-49.8-44.5
	c-20.1-6.5-44.2,6.8-66.4,6.8s-46.3-13.3-66.4-6.8c-20.9,6.8-32.4,32-49.8,44.5c-17.5,12.7-45.1,16.1-57.7,33.5
	c-12.7,17.3-7.4,44.4-14.1,65.3c-6.5,20.1-26.9,38.8-26.9,61.1s20.4,41,26.9,61.1c6.8,20.9,1.5,48,14.1,65.3
	c12.7,17.5,40.2,20.9,57.7,33.5c17.3,12.7,28.9,37.8,49.8,44.5c20.1,6.5,44.2-6.8,66.4-6.8s46.3,13.3,66.4,6.8
	c20.9-6.8,32.4-32,49.8-44.5c17.5-12.7,45.1-16.1,57.7-33.5c12.7-17.3,7.4-44.4,14.1-65.3c6.5-20.1,26.9-38.8,26.9-61.1
	C533.4,293,513,274.2,506.5,254.1z M318.5,394.4c-43.8,0-79.2-35.5-79.2-79.2s35.5-79.2,79.2-79.2s79.2,35.5,79.2,79.2
	S362.2,394.4,318.5,394.4z"/>
<path class="st4" d="M375.2,446.2c-107.8,0-195.1-87.3-195.1-195.1c0-36.6,10.1-70.8,27.6-100.1c-2,1.9-4.1,3.7-6.3,5.2
	c-17.5,12.7-45.1,16.1-57.7,33.5c-12.7,17.3-7.4,44.4-14.1,65.3c-6.5,20.1-26.9,38.8-26.9,61.1c0,22.3,20.4,41,26.9,61.1
	c6.8,20.9,1.5,48,14.1,65.3c12.7,17.5,40.2,20.9,57.7,33.5c17.3,12.7,28.9,37.8,49.8,44.5c20.1,6.5,44.2-6.8,66.4-6.8
	c22.3,0,46.3,13.3,66.4,6.8c20.9-6.8,32.4-32,49.8-44.5c17.5-12.7,45.1-16.1,57.7-33.5c8.4-11.5,8.8-27.5,10.2-43.1
	C467.6,428.7,423.4,446.2,375.2,446.2z"/>
<circle cx="238.8" cy="236.5" r="6.3"/>
<circle cx="349.5" cy="204.3" r="6.3"/>
<circle cx="508.2" cy="343" r="6.3"/>
<circle cx="362" cy="428" r="6.3"/>
<circle cx="205" cy="387" r="6.3"/>
<circle cx="226.3" cy="304.4" r="6.3"/>
<circle cx="442.4" cy="298.1" r="6.3"/>
<circle cx="156" cy="298.1" r="6.3"/>
<circle cx="260" cy="459.6" r="6.3"/>
<circle cx="448.7" cy="393.3" r="6.3"/>
<circle cx="287.7" cy="184.5" r="6.3"/>
<circle cx="414.3" cy="204.3" r="6.3"/>
<circle cx="401.7" cy="259" r="6.3"/>
<circle cx="414.3" cy="362" r="6.3"/>
<circle cx="429.9" cy="447" r="6.3"/>
<circle cx="355.7" cy="488.3" r="6.3"/>
<circle cx="294" cy="405" r="6.3"/>
<circle cx="232.5" cy="157.3" r="6.3"/>
<circle cx="182" cy="210.5" r="6.3"/>
<circle cx="343.2" cy="151" r="6.3"/>
<circle cx="475" cy="265.3" r="6.3"/>
<circle cx="162.3" cy="380.7" r="6.3"/>
<circle cx="220" cy="434.3" r="6.3"/>
</svg>
