<?xml version="1.0" encoding="utf-8"?>
<!-- Generator: Adobe Illustrator 17.1.0, SVG Export Plug-In . SVG Version: 6.00 Build 0)  -->
<!DOCTYPE svg PUBLIC "-//W3C//DTD SVG 1.1//EN" "http://www.w3.org/Graphics/SVG/1.1/DTD/svg11.dtd">
<svg version="1.1" id="Layer_1" xmlns="http://www.w3.org/2000/svg" xmlns:xlink="http://www.w3.org/1999/xlink" x="0px" y="0px"
	 viewBox="0 0 10 10" enable-background="new 0 0 10 10" xml:space="preserve">
<g>
	<path fill="#3B97D3" d="M3.8,5.9c-1.5,0-2.7-1.2-2.7-2.7s1.2-2.7,2.7-2.7s2.7,1.2,2.7,2.7S5.3,5.9,3.8,5.9z M3.8,1.3
		c-1.1,0-1.9,0.9-1.9,1.9s0.9,1.9,1.9,1.9s1.9-0.9,1.9-1.9S4.9,1.3,3.8,1.3z"/>
</g>
<path fill="#3B97D3" d="M7.3,6.1C7.1,5.8,6.7,5.6,6.4,5.7L5.6,4.8L4.8,5.4l0.8,0.9C5.5,6.6,5.5,7,5.8,7.3l1.6,2
	c0.4,0.4,1,0.5,1.4,0.2c0.4-0.3,0.5-1,0.1-1.4L7.3,6.1z"/>
</svg>
