<?xml version="1.0" encoding="utf-8"?>
<!-- Generator: Adobe Illustrator 17.1.0, SVG Export Plug-In . SVG Version: 6.00 Build 0)  -->
<!DOCTYPE svg PUBLIC "-//W3C//DTD SVG 1.1//EN" "http://www.w3.org/Graphics/SVG/1.1/DTD/svg11.dtd">
<svg version="1.1" id="Layer_1" xmlns="http://www.w3.org/2000/svg" xmlns:xlink="http://www.w3.org/1999/xlink" x="0px" y="0px"
	 viewBox="0 0 500 500" enable-background="new 0 0 500 500" xml:space="preserve">
<path fill="#70AACC" d="M482.1,438.3c0,23.6-19.1,42.8-42.8,42.8H60.3c-23.6,0-42.8-19.1-42.8-42.8V59.3c0-23.6,19.1-42.8,42.8-42.8
	h379.1c23.6,0,42.8,19.1,42.8,42.8V438.3z"/>
<path fill="#3A87AF" d="M429.5,237.8c0,0,7.8,78.1-57.3,137.3c-65.1,59.2-152.3,48.2-152.3,48.2l57,57h161.5
	c23.6,0,42.8-19.1,42.8-42.8V289.5L429.5,237.8z"/>
<path fill="#3A87AF" d="M200.5,263.3c0-33.9,27.5-61.4,61.4-61.4c14.9,0,28.6,5.3,39.2,14.2c-10.5-18.7-30.5-31.3-53.5-31.3
	c-33.9,0-61.4,27.5-61.4,61.4c0,19,8.6,35.9,22.2,47.2C203.4,284.5,200.5,274.3,200.5,263.3z"/>
<path fill="#CCA176" d="M247.6,65.6C147.9,65.6,67,146.5,67,246.2s80.9,180.6,180.6,180.6S428.2,346,428.2,246.2
	S347.4,65.6,247.6,65.6z M247.6,307.7c-33.9,0-61.5-27.5-61.5-61.5s27.5-61.5,61.5-61.5s61.5,27.5,61.5,61.5
	S281.6,307.7,247.6,307.7z"/>
<path fill="#F06589" d="M393.5,198.8c-5.2-16.2-1.2-37.2-11-50.6c-9.9-13.6-31.2-16.2-44.8-26c-13.4-9.8-22.4-29.3-38.6-34.6
	c-15.6-5.1-34.3,5.3-51.6,5.3c-17.3,0-36-10.4-51.6-5.3c-16.2,5.2-25.2,24.8-38.6,34.6c-13.6,9.9-34.9,12.5-44.8,26
	c-9.8,13.4-5.7,34.5-11,50.6c-5.1,15.6-20.9,30.1-20.9,47.4c0,17.3,15.8,31.8,20.9,47.4c5.2,16.2,1.2,37.2,11,50.6
	c9.9,13.6,31.2,16.2,44.8,26c13.4,9.8,22.4,29.3,38.6,34.6c15.6,5.1,34.3-5.3,51.6-5.3c17.3,0,36,10.4,51.6,5.3
	c16.2-5.2,25.2-24.8,38.6-34.6c13.6-9.9,34.9-12.5,44.8-26c9.8-13.4,5.7-34.5,11-50.6c5.1-15.6,20.9-30.1,20.9-47.4
	C414.4,229,398.6,214.4,393.5,198.8z M247.6,307.7c-33.9,0-61.5-27.5-61.5-61.5c0-33.9,27.5-61.5,61.5-61.5s61.5,27.5,61.5,61.5
	C309.1,280.2,281.6,307.7,247.6,307.7z"/>
<path fill="#ED4C7E" d="M291.6,347.9c-83.6,0-151.4-67.8-151.4-151.4c0-28.4,7.8-55,21.4-77.7c-1.6,1.5-3.2,2.9-4.9,4.1
	c-13.6,9.9-34.9,12.5-44.8,26c-9.8,13.4-5.7,34.5-11,50.6c-5.1,15.6-20.9,30.1-20.9,47.4c0,17.3,15.8,31.8,20.9,47.4
	c5.2,16.2,1.2,37.2,11,50.6c9.9,13.6,31.2,16.2,44.8,26c13.4,9.8,22.4,29.3,38.6,34.6c15.6,5.1,34.3-5.3,51.6-5.3
	c17.3,0,36,10.4,51.6,5.3c16.2-5.2,25.2-24.8,38.6-34.6c13.6-9.9,34.9-12.5,44.8-26c6.5-9,6.9-21.4,8-33.4
	C363.4,334.3,329.1,347.9,291.6,347.9z"/>
<path fill="#FFFFFF" d="M367.9,168c1.9-0.4,3.8,0.8,4.2,2.7l0,0c0.4,1.9-0.8,3.8-2.7,4.2l-20.2,4.3c-1.9,0.4-3.8-0.8-4.2-2.7l0,0
	c-0.4-1.9,0.8-3.8,2.7-4.2L367.9,168z"/>
<path fill="#4FBB85" d="M228.5,162.3c1.9-0.4,3.8,0.8,4.2,2.7l0,0c0.4,1.9-0.8,3.8-2.7,4.2l-20.2,4.3c-1.9,0.4-3.8-0.8-4.2-2.7l0,0
	c-0.4-1.9,0.8-3.8,2.7-4.2L228.5,162.3z"/>
<path fill="#FFFFFF" d="M179.9,149.1c1.5-1.2,3.7-1,5,0.5l0,0c1.2,1.5,1,3.7-0.5,5l-15.9,13.2c-1.5,1.2-3.7,1-5-0.5l0,0
	c-1.2-1.5-1-3.7,0.5-5L179.9,149.1z"/>
<path fill="#FFFFFF" d="M129.3,232.2c1.9-0.4,3.8,0.8,4.2,2.7l0,0c0.4,1.9-0.8,3.8-2.7,4.2l-20.2,4.3c-1.9,0.4-3.8-0.8-4.2-2.7l0,0
	c-0.4-1.9,0.8-3.8,2.7-4.2L129.3,232.2z"/>
<path fill="#FFFFFF" d="M250.4,116.1c-1.6-1.1-2.1-3.2-1-4.9l0,0c1.1-1.6,3.2-2.1,4.9-1l17.2,11.4c1.6,1.1,2.1,3.2,1,4.9l0,0
	c-1.1,1.6-3.2,2.1-4.9,1L250.4,116.1z"/>
<g>
	<path fill="#FFDA40" d="M150.7,197.1c1.4,1.8,1.1,4.5-0.8,5.9l0,0c-1.8,1.4-4.5,1.1-5.9-0.8l-15.1-19.6c-1.4-1.8-1.1-4.5,0.8-5.9
		l0,0c1.8-1.4,4.5-1.1,5.9,0.8L150.7,197.1z"/>
	<path fill="#FFDA40" d="M155.3,334c1.4,1.8,1.1,4.5-0.8,5.9l0,0c-1.8,1.4-4.5,1.1-5.9-0.8l-15.1-19.6c-1.4-1.8-1.1-4.5,0.8-5.9l0,0
		c1.8-1.4,4.5-1.1,5.9,0.8L155.3,334z"/>
	<path fill="#FFDA40" d="M301.1,379.7c1.4,1.8,1.1,4.5-0.8,5.9l0,0c-1.8,1.4-4.5,1.1-5.9-0.8l-15.1-19.6c-1.4-1.8-1.1-4.5,0.8-5.9
		l0,0c1.8-1.4,4.5-1.1,5.9,0.8L301.1,379.7z"/>
	<path fill="#FFDA40" d="M297.2,163.5c-0.5,1.9-2.4,3-4.3,2.5l0,0c-1.9-0.5-3-2.4-2.5-4.3l5.2-20c0.5-1.9,2.4-3,4.3-2.5l0,0
		c1.9,0.5,3,2.4,2.5,4.3L297.2,163.5z"/>
	<path fill="#FFDA40" d="M373.7,235.1c-1.6-1.1-2.1-3.2-1-4.9l0,0c1.1-1.6,3.2-2.1,4.9-1l17.2,11.4c1.6,1.1,2.1,3.2,1,4.9l0,0
		c-1.1,1.6-3.2,2.1-4.9,1L373.7,235.1z"/>
</g>
<path fill="#FFFFFF" d="M225.1,336.5c-1.4,1.4-3.6,1.4-5,0l0,0c-1.4-1.4-1.4-3.6,0-5l14.6-14.6c1.4-1.4,3.6-1.4,5,0l0,0
	c1.4,1.4,1.4,3.6,0,5L225.1,336.5z"/>
<path fill="#4FBB85" d="M184.5,323.1c-0.1,1.9-1.7,3.5-3.6,3.4l0,0c-1.9-0.1-3.5-1.7-3.4-3.6l0.6-20.6c0.1-1.9,1.7-3.5,3.6-3.4l0,0
	c1.9,0.1,3.5,1.7,3.4,3.6L184.5,323.1z"/>
<path fill="#FFFFFF" d="M324.8,308.8c0.2,1.9-1.1,3.7-3.1,3.9l0,0c-1.9,0.2-3.7-1.1-3.9-3.1l-2.4-20.5c-0.2-1.9,1.1-3.7,3.1-3.9l0,0
	c1.9-0.2,3.7,1.1,3.9,3.1L324.8,308.8z"/>
<path fill="#4FBB85" d="M355.5,298.9c-1.9,0.5-3.8-0.6-4.3-2.5l0,0c-0.5-1.9,0.6-3.8,2.5-4.3l19.9-5.2c1.9-0.5,3.8,0.6,4.3,2.5l0,0
	c0.5,1.9-0.6,3.8-2.5,4.3L355.5,298.9z"/>
<path fill="#4FBB85" d="M329.5,213.4c0.2,1.9-1.1,3.7-3.1,3.9l0,0c-1.9,0.2-3.7-1.1-3.9-3.1l-2.4-20.5c-0.2-1.9,1.1-3.7,3.1-3.9l0,0
	c1.9-0.2,3.7,1.1,3.9,3.1L329.5,213.4z"/>
<g>
	<path fill="#00BEF2" d="M341.7,340.1c-1.4,1.4-3.6,1.4-5,0l0,0c-1.4-1.4-1.4-3.6,0-5l14.6-14.6c1.4-1.4,3.6-1.4,5,0l0,0
		c1.4,1.4,1.4,3.6,0,5L341.7,340.1z"/>
	<path fill="#00BEF2" d="M218.9,382.2c0.2,1.9-1.1,3.7-3.1,3.9l0,0c-1.9,0.2-3.7-1.1-3.9-3.1l-2.4-20.5c-0.2-1.9,1.1-3.7,3.1-3.9
		l0,0c1.9-0.2,3.7,1.1,3.9,3.1L218.9,382.2z"/>
	<path fill="#00BEF2" d="M139.6,278.1c-1.4,1.4-3.6,1.4-5,0l0,0c-1.4-1.4-1.4-3.6,0-5l14.6-14.6c1.4-1.4,3.6-1.4,5,0l0,0
		c1.4,1.4,1.4,3.6,0,5L139.6,278.1z"/>
	<path fill="#00BEF2" d="M184.3,125.9c-1.9-0.2-3.3-2-3-3.9l0,0c0.2-1.9,2-3.3,3.9-3l20.4,2.6c1.9,0.2,3.3,2,3,3.9l0,0
		c-0.2,1.9-2,3.3-3.9,3L184.3,125.9z"/>
	<path fill="#00BEF2" d="M335.8,245.6c-1.9-0.2-3.3-2-3-3.9l0,0c0.2-1.9,2-3.3,3.9-3l20.4,2.6c1.9,0.2,3.3,2,3,3.9l0,0
		c-0.2,1.9-2,3.3-3.9,3L335.8,245.6z"/>
</g>
</svg>
