<?xml version="1.0" encoding="utf-8"?>
<!-- Generator: Adobe Illustrator 17.1.0, SVG Export Plug-In . SVG Version: 6.00 Build 0)  -->
<!DOCTYPE svg PUBLIC "-//W3C//DTD SVG 1.1//EN" "http://www.w3.org/Graphics/SVG/1.1/DTD/svg11.dtd">
<svg version="1.1" id="Layer_1" xmlns="http://www.w3.org/2000/svg" xmlns:xlink="http://www.w3.org/1999/xlink" x="0px" y="0px"
	 viewBox="0 0 500 500" enable-background="new 0 0 500 500" xml:space="preserve">
<path fill="#70AACC" d="M482.1,438.3c0,23.6-19.1,42.8-42.8,42.8H60.3c-23.6,0-42.8-19.1-42.8-42.8V59.3c0-23.6,19.1-42.8,42.8-42.8
	h379.1c23.6,0,42.8,19.1,42.8,42.8V438.3z"/>
<path fill="#3A87AF" d="M429.5,237.8c0,0,7.8,78.1-57.3,137.3c-65.1,59.2-152.3,48.2-152.3,48.2l57,57h161.5
	c23.6,0,42.8-19.1,42.8-42.8V289.5L429.5,237.8z"/>
<path fill="#3A87AF" d="M200.5,263.3c0-33.9,27.5-61.4,61.4-61.4c14.9,0,28.6,5.3,39.2,14.2c-10.5-18.7-30.5-31.3-53.5-31.3
	c-33.9,0-61.4,27.5-61.4,61.4c0,19,8.6,35.9,22.2,47.2C203.4,284.5,200.5,274.3,200.5,263.3z"/>
<path fill="#745639" d="M247.8,65.7c-99.5,0-180.2,80.7-180.2,180.2s80.7,180.2,180.2,180.2S428,345.4,428,245.9
	S347.3,65.7,247.8,65.7z M247.8,307.2c-33.9,0-61.3-27.5-61.3-61.3s27.5-61.3,61.3-61.3s61.3,27.5,61.3,61.3
	S281.7,307.2,247.8,307.2z"/>
<path fill="#DDDFE0" d="M393.4,198.6c-5.2-16.1-1.2-37.1-10.9-50.5c-9.9-13.5-31.2-16.1-44.7-26c-13.4-9.8-22.4-29.3-38.5-34.5
	c-15.6-5-34.2,5.3-51.5,5.3c-17.2,0-35.9-10.3-51.5-5.3c-16.1,5.2-25.1,24.7-38.5,34.5c-13.5,9.9-34.8,12.4-44.7,26
	c-9.8,13.4-5.7,34.4-10.9,50.5c-5,15.6-20.8,30.1-20.8,47.3c0,17.2,15.8,31.8,20.8,47.3c5.2,16.1,1.2,37.1,10.9,50.5
	c9.9,13.5,31.2,16.1,44.7,26c13.4,9.8,22.4,29.3,38.5,34.5c15.6,5,34.2-5.3,51.5-5.3c17.2,0,35.9,10.3,51.5,5.3
	c16.1-5.2,25.1-24.7,38.5-34.5c13.5-9.9,34.8-12.4,44.7-26c9.8-13.4,5.7-34.4,10.9-50.5c5-15.6,20.8-30.1,20.8-47.3
	C414.3,228.7,398.5,214.1,393.4,198.6z M247.8,307.2c-33.9,0-61.3-27.5-61.3-61.3c0-33.9,27.5-61.3,61.3-61.3s61.3,27.5,61.3,61.3
	C309.1,279.8,281.7,307.2,247.8,307.2z"/>
<path fill="#C8CACB" d="M292.3,346.8c-83.4,0-151.1-67.6-151.1-151.1c0-28.3,7.8-54.8,21.4-77.5c-1.6,1.5-3.2,2.9-4.9,4.1
	c-13.5,9.9-34.8,12.4-44.7,26c-9.8,13.4-5.7,34.4-10.9,50.5c-5,15.6-20.8,30.1-20.8,47.3c0,17.2,15.8,31.8,20.8,47.3
	c5.2,16.1,1.2,37.1,10.9,50.5c9.9,13.5,31.2,16.1,44.7,26c13.4,9.8,22.4,29.3,38.5,34.5c15.6,5,34.2-5.3,51.5-5.3
	c17.2,0,35.9,10.3,51.5,5.3c16.1-5.2,25.1-24.7,38.5-34.5c13.5-9.9,34.8-12.4,44.7-26c6.5-9,6.9-21.3,8-33.4
	C364,333.2,329.8,346.8,292.3,346.8z"/>
<g>
	<g>
		<polygon fill="#42210B" points="296.1,198.3 302.5,211.8 321,205.1 306.2,188.9 284.1,193.7 285.5,203.6 		"/>
		<polygon fill="#42210B" points="296.5,215.1 318.5,215.1 318.5,227.2 304.7,227.2 286.6,221.2 		"/>
		<polygon fill="#42210B" points="337,231.5 337,249.3 322.8,240.4 329.9,227.2 		"/>
		<polygon fill="#42210B" points="358.4,236 358.4,253.8 344.1,244.9 351.3,231.8 		"/>
		<polygon fill="#42210B" points="186.3,273.8 185.7,287.8 208.7,281.2 193.8,265 171.7,269.8 176.6,276.4 		"/>
		<polygon fill="#42210B" points="184.2,291.2 206.2,291.2 206.2,303.3 192.3,303.3 174.2,297.2 		"/>
		<polygon fill="#42210B" points="182,328.8 171.3,318.7 176.9,312.9 183.6,319.2 189.6,330.5 		"/>
		<polygon fill="#42210B" points="289.8,354.2 279.1,344.1 284.6,338.2 291.3,344.6 297.4,355.8 		"/>
		<polygon fill="#42210B" points="224.7,307.6 224.7,325.3 210.5,316.4 217.6,303.3 		"/>
		<polygon fill="#42210B" points="266.4,172.9 266.4,190.7 252.2,181.8 259.3,168.6 		"/>
		<polygon fill="#42210B" points="275.9,147.6 275.9,165.4 261.7,156.5 268.8,143.3 		"/>
		<polygon fill="#42210B" points="346.5,291.5 346.5,309.2 332.3,300.3 339.4,287.2 		"/>
		<polygon fill="#42210B" points="344.1,158.6 344.1,176.4 329.9,167.5 337,154.4 		"/>
		<polygon fill="#42210B" points="220.4,334.7 220.4,352.5 199.8,330.2 213.3,330.5 		"/>
		<polygon fill="#42210B" points="164.5,284.4 164.5,302.2 150.3,293.3 157.4,280.2 		"/>
		<polygon fill="#42210B" points="347.6,212.9 363,215 342.9,225.7 322.8,213.5 334.6,198.3 		"/>
		<polygon fill="#42210B" points="300.9,290.7 290.9,290.5 303.5,310.8 315.1,292.1 304.5,272.1 297.4,275.1 		"/>
		<polygon fill="#42210B" points="287.2,289.9 293.2,311.1 281.6,314.4 277.8,301.1 278.7,282 		"/>
		<polygon fill="#42210B" points="282.5,333.4 265.4,338.2 270.1,322.1 284.7,325.4 		"/>
		<polygon fill="#42210B" points="205,189.3 194.1,199.3 206.7,219.7 218.3,201 207.7,181 202.6,187.4 		"/>
		<polygon fill="#42210B" points="183.5,202.5 189.5,223.8 177.8,227 174,213.7 174.9,194.6 		"/>
		<polygon fill="#42210B" points="154.7,223.6 146.5,212 154.7,198.3 161.3,205 165.6,223.6 		"/>
		<polygon fill="#42210B" points="178.8,246 161.6,250.8 166.3,234.7 180.9,238 		"/>
		<polygon fill="#42210B" points="159.5,265.6 152.9,273.8 142.4,270.5 147.1,254.4 161.6,257.6 		"/>
		<polygon fill="#42210B" points="188.4,172.6 171.3,177.4 176,161.3 190.6,164.6 		"/>
		<path fill="#42210B" d="M251.5,350.2c0,0-12.8,11.6-17.1,4.8s4.7-16.1,4.7-16.1l14.6,3.3L251.5,350.2z"/>
		<path fill="#42210B" d="M338,188.7c0,0-12.8,11.6-17.1,4.8s4.7-16.1,4.7-16.1l14.6,3.3L338,188.7z"/>
		<polygon fill="#42210B" points="316.4,171.8 299.3,176.7 304,160.6 318.5,163.8 		"/>
		<polygon fill="#42210B" points="303.3,338.5 305.5,353.9 298.2,351 296,314.8 313.8,322 		"/>
		<path fill="#42210B" d="M206.2,317.5c0,2.5-2.7,4.6-6.1,4.6c-3.3,0-9.6-6.7-9.6-9.2s6.2,0,9.6,0
			C203.5,312.9,206.2,314.9,206.2,317.5z"/>
	</g>
	<path fill="#42210B" d="M228,157.7l24.2-10.9v10.9l-12.1,10.9v-7.1C240.1,161.5,230.4,161.5,228,157.7z"/>
	<path fill="#42210B" d="M206.2,168.6c0,0,23.2,21.3,21.8,12.8s-10.4-19.9-10.4-19.9L206.2,168.6z"/>
	<path fill="#42210B" d="M275.1,174.8l9,8.7c0,0,8.3-2.8,1.5-11C278.7,164.4,275.1,174.8,275.1,174.8z"/>
	<path fill="#42210B" d="M213.9,145.7l9,8.7c0,0,8.3-2.8,1.5-11C217.5,135.3,213.9,145.7,213.9,145.7z"/>
	<path fill="#42210B" d="M193.4,181.2l-12.3-2.3c0,0-5.3,6.9,4.8,10S193.4,181.2,193.4,181.2z"/>
	<path fill="#42210B" d="M302.3,252.7l9,8.7c0,0,8.3-2.8,1.5-11C306,242.3,302.3,252.7,302.3,252.7z"/>
	<path fill="#42210B" d="M240.1,314.3l5-17.1l16.6,20.7l-21.6,14.7C240.1,332.6,227.3,321.6,240.1,314.3z"/>
	<path fill="#42210B" d="M335.1,276.4c0,0,6.6-13-5.2-13.9c-11.9-0.9-11.4,9.6-11.4,9.6l4.3,13.1L335.1,276.4z"/>
	<path fill="#42210B" d="M139.8,208c0,0,0,17.7-6.6,15.5c-6.6-2.2-6.6-19.3-6.6-19.3h13.3V208z"/>
</g>
<path fill="#471F1A" d="M303.2,271.8c-0.1,0.2-0.1,0.4-0.2,0.6C303.1,272.1,303.1,272,303.2,271.8
	C303.2,271.8,303.2,271.8,303.2,271.8z"/>
<path fill="#471F1A" d="M302.6,273.4c0.2-0.3,0.3-0.7,0.4-1C302.8,272.7,302.7,273,302.6,273.4z"/>
</svg>
