<?xml version="1.0" encoding="utf-8"?>
<!-- Generator: Adobe Illustrator 17.1.0, SVG Export Plug-In . SVG Version: 6.00 Build 0)  -->
<!DOCTYPE svg PUBLIC "-//W3C//DTD SVG 1.1//EN" "http://www.w3.org/Graphics/SVG/1.1/DTD/svg11.dtd">
<svg version="1.1" id="Layer_1" xmlns="http://www.w3.org/2000/svg" xmlns:xlink="http://www.w3.org/1999/xlink" x="0px" y="0px"
	 viewBox="0 0 640 640" style="enable-background:new 0 0 640 640;" xml:space="preserve">
<style type="text/css">
	.st0{fill:#70AACC;}
	.st1{fill:#3A87AF;}
	.st2{fill:#FFFFFF;}
	.st3{fill:#CE7E3C;}
	.st4{fill:#7F5C24;}
	.st5{fill:#A0561F;}
</style>
<path class="st0" d="M617.1,561c0,30.2-24.4,54.8-54.8,54.8H77.2c-30.2,0-54.8-24.4-54.8-54.8V75.9c0-30.2,24.4-54.8,54.8-54.8
	h485.2c30.2,0,54.8,24.4,54.8,54.8V561H617.1z"/>
<path class="st1" d="M549.8,304.4c0,0,10,100-73.3,175.7s-194.9,61.7-194.9,61.7l73,73h206.7c30.2,0,54.8-24.4,54.8-54.8V370.6
	L549.8,304.4z"/>
<path class="st1" d="M256.6,337c0-43.4,35.2-78.6,78.6-78.6c19.1,0,36.6,6.8,50.2,18.2c-13.4-23.9-39-40.1-68.5-40.1
	c-43.4,0-78.6,35.2-78.6,78.6c0,24.3,11,46,28.4,60.4C260.4,364.2,256.6,351.1,256.6,337z"/>
<path class="st2" d="M-471.2,142.4c2.2-1.6,5.3-1,6.9,1.2l0,0c1.6,2.2,1,5.3-1.2,6.9l-23.8,16.6c-2.2,1.6-5.3,1-6.9-1.2l0,0
	c-1.6-2.2-1-5.3,1.2-6.9L-471.2,142.4z"/>
<path class="st3" d="M317.8,82.4C188.8,82.4,84.2,187,84.2,316s104.6,233.6,233.6,233.6S551.4,445.1,551.4,316
	S446.8,82.4,317.8,82.4z M317.8,395.5c-43.9,0-79.5-35.6-79.5-79.5s35.6-79.5,79.5-79.5s79.5,35.6,79.5,79.5
	S361.7,395.5,317.8,395.5z"/>
<g>
	<g>
		<path class="st4" d="M95,349.9c-1-52.5,20.7-101,51.8-142.2c15.8-20.9,34.2-39.8,53.6-57.2c14.4-13,26.5-23,42.4-33.1
			c13.1-8.3,27-15.9,41.7-21c6.7-2.3,13.1-3.9,19.2-4.2c1.4-0.1,2.9,0,4.3,0.1c0.2,0,2.5,0.3,0.7,0.1c0.7,0.1,1.3,0.2,1.9,0.4
			c0.6,0.1,3.9,1.4,2.4,0.7c0.7,0.3,3.7,2.4,2.6,1.4c0.5,0.4,2.6,2.9,1.8,1.7c0.8,1.1,1.4,2.3,2,3.5c-0.7-1.4,0.3,0.8,0.3,0.9
			c0.2,0.7,0.4,1.5,0.6,2.2c0.5,2.1,0.5,2.7,0.7,4.9c0.7,10.7-2.1,21.5-5,31.7c-7.6,26.4-21.2,50.7-35.3,74.1
			c-14,23.3-29.2,45.9-42.5,69.6c-15.2,27.1-28.7,55.2-40.7,83.9c-10.2,24.3-18.3,49.1-26.8,74c-5.8,17-11.7,34.1-14.8,51.8
			c-1.4,8.1-2.4,16.6-0.5,24.7c2,8.4,9.4,13.9,17.1,16.7c18.2,6.5,37.8-8.6,50.6-19.8c31.8-27.9,55.6-64.6,74.8-102
			c42-81.9,67.4-180.7,145.1-237.8c15.1-11.1,34-23.2,53.5-22.3c17.3,0.8,25.4,20.1,27.2,34.6c4.4,36-18.2,71.6-37.3,100.1
			c-23.4,35.1-50.9,67.2-74.2,102.4c-9.5,14.3-18.3,29.3-23.8,45.6c-7,20.8-17.5,40.2-23.4,61.3c-3.3,11.8-4.8,23.9-2.9,36.1
			c2,12.7,9.6,22.9,19.6,30.5c3.3,2.5,8.4,0.5,10.3-2.7c2.3-3.8,0.6-7.8-2.7-10.3c-17.3-13-14.1-35.2-8.7-53.5
			c6.2-20.5,16-39.8,23.2-59.9c5.6-15.6,15.2-30.5,24.6-44.4c11.6-17.2,24.3-33.7,36.8-50.3c24.8-33,50.8-66.7,65.7-105.6
			c6.1-15.9,9.8-33.3,7.7-50.4c-2.3-19.2-11.2-38.6-30-46.3c-18.7-7.7-41.1,2.2-57.2,11.4c-19.7,11.3-37.2,26.6-52.5,43.3
			c-32,35-53.5,77.8-72.8,120.7c-19.5,43.2-37.2,87.6-62.7,127.8c-10.9,17.2-23.6,33.1-37.5,47.9c-6.2,6.6-12.7,13-19.9,18.4
			c-6.3,4.8-14.4,10.2-22.2,11.1c-3.3,0.4-6,0.1-8.8-1.4c-1.6-0.8-2.9-2-4.2-3.3c-1.3-1.3,0.8,1.3-0.2-0.3c-0.4-0.7-0.4-0.7,0,0.1
			c-0.2-0.4-0.3-0.8-0.4-1.3c-1.7-5.4-0.4-13.9,0.9-20.7c3.3-17.3,9.2-34,14.9-50.7c8.9-26,17.4-51.8,28.3-77
			c12-27.9,25.5-55.4,40.8-81.7c27.2-47.2,62.5-91.8,76.8-145.2c4.5-16.8,8.5-38.2-3.3-52.9c-8.6-10.8-24.7-10.2-36.8-7.6
			c-15.6,3.2-30.4,10.6-44.2,18.4c-13.2,7.4-25.6,16-37.3,25.5c-40.5,32.8-77.5,71.9-102.3,118.1c-18,33.5-28.4,71-27.7,109.2
			C80.2,359.6,95.2,359.6,95,349.9L95,349.9z"/>
	</g>
</g>
<g>
	<circle class="st5" cx="236.8" cy="244.5" r="6.3"/>
	<circle class="st5" cx="347.5" cy="212.3" r="6.3"/>
	<circle class="st5" cx="506.2" cy="351" r="6.3"/>
	<circle class="st5" cx="360" cy="436" r="6.3"/>
	<circle class="st5" cx="203" cy="395" r="6.3"/>
	<circle class="st5" cx="224.3" cy="312.4" r="6.3"/>
	<circle class="st5" cx="440.4" cy="306.1" r="6.3"/>
	<circle class="st5" cx="154" cy="306.1" r="6.3"/>
	<circle class="st5" cx="258" cy="467.6" r="6.3"/>
	<circle class="st5" cx="446.7" cy="401.3" r="6.3"/>
	<circle class="st5" cx="285.7" cy="192.5" r="6.3"/>
	<circle class="st5" cx="412.3" cy="212.3" r="6.3"/>
	<circle class="st5" cx="399.7" cy="267" r="6.3"/>
	<circle class="st5" cx="412.3" cy="370" r="6.3"/>
	<circle class="st5" cx="427.9" cy="455" r="6.3"/>
	<circle class="st5" cx="353.7" cy="496.3" r="6.3"/>
	<circle class="st5" cx="292" cy="413" r="6.3"/>
	<circle class="st5" cx="230.5" cy="165.3" r="6.3"/>
	<circle class="st5" cx="180" cy="218.5" r="6.3"/>
	<circle class="st5" cx="341.2" cy="159" r="6.3"/>
	<circle class="st5" cx="473" cy="273.3" r="6.3"/>
	<circle class="st5" cx="160.3" cy="388.7" r="6.3"/>
	<circle class="st5" cx="218" cy="442.3" r="6.3"/>
</g>
</svg>
