<?xml version="1.0" encoding="utf-8"?>
<!-- Generator: Adobe Illustrator 17.1.0, SVG Export Plug-In . SVG Version: 6.00 Build 0)  -->
<!DOCTYPE svg PUBLIC "-//W3C//DTD SVG 1.1//EN" "http://www.w3.org/Graphics/SVG/1.1/DTD/svg11.dtd">
<svg version="1.1" id="Layer_1" xmlns="http://www.w3.org/2000/svg" xmlns:xlink="http://www.w3.org/1999/xlink" x="0px" y="0px"
	 viewBox="0 0 640 640" style="enable-background:new 0 0 640 640;" xml:space="preserve">
<style type="text/css">
	.st0{fill:#70AACC;}
	.st1{fill:#3A87AF;}
	.st2{fill:#CCA176;}
	.st3{fill:#D1BDA7;}
	.st4{fill:#603813;}
	.st5{fill:#FF7BAC;}
	.st6{fill:#8CC63F;}
	.st7{fill:#00BEF2;}
	.st8{fill:#FFFF00;}
	.st9{fill:#FFFFFF;}
	.st10{fill:#ED1E79;}
</style>
<path class="st0" d="M617.1,561c0,30.2-24.4,54.8-54.8,54.8H77.2c-30.2,0-54.8-24.4-54.8-54.8V75.9c0-30.2,24.4-54.8,54.8-54.8
	h485.2c30.2,0,54.8,24.4,54.8,54.8V561H617.1z"/>
<polygon class="st1" points="220,450.3 354.4,614.9 561.2,614.9 352,386 "/>
<path class="st1" d="M283,190.1L182.3,287l192.3,327.9l187.6,0.3c29.6,0,53.6-24.6,53.6-54.9V409.1L283,190.1z"/>
<polygon class="st1" points="467.3,226.3 369.7,315.1 617.2,559.9 617.2,370.2 "/>
<path class="st1" d="M968.3,155.3c0-43.4,35.2-78.6,78.6-78.6c19.1,0,36.6,6.8,50.2,18.2c-13.4-23.9-39-40.1-68.5-40.1
	c-43.4,0-78.6,35.2-78.6,78.6c0,24.3,11,46,28.4,60.4C972,182.4,968.3,169.3,968.3,155.3z"/>
<path class="st2" d="M737,366.9c-42.4,0-76.7-34.3-76.7-76.7s34.3-76.7,76.7-76.7c42.4,0,76.7,34.3,76.7,76.7S779.4,366.9,737,366.9
	z"/>
<path class="st3" d="M293.9,506.1c-42.4,0-76.7-34.3-76.7-76.7s34.3-76.7,76.7-76.7s76.7,34.3,76.7,76.7
	C370.6,471.7,336.3,506.1,293.9,506.1z"/>
<path class="st3" d="M230.5,310.5c-42.4,0-76.7-34.3-76.7-76.7s34.3-76.7,76.7-76.7s76.7,34.3,76.7,76.7
	C307.1,276.1,272.8,310.5,230.5,310.5z"/>
<path class="st3" d="M428.9,356.2c-42.4,0-76.7-34.3-76.7-76.7s34.3-76.7,76.7-76.7s76.7,34.3,76.7,76.7
	C505.5,321.8,471.2,356.2,428.9,356.2z"/>
<path class="st4" d="M934.1,394.9c-42.4,0-76.7-34.3-76.7-76.7s34.3-76.7,76.7-76.7c42.4,0,76.7,34.3,76.7,76.7
	C1010.8,360.5,976.5,394.9,934.1,394.9z"/>
<g>
	<path class="st5" d="M295.8,449.3c-1.4,1.4-3.6,1.4-4.9,0l0,0c-1.4-1.4-1.4-3.6,0-4.9l14.5-14.5c1.4-1.4,3.6-1.4,4.9,0l0,0
		c1.4,1.4,1.4,3.6,0,4.9L295.8,449.3z"/>
	<path class="st6" d="M255.1,452.2c0.3,1.9-1.2,3.6-3.1,3.8l0,0c-1.9,0.3-3.6-1.2-3.8-3.1l-2.4-20.4c-0.3-1.9,1.2-3.6,3.1-3.8l0,0
		c1.9-0.3,3.6,1.2,3.8,3.1L255.1,452.2z"/>
	<path class="st7" d="M252.7,397.3c-1.4,1.4-3.6,1.4-4.9,0l0,0c-1.4-1.4-1.4-3.6,0-4.9l14.5-14.5c1.4-1.4,3.6-1.4,4.9,0l0,0
		c1.4,1.4,1.4,3.6,0,4.9L252.7,397.3z"/>
	<path class="st8" d="M260.4,416.8c-1.9-0.3-3.2-2-3.1-3.8l0,0c0.3-1.9,2-3.2,3.8-3.1l20.2,2.6c1.9,0.3,3.2,2,3.1,3.8l0,0
		c-0.3,1.9-2,3.2-3.8,3.1L260.4,416.8z"/>
	<path class="st9" d="M290,388.2c-1.9-0.3-3.2-2-3.1-3.8l0,0c0.3-1.9,2-3.2,3.8-3.1l20.2,2.6c1.9,0.3,3.2,2,3.1,3.8l0,0
		c-0.3,1.9-2,3.2-3.8,3.1L290,388.2z"/>
</g>
<g>
	<path class="st7" d="M290.9,475.6c-1.8-0.5-2.8-2.6-2.3-4.4l0,0c0.5-1.8,2.6-2.8,4.4-2.3l19.6,5.9c1.8,0.5,2.8,2.6,2.3,4.4l0,0
		c-0.5,1.8-2.6,2.8-4.4,2.3L290.9,475.6z"/>
	<path class="st8" d="M334.5,427.3c-0.6,1.8-2.7,2.7-4.5,2l0,0c-1.8-0.6-2.7-2.7-2-4.5l7.3-19.1c0.6-1.8,2.7-2.7,4.5-2l0,0
		c1.8,0.6,2.7,2.7,2,4.5L334.5,427.3z"/>
</g>
<g>
	<g>
		<path class="st10" d="M234.5,168.2c31.1,2.7,57.2,28.8,70.8,55.4c2.4,4.7,11.5,22.9,2.3,25.1c-6.9,1.7-16.3-4.2-21.9-7.4
			c-7.9-4.6-15.2-10.4-22.5-15.9c-14.8-11.4-30.7-21.4-47.6-29.6c-10.2-5-21.9-11.1-33.2-13.1c-10.2-1.8-12.7,7.8-9.3,15.6
			c4.4,10.4,15.2,19.7,24.1,26.2c18.2,13.7,39.4,22.7,58,35.6c9.7,6.9,18.4,15.2,24.8,25.3c2.9,4.6,5.4,9.9,6,15.2
			c0.9,7.2-4.7,10-10.8,11.3c-11.3,2.4-23.6-2.3-33.7-6.9c-11.1-5-21.5-11.5-32-17.7c-9-5.2-18.4-9.9-28-14c-9.5-4-19.3-5.1-27,2.7
			c-2.2,2.2,1.3,5.6,3.5,3.5c7.2-7.3,16.3-4.1,24.4-0.4c6.4,2.8,12.7,5.9,18.8,9.2c13.2,7.2,25.7,15.5,39.4,21.8
			c11.6,5.2,24.4,9.1,37.4,6.4c12-2.6,14.8-12.5,11.1-23.2c-9.2-26.9-37.6-41.9-60.7-54.8c-13.3-7.4-26.6-15.1-37.8-25.7
			c-4.1-4-8.1-8.3-11.3-13.1c-1.8-2.7-3.6-6-3.2-9.3c0.6-4.5,5.8-2.9,8.6-2.2c10.4,2.7,20.9,8.2,30.5,12.8c14.8,7.2,29.1,16,42.2,26
			c11.1,8.4,22.3,18,35.5,23.3c6.7,2.7,17.2,6.4,22-1.2c3.6-5.6,0.4-14.5-1.7-20c-3.3-8.8-8.4-16.8-14.1-24.3
			c-15.7-21.2-37.5-39.3-64.6-41.7C231.3,163.1,231.3,167.9,234.5,168.2L234.5,168.2z"/>
	</g>
</g>
<g>
	<g>
		<polygon class="st9" points="472.7,233 475.6,239 483.8,236 477.2,228.7 467.3,230.9 468,235.4 		"/>
		<polygon class="st9" points="467.7,245.2 477.6,245.2 477.6,250.8 471.3,250.8 463.2,247.9 		"/>
		<polygon class="st9" points="491,247.8 491,255.9 484.7,251.9 487.8,246 		"/>
		<polygon class="st9" points="500.6,249.9 500.6,257.9 494.2,254 497.4,247.9 		"/>
		<polygon class="st9" points="427.1,257 426.9,263.3 437.1,260.2 430.5,253.1 420.6,255.1 422.8,258.2 		"/>
		<polygon class="st9" points="429.7,269.3 439.6,269.3 439.6,274.7 433.4,274.7 425.2,272 		"/>
		<polygon class="st9" points="421.5,291.5 416.8,287 419.2,284.4 422.3,287.2 425,292.2 		"/>
		<polygon class="st9" points="469.9,302.8 465,298.4 467.6,295.7 470.5,298.6 473.2,303.6 		"/>
		<polygon class="st9" points="440.7,282 440.7,289.9 434.3,286 437.5,280.1 		"/>
		<polygon class="st9" points="456.2,245 456.2,252.9 449.8,249 453,243.1 		"/>
		<polygon class="st9" points="459.4,230 459.4,238 453,234 456.2,228.1 		"/>
		<polygon class="st9" points="495.4,274.8 495.4,282.8 489,278.8 492.2,272.9 		"/>
		<polygon class="st9" points="494.2,215.2 494.2,223.2 487.8,219.1 491,213.2 		"/>
		<polygon class="st9" points="449.7,260 449.7,267.9 440.4,257.9 446.5,258 		"/>
		<polygon class="st9" points="413.7,271.6 413.7,279.6 407.3,275.6 410.5,269.7 		"/>
		<polygon class="st9" points="465.4,262.1 472.3,263 463.2,267.9 454.3,262.4 459.5,255.6 		"/>
		<polygon class="st9" points="474.9,274.4 470.4,274.3 476,283.4 481.3,275.1 476.4,266.1 473.3,267.4 		"/>
		<polygon class="st9" points="461.2,273.3 469.6,278.4 466.8,283 461.4,279.8 455.9,273.3 		"/>
		<polygon class="st9" points="466.6,293.5 459,295.7 461.1,288.5 467.6,289.9 		"/>
		<polygon class="st9" points="441.6,235.6 436.7,240.1 442.4,249.2 447.6,240.8 442.9,231.8 440.6,234.8 		"/>
		<polygon class="st9" points="427.5,236.3 430.2,245.8 425.1,247.3 423.3,241.3 423.7,232.7 		"/>
		<polygon class="st9" points="409.3,244.4 405.6,239.1 409.3,233 412.3,236 414.2,244.4 		"/>
		<polygon class="st9" points="467.8,211.6 460.2,213.8 462.3,206.5 468.9,208 		"/>
		<polygon class="st9" points="411.4,263.2 408.4,266.9 403.7,265.3 405.9,258.2 412.4,259.6 		"/>
		<polygon class="st9" points="424.4,221.4 416.8,223.6 418.8,216.4 425.3,217.9 		"/>
		<path class="st9" d="M452.7,301.1c0,0-5.8,5.2-7.7,2.2c-1.9-3.1,2-7.2,2-7.2l6.5,1.4L452.7,301.1z"/>
		<path class="st9" d="M498.9,229c0,0-5.8,5.2-7.7,2.2c-1.9-3.1,2-7.2,2-7.2l6.5,1.4L498.9,229z"/>
		<polygon class="st9" points="481.8,221.1 474.1,223.2 476.2,216.1 482.8,217.5 		"/>
		<polygon class="st9" points="475.9,295.8 476.9,302.7 473.6,301.4 472.7,285.2 480.6,288.5 		"/>
		<path class="st9" d="M432.4,286.5c0,1.2-1.3,2-2.7,2c-1.5,0-4.4-2.9-4.4-4.1c0-1.2,2.8,0,4.4,0
			C431.2,284.4,432.4,285.3,432.4,286.5z"/>
	</g>
	<path class="st9" d="M442.1,214.8l10.9-4.9v4.9l-5.4,4.9v-3.2C447.6,216.4,443.3,216.4,442.1,214.8z"/>
	<path class="st9" d="M432.4,219.6c0,0,10.4,9.6,9.7,5.8c-0.6-3.8-4.7-9-4.7-9L432.4,219.6z"/>
	<path class="st9" d="M463.2,222.5l4,3.8c0,0,3.7-1.3,0.6-4.9C464.9,217.7,463.2,222.5,463.2,222.5z"/>
	<path class="st9" d="M435.8,209.4l4,3.8c0,0,3.7-1.3,0.6-4.9C437.5,204.7,435.8,209.4,435.8,209.4z"/>
	<path class="st9" d="M426.6,225.3l-5.5-1c0,0-2.4,3.1,2.2,4.5C427.9,230.1,426.6,225.3,426.6,225.3z"/>
	<path class="st9" d="M475.5,257.4l4,3.8c0,0,3.7-1.3,0.6-4.9C477.2,252.7,475.5,257.4,475.5,257.4z"/>
	<path class="st9" d="M447.6,285.1l2.2-7.7l7.4,9.2l-9.7,6.5C447.6,293.2,441.9,288.3,447.6,285.1z"/>
	<path class="st9" d="M490.2,268c0,0,2.9-5.8-2.3-6.3c-5.4-0.4-5.1,4.4-5.1,4.4l1.9,5.9L490.2,268z"/>
	<path class="st9" d="M402.7,237.3c0,0,0,7.9-2.9,6.9c-2.9-1-2.9-8.7-2.9-8.7h5.9L402.7,237.3L402.7,237.3z"/>
</g>
</svg>
