<?xml version="1.0" encoding="utf-8"?>
<!-- Generator: Adobe Illustrator 17.1.0, SVG Export Plug-In . SVG Version: 6.00 Build 0)  -->
<!DOCTYPE svg PUBLIC "-//W3C//DTD SVG 1.1//EN" "http://www.w3.org/Graphics/SVG/1.1/DTD/svg11.dtd">
<svg version="1.1" id="Layer_1" xmlns="http://www.w3.org/2000/svg" xmlns:xlink="http://www.w3.org/1999/xlink" x="0px" y="0px"
	 viewBox="0 0 500 500" enable-background="new 0 0 500 500" xml:space="preserve">
<path fill="#70AACC" d="M482.1,438.3c0,23.6-19.1,42.8-42.8,42.8H60.3c-23.6,0-42.8-19.1-42.8-42.8V59.3c0-23.6,19.1-42.8,42.8-42.8
	h379.1c23.6,0,42.8,19.1,42.8,42.8V438.3z"/>
<path fill="#3A87AF" d="M429.5,237.8c0,0,7.8,78.1-57.3,137.3c-65.1,59.2-152.3,48.2-152.3,48.2l57,57h161.5
	c23.6,0,42.8-19.1,42.8-42.8V289.5L429.5,237.8z"/>
<path fill="#3A87AF" d="M200.5,263.3c0-33.9,27.5-61.4,61.4-61.4c14.9,0,28.6,5.3,39.2,14.2c-10.5-18.7-30.5-31.3-53.5-31.3
	c-33.9,0-61.4,27.5-61.4,61.4c0,19,8.6,35.9,22.2,47.2C203.4,284.5,200.5,274.3,200.5,263.3z"/>
<path fill="#CCA176" d="M248.8,64.4C148.4,64.4,67,145.8,67,246.3s81.4,181.8,181.8,181.8s181.8-81.4,181.8-181.8
	S349.2,64.4,248.8,64.4z M248.8,308.1c-34.2,0-61.9-27.7-61.9-61.9c0-34.2,27.7-61.9,61.9-61.9s61.9,27.7,61.9,61.9
	C310.7,280.4,283,308.1,248.8,308.1z"/>
<path fill="#FFDF63" d="M395.7,198.5c-5.3-16.3-1.2-37.5-11-51c-9.9-13.7-31.4-16.3-45.1-26.2c-13.5-9.9-22.6-29.5-38.9-34.8
	c-15.7-5.1-34.5,5.3-51.9,5.3c-17.4,0-36.2-10.4-51.9-5.3c-16.3,5.3-25.3,25-38.9,34.8c-13.7,9.9-35.2,12.6-45.1,26.2
	c-9.9,13.5-5.8,34.7-11,51c-5.1,15.7-21,30.3-21,47.7c0,17.4,15.9,32,21,47.7c5.3,16.3,1.2,37.5,11,51c9.9,13.7,31.4,16.3,45.1,26.2
	c13.5,9.9,22.6,29.5,38.9,34.8c15.7,5.1,34.5-5.3,51.9-5.3c17.4,0,36.2,10.4,51.9,5.3c16.3-5.3,25.3-25,38.9-34.8
	c13.7-9.9,35.2-12.6,45.1-26.2c9.9-13.5,5.8-34.7,11-51c5.1-15.7,21-30.3,21-47.7C416.7,228.9,400.8,214.2,395.7,198.5z
	 M248.8,308.1c-34.2,0-61.9-27.7-61.9-61.9s27.7-61.9,61.9-61.9s61.9,27.7,61.9,61.9S283,308.1,248.8,308.1z"/>
<path fill="#EECE5C" d="M293.1,348.6c-84.2,0-152.4-68.2-152.4-152.4c0-28.6,7.9-55.3,21.6-78.2c-1.6,1.5-3.2,2.9-4.9,4.1
	c-13.7,9.9-35.2,12.6-45.1,26.2c-9.9,13.5-5.8,34.7-11,51c-5.1,15.7-21,30.3-21,47.7c0,17.4,15.9,32,21,47.7
	c5.3,16.3,1.2,37.5,11,51c9.9,13.7,31.4,16.3,45.1,26.2c13.5,9.9,22.6,29.5,38.9,34.8c15.7,5.1,34.5-5.3,51.9-5.3
	c17.4,0,36.2,10.4,51.9,5.3c16.3-5.3,25.3-25,38.9-34.8c13.7-9.9,35.2-12.6,45.1-26.2c6.6-9,6.9-21.5,8-33.7
	C365.3,334.9,330.8,348.6,293.1,348.6z"/>
<path fill="#FFFFFF" d="M151.2,196.7c1.4,1.9,1.1,4.5-0.8,6l0,0c-1.9,1.4-4.5,1.1-6-0.8l-15.2-19.8c-1.4-1.9-1.1-4.5,0.8-6l0,0
	c1.9-1.4,4.5-1.1,6,0.8L151.2,196.7z"/>
<path fill="#FFFFFF" d="M155.8,334.6c1.4,1.9,1.1,4.5-0.8,6l0,0c-1.9,1.4-4.5,1.1-6-0.8L133.9,320c-1.4-1.9-1.1-4.5,0.8-6l0,0
	c1.9-1.4,4.5-1.1,6,0.8L155.8,334.6z"/>
<path fill="#FFFFFF" d="M302.7,380.6c1.4,1.9,1.1,4.5-0.8,6l0,0c-1.9,1.4-4.5,1.1-6-0.8L280.7,366c-1.4-1.9-1.1-4.5,0.8-6l0,0
	c1.9-1.4,4.5-1.1,6,0.8L302.7,380.6z"/>
<path fill="#FFFFFF" d="M369.9,167.5c1.9-0.4,3.8,0.8,4.2,2.7l0,0c0.4,1.9-0.8,3.8-2.7,4.2l-20.3,4.3c-1.9,0.4-3.8-0.8-4.2-2.7l0,0
	c-0.4-1.9,0.8-3.8,2.7-4.2L369.9,167.5z"/>
<path fill="#FFFFFF" d="M229.5,161.8c1.9-0.4,3.8,0.8,4.2,2.7l0,0c0.4,1.9-0.8,3.8-2.7,4.2l-20.3,4.3c-1.9,0.4-3.8-0.8-4.2-2.7l0,0
	c-0.4-1.9,0.8-3.8,2.7-4.2L229.5,161.8z"/>
<path fill="#FFFFFF" d="M298.7,163c-0.5,1.9-2.4,3-4.3,2.5l0,0c-1.9-0.5-3-2.4-2.5-4.3l5.2-20.1c0.5-1.9,2.4-3,4.3-2.5l0,0
	c1.9,0.5,3,2.4,2.5,4.3L298.7,163z"/>
<path fill="#FFFFFF" d="M343.5,340.7c-1.4,1.4-3.6,1.4-5,0l0,0c-1.4-1.4-1.4-3.6,0-5l14.7-14.7c1.4-1.4,3.6-1.4,5,0l0,0
	c1.4,1.4,1.4,3.6,0,5L343.5,340.7z"/>
<path fill="#FFFFFF" d="M226.1,337.1c-1.4,1.4-3.6,1.4-5,0l0,0c-1.4-1.4-1.4-3.6,0-5l14.7-14.7c1.4-1.4,3.6-1.4,5,0l0,0
	c1.4,1.4,1.4,3.6,0,5L226.1,337.1z"/>
<path fill="#FFFFFF" d="M219.9,383.2c0.2,1.9-1.2,3.7-3.1,3.9l0,0c-1.9,0.2-3.7-1.2-3.9-3.1l-2.4-20.6c-0.2-1.9,1.2-3.7,3.1-3.9l0,0
	c1.9-0.2,3.7,1.2,3.9,3.1L219.9,383.2z"/>
<path fill="#FFFFFF" d="M326.5,309.2c0.2,1.9-1.2,3.7-3.1,3.9l0,0c-1.9,0.2-3.7-1.2-3.9-3.1l-2.4-20.6c-0.2-1.9,1.2-3.7,3.1-3.9l0,0
	c1.9-0.2,3.7,1.2,3.9,3.1L326.5,309.2z"/>
<path fill="#FFFFFF" d="M140,278.3c-1.4,1.4-3.6,1.4-5,0l0,0c-1.4-1.4-1.4-3.6,0-5l14.7-14.7c1.4-1.4,3.6-1.4,5,0l0,0
	c1.4,1.4,1.4,3.6,0,5L140,278.3z"/>
<path fill="#FFFFFF" d="M193.2,138.7c-1.4,1.4-3.6,1.4-5,0l0,0c-1.4-1.4-1.4-3.6,0-5l14.7-14.7c1.4-1.4,3.6-1.4,5,0l0,0
	c1.4,1.4,1.4,3.6,0,5L193.2,138.7z"/>
<path fill="#FFFFFF" d="M337.5,245.6c-1.9-0.2-3.3-2-3.1-4l0,0c0.2-1.9,2-3.3,4-3.1l20.6,2.6c1.9,0.2,3.3,2,3.1,4l0,0
	c-0.2,1.9-2,3.3-4,3.1L337.5,245.6z"/>
</svg>
